Playpen-Rg00LongSlow.ufo
<glyph name="exclam" format="2">
	<unicode hex="0021"/>
	<advance width="462"/>
	<outline>
		<contour>
			<point x="232" y="173" type="curve" smooth="yes"/>
			<point x="255" y="173"/>
			<point x="267" y="180"/>
			<point x="267" y="195" type="curve" smooth="yes"/>
			<point x="267" y="1190" type="line" smooth="yes"/>
			<point x="267" y="1205"/>
			<point x="255" y="1212"/>
			<point x="232" y="1212" type="curve" smooth="yes"/>
			<point x="209" y="1212"/>
			<point x="197" y="1205"/>
			<point x="197" y="1190" type="curve" smooth="yes"/>
			<point x="197" y="195" type="line" smooth="yes"/>
			<point x="197" y="180"/>
			<point x="209" y="173"/>
		</contour>
		<contour>
			<point x="232" y="-11" type="curve" smooth="yes"/>
			<point x="261" y="-11"/>
			<point x="277" y="5"/>
			<point x="276" y="39" type="curve" smooth="yes"/>
			<point x="275" y="73"/>
			<point x="261" y="90"/>
			<point x="232" y="90" type="curve" smooth="yes"/>
			<point x="202" y="90"/>
			<point x="187" y="73"/>
			<point x="187" y="39" type="curve" smooth="yes"/>
			<point x="187" y="5"/>
			<point x="202" y="-11"/>
		</contour>
	</outline>
</glyph>
<glyph name="numbersign" format="2">
	<unicode hex="0023"/>
	<advance width="740"/>
	<outline>
		<contour>
			<point x="133" y="-16" type="curve" smooth="yes"/>
			<point x="156" y="-21"/>
			<point x="169" y="-18"/>
			<point x="173" y="-3" type="curve" smooth="yes"/>
			<point x="353" y="684" type="line" smooth="yes"/>
			<point x="357" y="699"/>
			<point x="347" y="709"/>
			<point x="325" y="715" type="curve" smooth="yes"/>
			<point x="302" y="721"/>
			<point x="289" y="717"/>
			<point x="285" y="702" type="curve" smooth="yes"/>
			<point x="105" y="15" type="line" smooth="yes"/>
			<point x="101" y="0"/>
			<point x="111" y="-11"/>
		</contour>
		<contour>
			<point x="22" y="182" type="curve" smooth="yes"/>
			<point x="648" y="182" type="line" smooth="yes"/>
			<point x="664" y="182"/>
			<point x="670" y="190"/>
			<point x="670" y="214" type="curve" smooth="yes"/>
			<point x="670" y="238"/>
			<point x="664" y="246"/>
			<point x="648" y="246" type="curve" smooth="yes"/>
			<point x="22" y="246" type="line" smooth="yes"/>
			<point x="6" y="246"/>
			<point x="0" y="238"/>
			<point x="0" y="214" type="curve" smooth="yes"/>
			<point x="0" y="190"/>
			<point x="6" y="182"/>
		</contour>
		<contour>
			<point x="92" y="453" type="curve" smooth="yes"/>
			<point x="718" y="453" type="line" smooth="yes"/>
			<point x="734" y="453"/>
			<point x="740" y="461"/>
			<point x="740" y="485" type="curve" smooth="yes"/>
			<point x="740" y="509"/>
			<point x="734" y="517"/>
			<point x="718" y="517" type="curve" smooth="yes"/>
			<point x="92" y="517" type="line" smooth="yes"/>
			<point x="76" y="517"/>
			<point x="70" y="509"/>
			<point x="70" y="485" type="curve" smooth="yes"/>
			<point x="70" y="461"/>
			<point x="76" y="453"/>
		</contour>
		<contour>
			<point x="413" y="-16" type="curve" smooth="yes"/>
			<point x="436" y="-21"/>
			<point x="449" y="-18"/>
			<point x="453" y="-3" type="curve" smooth="yes"/>
			<point x="633" y="684" type="line" smooth="yes"/>
			<point x="637" y="699"/>
			<point x="627" y="709"/>
			<point x="605" y="715" type="curve" smooth="yes"/>
			<point x="582" y="721"/>
			<point x="569" y="717"/>
			<point x="565" y="702" type="curve" smooth="yes"/>
			<point x="385" y="15" type="line" smooth="yes"/>
			<point x="381" y="0"/>
			<point x="391" y="-11"/>
		</contour>
	</outline>
</glyph>
<glyph name="dollar" format="2">
  <advance width="1066"/>
  <unicode hex="0024"/>
  <outline>
    <contour>
      <point x="514" y="-19" type="curve" smooth="yes"/>
      <point x="778" y="-19"/>
      <point x="949" y="146"/>
      <point x="949" y="395" type="curve" smooth="yes"/>
      <point x="949" y="649"/>
      <point x="755" y="738"/>
      <point x="581" y="805" type="curve" smooth="yes"/>
      <point x="419" y="869"/>
      <point x="264" y="930"/>
      <point x="264" y="1148" type="curve" smooth="yes"/>
      <point x="264" y="1323"/>
      <point x="375" y="1430"/>
      <point x="551" y="1430" type="curve" smooth="yes"/>
      <point x="669" y="1430"/>
      <point x="766" y="1376"/>
      <point x="871" y="1286" type="curve" smooth="yes"/>
      <point x="886" y="1274"/>
      <point x="901" y="1284"/>
      <point x="918" y="1301" type="curve" smooth="yes"/>
      <point x="931" y="1316"/>
      <point x="935" y="1330"/>
      <point x="921" y="1343" type="curve" smooth="yes"/>
      <point x="820" y="1435"/>
      <point x="716" y="1515"/>
      <point x="551" y="1515" type="curve" smooth="yes"/>
      <point x="340" y="1515"/>
      <point x="171" y="1379"/>
      <point x="171" y="1148" type="curve" smooth="yes"/>
      <point x="171" y="875"/>
      <point x="365" y="793"/>
      <point x="548" y="719" type="curve" smooth="yes"/>
      <point x="721" y="653"/>
      <point x="856" y="583"/>
      <point x="856" y="395" type="curve" smooth="yes"/>
      <point x="856" y="193"/>
      <point x="725" y="66"/>
      <point x="514" y="66" type="curve" smooth="yes"/>
      <point x="369" y="66"/>
      <point x="271" y="121"/>
      <point x="185" y="209" type="curve" smooth="yes"/>
      <point x="160" y="231"/>
      <point x="151" y="228"/>
      <point x="133" y="208" type="curve" smooth="yes"/>
      <point x="114" y="189"/>
      <point x="115" y="179"/>
      <point x="125" y="165" type="curve" smooth="yes"/>
      <point x="224" y="33"/>
      <point x="378" y="-19"/>
    </contour>
    <contour>
      <point x="544" y="-150" type="curve" smooth="yes"/>
      <point x="570" y="-150"/>
      <point x="584" y="-141"/>
      <point x="584" y="-122" type="curve" smooth="yes"/>
      <point x="584" y="1634" type="line" smooth="yes"/>
      <point x="584" y="1653"/>
      <point x="570" y="1661"/>
      <point x="544" y="1661" type="curve" smooth="yes"/>
      <point x="518" y="1661"/>
      <point x="504" y="1653"/>
      <point x="504" y="1634" type="curve" smooth="yes"/>
      <point x="504" y="-122" type="line" smooth="yes"/>
      <point x="504" y="-141"/>
      <point x="518" y="-150"/>
    </contour>
  </outline>
</glyph>
<glyph name="percent" format="2">
  <advance width="1020"/>
  <unicode hex="0025"/>
  <outline>
    <contour>
      <point x="272" y="696" type="curve" smooth="yes"/>
      <point x="392" y="696"/>
      <point x="470" y="804"/>
      <point x="470" y="954" type="curve" smooth="yes"/>
      <point x="470" y="1104"/>
      <point x="392" y="1212"/>
      <point x="272" y="1212" type="curve" smooth="yes"/>
      <point x="151" y="1212"/>
      <point x="72" y="1104"/>
      <point x="72" y="954" type="curve" smooth="yes"/>
      <point x="72" y="804"/>
      <point x="151" y="696"/>
    </contour>
    <contour>
      <point x="272" y="757" type="curve" smooth="yes"/>
      <point x="195" y="757"/>
      <point x="139" y="825"/>
      <point x="139" y="954" type="curve" smooth="yes"/>
      <point x="139" y="1083"/>
      <point x="195" y="1151"/>
      <point x="272" y="1151" type="curve" smooth="yes"/>
      <point x="348" y="1151"/>
      <point x="403" y="1083"/>
      <point x="403" y="954" type="curve" smooth="yes"/>
      <point x="403" y="825"/>
      <point x="348" y="757"/>
    </contour>
    <contour>
      <point x="214" y="-7" type="curve" smooth="yes"/>
      <point x="861" y="1172" type="line" smooth="yes"/>
      <point x="869" y="1186"/>
      <point x="865" y="1191"/>
      <point x="845" y="1204" type="curve" smooth="yes"/>
      <point x="825" y="1217"/>
      <point x="815" y="1216"/>
      <point x="808" y="1204" type="curve" smooth="yes"/>
      <point x="161" y="25" type="line" smooth="yes"/>
      <point x="154" y="12"/>
      <point x="157" y="5"/>
      <point x="177" y="-7" type="curve" smooth="yes"/>
      <point x="196" y="-19"/>
      <point x="207" y="-20"/>
    </contour>
    <contour>
      <point x="751" y="-15" type="curve" smooth="yes"/>
      <point x="871" y="-15"/>
      <point x="949" y="93"/>
      <point x="949" y="243" type="curve" smooth="yes"/>
      <point x="949" y="393"/>
      <point x="871" y="501"/>
      <point x="751" y="501" type="curve" smooth="yes"/>
      <point x="630" y="501"/>
      <point x="551" y="393"/>
      <point x="551" y="243" type="curve" smooth="yes"/>
      <point x="551" y="93"/>
      <point x="630" y="-15"/>
    </contour>
    <contour>
      <point x="751" y="46" type="curve" smooth="yes"/>
      <point x="674" y="46"/>
      <point x="618" y="114"/>
      <point x="618" y="243" type="curve" smooth="yes"/>
      <point x="618" y="372"/>
      <point x="674" y="440"/>
      <point x="751" y="440" type="curve" smooth="yes"/>
      <point x="827" y="440"/>
      <point x="882" y="372"/>
      <point x="882" y="243" type="curve" smooth="yes"/>
      <point x="882" y="114"/>
      <point x="827" y="46"/>
    </contour>
  </outline>
</glyph>
<glyph name="ampersand" format="2">
  <advance width="1321"/>
  <unicode hex="0026"/>
  <outline>
    <contour>
      <point x="110" y="408" type="curve" smooth="yes"/>
      <point x="110" y="155"/>
      <point x="279" y="-19"/>
      <point x="526" y="-19" type="curve" smooth="yes"/>
      <point x="876" y="-19"/>
      <point x="1129" y="310"/>
      <point x="1129" y="764" type="curve" smooth="yes"/>
      <point x="1129" y="781"/>
      <point x="1114" y="790"/>
      <point x="1085" y="790" type="curve" smooth="yes"/>
      <point x="1056" y="790"/>
      <point x="1043" y="781"/>
      <point x="1043" y="764" type="curve" smooth="yes"/>
      <point x="1043" y="359"/>
      <point x="826" y="66"/>
      <point x="529" y="66" type="curve" smooth="yes"/>
      <point x="336" y="66"/>
      <point x="204" y="196"/>
      <point x="204" y="420" type="curve" smooth="yes"/>
      <point x="204" y="861"/>
      <point x="856" y="773"/>
      <point x="856" y="1205" type="curve" smooth="yes"/>
      <point x="856" y="1385"/>
      <point x="729" y="1515"/>
      <point x="551" y="1515" type="curve" smooth="yes"/>
      <point x="368" y="1515"/>
      <point x="235" y="1375"/>
      <point x="235" y="1181" type="curve" smooth="yes"/>
      <point x="235" y="1049"/>
      <point x="280" y="939"/>
      <point x="414" y="786" type="curve" smooth="yes"/>
      <point x="1108" y="-10" type="line" smooth="yes"/>
      <point x="1121" y="-27"/>
      <point x="1140" y="-21"/>
      <point x="1159" y="-4" type="curve" smooth="yes"/>
      <point x="1179" y="16"/>
      <point x="1183" y="31"/>
      <point x="1168" y="49" type="curve" smooth="yes"/>
      <point x="475" y="844" type="line" smooth="yes"/>
      <point x="373" y="961"/>
      <point x="325" y="1064"/>
      <point x="325" y="1181" type="curve" smooth="yes"/>
      <point x="325" y="1325"/>
      <point x="410" y="1430"/>
      <point x="551" y="1430" type="curve" smooth="yes"/>
      <point x="678" y="1430"/>
      <point x="769" y="1335"/>
      <point x="769" y="1193" type="curve" smooth="yes"/>
      <point x="769" y="843"/>
      <point x="110" y="908"/>
    </contour>
  </outline>
</glyph>
<glyph name="quotesingle" format="2">
	<unicode hex="0027"/>
	<advance width="135"/>
	<outline>
		<contour>
			<point x="71" y="978" type="curve" smooth="yes"/>
			<point x="91" y="978"/>
			<point x="95" y="990"/>
			<point x="96" y="1003" type="curve" smooth="yes"/>
			<point x="108" y="1204" type="line" smooth="yes"/>
			<point x="109" y="1221"/>
			<point x="99" y="1236"/>
			<point x="71" y="1236" type="curve" smooth="yes"/>
			<point x="43" y="1236"/>
			<point x="33" y="1221"/>
			<point x="34" y="1204" type="curve" smooth="yes"/>
			<point x="46" y="1003" type="line" smooth="yes"/>
			<point x="47" y="990"/>
			<point x="50" y="978"/>
		</contour>
	</outline>
</glyph>
<glyph name="parenright" format="2">
  <advance width="389"/>
  <unicode hex="0029"/>
  <outline>
    <contour>
      <point x="86" y="-17" type="curve" smooth="yes"/>
      <point x="74" y="-43"/>
      <point x="80" y="-50"/>
      <point x="102" y="-59" type="curve" smooth="yes"/>
      <point x="126" y="-69"/>
      <point x="134" y="-66"/>
      <point x="143" y="-47" type="curve" smooth="yes"/>
      <point x="230" y="137"/>
      <point x="282" y="352"/>
      <point x="282" y="600" type="curve" smooth="yes"/>
      <point x="282" y="847"/>
      <point x="230" y="1063"/>
      <point x="143" y="1247" type="curve" smooth="yes"/>
      <point x="134" y="1266"/>
      <point x="126" y="1269"/>
      <point x="102" y="1259" type="curve" smooth="yes"/>
      <point x="80" y="1250"/>
      <point x="74" y="1243"/>
      <point x="86" y="1217" type="curve" smooth="yes"/>
      <point x="164" y="1049"/>
      <point x="212" y="843"/>
      <point x="212" y="600" type="curve" smooth="yes"/>
      <point x="212" y="356"/>
      <point x="164" y="151"/>
    </contour>
  </outline>
</glyph>
<glyph name="asterisk" format="2">
  <advance width="358"/>
  <unicode hex="002A"/>
  <outline>
    <contour>
      <point x="179" y="504" type="curve" smooth="yes"/>
      <point x="198" y="504"/>
      <point x="206" y="513"/>
      <point x="206" y="525" type="curve" smooth="yes"/>
      <point x="206" y="873" type="line" smooth="yes"/>
      <point x="206" y="885"/>
      <point x="198" y="894"/>
      <point x="179" y="894" type="curve" smooth="yes"/>
      <point x="160" y="894"/>
      <point x="151" y="885"/>
      <point x="151" y="873" type="curve" smooth="yes"/>
      <point x="151" y="525" type="line" smooth="yes"/>
      <point x="151" y="513"/>
      <point x="160" y="504"/>
    </contour>
    <contour>
      <point x="348" y="601" type="curve" smooth="yes"/>
      <point x="358" y="618"/>
      <point x="354" y="630"/>
      <point x="343" y="636" type="curve" smooth="yes"/>
      <point x="43" y="810" type="line" smooth="yes"/>
      <point x="31" y="816"/>
      <point x="19" y="813"/>
      <point x="10" y="796" type="curve" smooth="yes"/>
      <point x="0" y="780"/>
      <point x="4" y="768"/>
      <point x="15" y="761" type="curve" smooth="yes"/>
      <point x="315" y="588" type="line" smooth="yes"/>
      <point x="326" y="581"/>
      <point x="339" y="585"/>
    </contour>
    <contour>
      <point x="10" y="601" type="curve" smooth="yes"/>
      <point x="19" y="585"/>
      <point x="31" y="581"/>
      <point x="43" y="588" type="curve" smooth="yes"/>
      <point x="343" y="761" type="line" smooth="yes"/>
      <point x="354" y="768"/>
      <point x="358" y="780"/>
      <point x="348" y="796" type="curve" smooth="yes"/>
      <point x="339" y="813"/>
      <point x="326" y="816"/>
      <point x="315" y="810" type="curve" smooth="yes"/>
      <point x="15" y="636" type="line" smooth="yes"/>
      <point x="4" y="630"/>
      <point x="0" y="618"/>
    </contour>
  </outline>
</glyph>
<glyph name="period" format="2">
  <advance width="313"/>
  <unicode hex="002E"/>
  <outline>
    <contour>
      <point x="156" y="-34" type="curve" smooth="yes"/>
      <point x="198" y="-34"/>
      <point x="219" y="-12"/>
      <point x="219" y="31" type="curve" smooth="yes"/>
      <point x="219" y="75"/>
      <point x="198" y="96"/>
      <point x="156" y="96" type="curve" smooth="yes"/>
      <point x="115" y="96"/>
      <point x="94" y="75"/>
      <point x="94" y="31" type="curve" smooth="yes"/>
      <point x="94" y="-12"/>
      <point x="115" y="-34"/>
    </contour>
  </outline>
</glyph>
<glyph name="slash" format="2">
	<unicode hex="002F"/>
	<advance width="420"/>
	<outline>
		<contour>
			<point x="38" y="-60" type="curve" smooth="yes"/>
			<point x="61" y="-66"/>
			<point x="74" y="-62"/>
			<point x="78" y="-47" type="curve" smooth="yes"/>
			<point x="410" y="1229" type="line" smooth="yes"/>
			<point x="414" y="1244"/>
			<point x="404" y="1254"/>
			<point x="382" y="1260" type="curve" smooth="yes"/>
			<point x="359" y="1266"/>
			<point x="346" y="1262"/>
			<point x="342" y="1247" type="curve" smooth="yes"/>
			<point x="10" y="-29" type="line" smooth="yes"/>
			<point x="6" y="-44"/>
			<point x="16" y="-54"/>
		</contour>
	</outline>
</glyph>
<glyph name="zero" format="2">
  <advance width="945"/>
  <unicode hex="0030"/>
  <outline>
    <contour>
      <point x="474" y="-15" type="curve" smooth="yes"/>
      <point x="713" y="-15"/>
      <point x="858" y="217"/>
      <point x="858" y="600" type="curve" smooth="yes"/>
      <point x="858" y="980"/>
      <point x="713" y="1212"/>
      <point x="474" y="1212" type="curve" smooth="yes"/>
      <point x="234" y="1212"/>
      <point x="87" y="980"/>
      <point x="87" y="600" type="curve" smooth="yes"/>
      <point x="87" y="217"/>
      <point x="234" y="-15"/>
    </contour>
    <contour>
      <point x="473" y="53" type="curve" smooth="yes"/>
      <point x="280" y="53"/>
      <point x="162" y="260"/>
      <point x="162" y="600" type="curve" smooth="yes"/>
      <point x="162" y="938"/>
      <point x="280" y="1144"/>
      <point x="473" y="1144" type="curve" smooth="yes"/>
      <point x="666" y="1144"/>
      <point x="783" y="938"/>
      <point x="783" y="600" type="curve" smooth="yes"/>
      <point x="783" y="260"/>
      <point x="666" y="53"/>
    </contour>
  </outline>
</glyph>
<glyph name="one" format="2">
	<unicode hex="0031"/>
	<advance width="557"/>
	<outline>
		<contour>
			<point x="300" y="-11" type="curve" smooth="yes"/>
			<point x="325" y="-11"/>
			<point x="335" y="-3"/>
			<point x="335" y="11" type="curve" smooth="yes"/>
			<point x="335" y="1190" type="line" smooth="yes"/>
			<point x="335" y="1201"/>
			<point x="328" y="1212"/>
			<point x="303" y="1212" type="curve" smooth="yes"/>
			<point x="279" y="1212"/>
			<point x="271" y="1208"/>
			<point x="258" y="1194" type="curve" smooth="yes"/>
			<point x="180" y="1108"/>
			<point x="111" y="1050"/>
			<point x="37" y="999" type="curve" smooth="yes"/>
			<point x="20" y="988"/>
			<point x="17" y="976"/>
			<point x="29" y="958" type="curve" smooth="yes"/>
			<point x="39" y="941"/>
			<point x="54" y="939"/>
			<point x="71" y="950" type="curve" smooth="yes"/>
			<point x="138" y="993"/>
			<point x="209" y="1054"/>
			<point x="265" y="1113" type="curve"/>
			<point x="265" y="11" type="line" smooth="yes"/>
			<point x="265" y="-3"/>
			<point x="275" y="-11"/>
		</contour>
	</outline>
</glyph>
<glyph name="two" format="2">
  <advance width="822"/>
  <unicode hex="0032"/>
  <outline>
    <contour>
      <point x="91" y="0" type="curve" smooth="yes"/>
      <point x="709" y="0" type="line" smooth="yes"/>
      <point x="727" y="0"/>
      <point x="731" y="12"/>
      <point x="731" y="34" type="curve" smooth="yes"/>
      <point x="731" y="57"/>
      <point x="724" y="64"/>
      <point x="709" y="64" type="curve" smooth="yes"/>
      <point x="177" y="64" type="line"/>
      <point x="332" y="230" type="line" smooth="yes"/>
      <point x="551" y="465"/>
      <point x="714" y="699"/>
      <point x="714" y="908" type="curve" smooth="yes"/>
      <point x="714" y="1116"/>
      <point x="576" y="1212"/>
      <point x="403" y="1212" type="curve" smooth="yes"/>
      <point x="275" y="1212"/>
      <point x="167" y="1152"/>
      <point x="95" y="1075" type="curve" smooth="yes"/>
      <point x="79" y="1058"/>
      <point x="80" y="1044"/>
      <point x="97" y="1028" type="curve" smooth="yes"/>
      <point x="113" y="1013"/>
      <point x="126" y="1015"/>
      <point x="144" y="1032" type="curve" smooth="yes"/>
      <point x="225" y="1108"/>
      <point x="303" y="1144"/>
      <point x="397" y="1144" type="curve" smooth="yes"/>
      <point x="545" y="1144"/>
      <point x="641" y="1075"/>
      <point x="641" y="908" type="curve" smooth="yes"/>
      <point x="641" y="720"/>
      <point x="497" y="506"/>
      <point x="289" y="284" type="curve" smooth="yes"/>
      <point x="73" y="53" type="line" smooth="yes"/>
      <point x="51" y="30"/>
      <point x="70" y="0"/>
    </contour>
  </outline>
</glyph>
<glyph name="three" format="2">
  <advance width="1126"/>
  <unicode hex="0033"/>
  <outline>
    <contour>
      <point x="534" y="-19" type="curve" smooth="yes"/>
      <point x="839" y="-19"/>
      <point x="996" y="135"/>
      <point x="996" y="409" type="curve" smooth="yes"/>
      <point x="996" y="605"/>
      <point x="899" y="758"/>
      <point x="674" y="803" type="curve"/>
      <point x="860" y="855"/>
      <point x="934" y="996"/>
      <point x="934" y="1154" type="curve" smooth="yes"/>
      <point x="934" y="1405"/>
      <point x="754" y="1515"/>
      <point x="526" y="1515" type="curve" smooth="yes"/>
      <point x="353" y="1515"/>
      <point x="206" y="1441"/>
      <point x="120" y="1358" type="curve" smooth="yes"/>
      <point x="106" y="1344"/>
      <point x="100" y="1326"/>
      <point x="123" y="1305" type="curve" smooth="yes"/>
      <point x="141" y="1286"/>
      <point x="155" y="1288"/>
      <point x="179" y="1305" type="curve" smooth="yes"/>
      <point x="283" y="1385"/>
      <point x="386" y="1430"/>
      <point x="526" y="1430" type="curve" smooth="yes"/>
      <point x="688" y="1430"/>
      <point x="843" y="1355"/>
      <point x="843" y="1154" type="curve" smooth="yes"/>
      <point x="843" y="985"/>
      <point x="741" y="840"/>
      <point x="516" y="840" type="curve" smooth="yes"/>
      <point x="405" y="840" type="line" smooth="yes"/>
      <point x="386" y="840"/>
      <point x="378" y="831"/>
      <point x="378" y="803" type="curve" smooth="yes"/>
      <point x="378" y="775"/>
      <point x="383" y="760"/>
      <point x="405" y="760" type="curve" smooth="yes"/>
      <point x="511" y="760" type="line" smooth="yes"/>
      <point x="748" y="760"/>
      <point x="904" y="626"/>
      <point x="904" y="409" type="curve" smooth="yes"/>
      <point x="904" y="179"/>
      <point x="769" y="61"/>
      <point x="534" y="61" type="curve" smooth="yes"/>
      <point x="380" y="61"/>
      <point x="249" y="119"/>
      <point x="135" y="256" type="curve" smooth="yes"/>
      <point x="118" y="278"/>
      <point x="100" y="275"/>
      <point x="80" y="258" type="curve" smooth="yes"/>
      <point x="56" y="236"/>
      <point x="64" y="219"/>
      <point x="76" y="204" type="curve" smooth="yes"/>
      <point x="200" y="53"/>
      <point x="358" y="-19"/>
    </contour>
  </outline>
</glyph>
<glyph name="four" format="2">
	<unicode hex="0034"/>
	<advance width="918"/>
	<outline>
		<contour>
			<point x="88" y="351" type="curve" smooth="yes"/>
			<point x="855" y="351" type="line" smooth="yes"/>
			<point x="873" y="351"/>
			<point x="877" y="363"/>
			<point x="877" y="385" type="curve" smooth="yes"/>
			<point x="877" y="408"/>
			<point x="870" y="415"/>
			<point x="855" y="415" type="curve" smooth="yes"/>
			<point x="148" y="415" type="line"/>
			<point x="506" y="1173" type="line" smooth="yes"/>
			<point x="515" y="1191"/>
			<point x="506" y="1204"/>
			<point x="481" y="1212" type="curve" smooth="yes"/>
			<point x="462" y="1218"/>
			<point x="449" y="1213"/>
			<point x="443" y="1198" type="curve" smooth="yes"/>
			<point x="63" y="394" type="line" smooth="yes"/>
			<point x="52" y="372"/>
			<point x="68" y="351"/>
		</contour>
		<contour>
			<point x="684" y="-11" type="curve" smooth="yes"/>
			<point x="707" y="-11"/>
			<point x="719" y="-4"/>
			<point x="719" y="11" type="curve" smooth="yes"/>
			<point x="719" y="848" type="line" smooth="yes"/>
			<point x="719" y="863"/>
			<point x="707" y="870"/>
			<point x="684" y="870" type="curve" smooth="yes"/>
			<point x="661" y="870"/>
			<point x="649" y="863"/>
			<point x="649" y="848" type="curve" smooth="yes"/>
			<point x="649" y="11" type="line" smooth="yes"/>
			<point x="649" y="-4"/>
			<point x="661" y="-11"/>
		</contour>
	</outline>
</glyph>
<glyph name="five" format="2">
	<unicode hex="0035"/>
	<advance width="901"/>
	<outline>
		<contour>
			<point x="454" y="-15" type="curve" smooth="yes"/>
			<point x="678" y="-15"/>
			<point x="811" y="149"/>
			<point x="811" y="379" type="curve" smooth="yes"/>
			<point x="811" y="601"/>
			<point x="680" y="745"/>
			<point x="458" y="745" type="curve" smooth="yes"/>
			<point x="361" y="745"/>
			<point x="274" y="712"/>
			<point x="219" y="672" type="curve"/>
			<point x="235" y="1126" type="line"/>
			<point x="743" y="1126" type="line" smooth="yes"/>
			<point x="759" y="1126"/>
			<point x="766" y="1137"/>
			<point x="766" y="1159" type="curve" smooth="yes"/>
			<point x="766" y="1183"/>
			<point x="757" y="1190"/>
			<point x="743" y="1190" type="curve" smooth="yes"/>
			<point x="202" y="1190" type="line" smooth="yes"/>
			<point x="185" y="1190"/>
			<point x="174" y="1184"/>
			<point x="173" y="1168" type="curve" smooth="yes"/>
			<point x="152" y="600" type="line" smooth="yes"/>
			<point x="151" y="580"/>
			<point x="180" y="562"/>
			<point x="211" y="593" type="curve" smooth="yes"/>
			<point x="268" y="649"/>
			<point x="355" y="681"/>
			<point x="458" y="681" type="curve" smooth="yes"/>
			<point x="634" y="681"/>
			<point x="738" y="557"/>
			<point x="738" y="379" type="curve" smooth="yes"/>
			<point x="738" y="192"/>
			<point x="643" y="49"/>
			<point x="454" y="49" type="curve" smooth="yes"/>
			<point x="349" y="49"/>
			<point x="244" y="95"/>
			<point x="153" y="205" type="curve" smooth="yes"/>
			<point x="139" y="222"/>
			<point x="125" y="220"/>
			<point x="109" y="206" type="curve" smooth="yes"/>
			<point x="90" y="189"/>
			<point x="96" y="175"/>
			<point x="106" y="163" type="curve" smooth="yes"/>
			<point x="205" y="42"/>
			<point x="331" y="-15"/>
		</contour>
	</outline>
</glyph>
<glyph name="six" format="2">
  <advance width="1210"/>
  <unicode hex="0036"/>
  <outline>
    <contour>
      <point x="638" y="-19" type="curve" smooth="yes"/>
      <point x="921" y="-19"/>
      <point x="1094" y="159"/>
      <point x="1094" y="479" type="curve" smooth="yes"/>
      <point x="1094" y="733"/>
      <point x="924" y="906"/>
      <point x="648" y="906" type="curve" smooth="yes"/>
      <point x="444" y="906"/>
      <point x="259" y="785"/>
      <point x="201" y="618" type="curve"/>
      <point x="226" y="546" type="line"/>
      <point x="279" y="700"/>
      <point x="450" y="826"/>
      <point x="646" y="826" type="curve" smooth="yes"/>
      <point x="864" y="826"/>
      <point x="1003" y="683"/>
      <point x="1003" y="479" type="curve" smooth="yes"/>
      <point x="1003" y="213"/>
      <point x="865" y="61"/>
      <point x="638" y="61" type="curve" smooth="yes"/>
      <point x="421" y="61"/>
      <point x="250" y="231"/>
      <point x="250" y="613" type="curve" smooth="yes"/>
      <point x="250" y="1104"/>
      <point x="405" y="1403"/>
      <point x="905" y="1439" type="curve" smooth="yes"/>
      <point x="930" y="1441"/>
      <point x="936" y="1453"/>
      <point x="934" y="1484" type="curve" smooth="yes"/>
      <point x="931" y="1511"/>
      <point x="923" y="1519"/>
      <point x="871" y="1515" type="curve" smooth="yes"/>
      <point x="356" y="1481"/>
      <point x="159" y="1156"/>
      <point x="159" y="613" type="curve" smooth="yes"/>
      <point x="159" y="216"/>
      <point x="329" y="-19"/>
    </contour>
  </outline>
</glyph>
<glyph name="seven" format="2">
  <advance width="731"/>
  <unicode hex="0037"/>
  <guideline x="16"/>
  <guideline x="414"/>
  <outline>
    <contour>
      <point x="160" y="-10" type="curve" smooth="yes"/>
      <point x="190" y="-21"/>
      <point x="197" y="-10"/>
      <point x="209" y="18" type="curve" smooth="yes"/>
      <point x="710" y="1149" type="line" smooth="yes"/>
      <point x="718" y="1167"/>
      <point x="706" y="1190"/>
      <point x="685" y="1190" type="curve" smooth="yes"/>
      <point x="48" y="1190" type="line" smooth="yes"/>
      <point x="30" y="1190"/>
      <point x="26" y="1178"/>
      <point x="26" y="1156" type="curve" smooth="yes"/>
      <point x="26" y="1133"/>
      <point x="33" y="1126"/>
      <point x="48" y="1126" type="curve" smooth="yes"/>
      <point x="627" y="1126" type="line"/>
      <point x="140" y="29" type="line" smooth="yes"/>
      <point x="131" y="8"/>
      <point x="135" y="-1"/>
    </contour>
  </outline>
</glyph>
<glyph name="eight" format="2">
  <advance width="1126"/>
  <unicode hex="0038"/>
  <outline>
    <contour>
      <point x="564" y="-19" type="curve" smooth="yes"/>
      <point x="836" y="-19"/>
      <point x="1034" y="158"/>
      <point x="1034" y="401" type="curve" smooth="yes"/>
      <point x="1034" y="585"/>
      <point x="904" y="740"/>
      <point x="690" y="811" type="curve"/>
      <point x="865" y="883"/>
      <point x="971" y="1018"/>
      <point x="971" y="1170" type="curve" smooth="yes"/>
      <point x="971" y="1385"/>
      <point x="819" y="1515"/>
      <point x="569" y="1515" type="curve" smooth="yes"/>
      <point x="313" y="1515"/>
      <point x="156" y="1380"/>
      <point x="156" y="1159" type="curve" smooth="yes"/>
      <point x="156" y="1004"/>
      <point x="264" y="869"/>
      <point x="441" y="803" type="curve"/>
      <point x="225" y="733"/>
      <point x="93" y="574"/>
      <point x="93" y="383" type="curve" smooth="yes"/>
      <point x="93" y="150"/>
      <point x="290" y="-19"/>
    </contour>
    <contour>
      <point x="565" y="66" type="curve" smooth="yes"/>
      <point x="345" y="66"/>
      <point x="186" y="200"/>
      <point x="186" y="385" type="curve" smooth="yes"/>
      <point x="186" y="563"/>
      <point x="328" y="706"/>
      <point x="559" y="764" type="curve"/>
      <point x="796" y="710"/>
      <point x="940" y="571"/>
      <point x="940" y="398" type="curve" smooth="yes"/>
      <point x="940" y="205"/>
      <point x="783" y="66"/>
    </contour>
    <contour>
      <point x="578" y="845" type="curve"/>
      <point x="374" y="898"/>
      <point x="250" y="1016"/>
      <point x="250" y="1160" type="curve" smooth="yes"/>
      <point x="250" y="1328"/>
      <point x="369" y="1430"/>
      <point x="565" y="1430" type="curve" smooth="yes"/>
      <point x="759" y="1430"/>
      <point x="878" y="1333"/>
      <point x="878" y="1171" type="curve" smooth="yes"/>
      <point x="878" y="1019"/>
      <point x="764" y="895"/>
    </contour>
  </outline>
</glyph>
<glyph name="less" format="2">
	<unicode hex="003C"/>
	<advance width="610"/>
	<outline>
		<contour>
			<point x="495" y="160" type="line" smooth="yes"/>
			<point x="518" y="150"/>
			<point x="527" y="154"/>
			<point x="536" y="177" type="curve" smooth="yes"/>
			<point x="545" y="200"/>
			<point x="540" y="211"/>
			<point x="524" y="218" type="curve" smooth="yes"/>
			<point x="185" y="359" type="line"/>
			<point x="524" y="500" type="line" smooth="yes"/>
			<point x="541" y="507"/>
			<point x="546" y="518"/>
			<point x="536" y="541" type="curve" smooth="yes"/>
			<point x="527" y="563"/>
			<point x="519" y="568"/>
			<point x="495" y="558" type="curve" smooth="yes"/>
			<point x="105" y="394" type="line" smooth="yes"/>
			<point x="87" y="386"/>
			<point x="80" y="377"/>
			<point x="80" y="359" type="curve" smooth="yes"/>
			<point x="80" y="341"/>
			<point x="87" y="332"/>
			<point x="105" y="324" type="curve" smooth="yes"/>
		</contour>
	</outline>
</glyph>
<glyph name="question" format="2">
  <advance width="846"/>
  <unicode hex="003F"/>
  <guideline x="361"/>
  <guideline x="15"/>
  <outline>
    <contour>
      <point x="330" y="216" type="curve" smooth="yes"/>
      <point x="359" y="216"/>
      <point x="374" y="225"/>
      <point x="374" y="244" type="curve" smooth="yes"/>
      <point x="374" y="603" type="line"/>
      <point x="633" y="621"/>
      <point x="818" y="816"/>
      <point x="818" y="1089" type="curve" smooth="yes"/>
      <point x="818" y="1354"/>
      <point x="665" y="1515"/>
      <point x="415" y="1515" type="curve" smooth="yes"/>
      <point x="276" y="1515"/>
      <point x="123" y="1456"/>
      <point x="11" y="1356" type="curve" smooth="yes"/>
      <point x="-2" y="1344"/>
      <point x="-2" y="1329"/>
      <point x="16" y="1308" type="curve" smooth="yes"/>
      <point x="29" y="1293"/>
      <point x="46" y="1290"/>
      <point x="58" y="1299" type="curve" smooth="yes"/>
      <point x="164" y="1384"/>
      <point x="300" y="1435"/>
      <point x="415" y="1435" type="curve" smooth="yes"/>
      <point x="609" y="1435"/>
      <point x="726" y="1304"/>
      <point x="726" y="1089" type="curve" smooth="yes"/>
      <point x="726" y="839"/>
      <point x="555" y="680"/>
      <point x="320" y="680" type="curve" smooth="yes"/>
      <point x="298" y="680"/>
      <point x="286" y="669"/>
      <point x="286" y="653" type="curve" smooth="yes"/>
      <point x="286" y="244" type="line" smooth="yes"/>
      <point x="286" y="225"/>
      <point x="301" y="216"/>
    </contour>
    <contour>
      <point x="330" y="-14" type="curve" smooth="yes"/>
      <point x="366" y="-14"/>
      <point x="385" y="6"/>
      <point x="385" y="49" type="curve" smooth="yes"/>
      <point x="385" y="91"/>
      <point x="366" y="113"/>
      <point x="330" y="113" type="curve" smooth="yes"/>
      <point x="293" y="113"/>
      <point x="274" y="91"/>
      <point x="274" y="49" type="curve" smooth="yes"/>
      <point x="274" y="6"/>
      <point x="293" y="-14"/>
    </contour>
  </outline>
</glyph>
<glyph name="A" format="2">
	<unicode hex="0041"/>
	<advance width="929"/>
	<outline>
		<contour>
			<point x="68" y="-11" type="curve" smooth="yes"/>
			<point x="91" y="-11"/>
			<point x="99" y="-3"/>
			<point x="106" y="18" type="curve" smooth="yes"/>
			<point x="218" y="358" type="line"/>
			<point x="711" y="358" type="line"/>
			<point x="821" y="18" type="line" smooth="yes"/>
			<point x="828" y="-3"/>
			<point x="836" y="-11"/>
			<point x="860" y="-11" type="curve" smooth="yes"/>
			<point x="888" y="-11"/>
			<point x="899" y="3"/>
			<point x="892" y="25" type="curve" smooth="yes"/>
			<point x="509" y="1180" type="line" smooth="yes"/>
			<point x="501" y="1205"/>
			<point x="489" y="1212"/>
			<point x="465" y="1212" type="curve" smooth="yes"/>
			<point x="440" y="1212"/>
			<point x="428" y="1205"/>
			<point x="420" y="1180" type="curve" smooth="yes"/>
			<point x="37" y="25" type="line" smooth="yes"/>
			<point x="30" y="3"/>
			<point x="40" y="-11"/>
		</contour>
		<contour>
			<point x="239" y="422" type="line"/>
			<point x="465" y="1105" type="line"/>
			<point x="689" y="422" type="line"/>
		</contour>
	</outline>
	<anchor name="bottom" x="465" y="0"/>
	<anchor name="ogonek" x="890" y="-3"/>
	<anchor name="top" x="465" y="1139"/>
	<guideline x="46" y="-31" angle="0"/>
</glyph>
<glyph name="B" format="2">
	<unicode hex="0042"/>
	<advance width="900"/>
	<outline>
		<contour>
			<point x="208" y="0" type="curve" smooth="yes"/>
			<point x="429" y="0" type="line" smooth="yes"/>
			<point x="676" y="0"/>
			<point x="837" y="150"/>
			<point x="837" y="369" type="curve" smooth="yes"/>
			<point x="837" y="557"/>
			<point x="694" y="628"/>
			<point x="539" y="631" type="curve"/>
			<point x="539" y="636" type="line"/>
			<point x="641" y="657"/>
			<point x="790" y="753"/>
			<point x="790" y="938" type="curve" smooth="yes"/>
			<point x="790" y="1121"/>
			<point x="673" y="1190"/>
			<point x="466" y="1190" type="curve" smooth="yes"/>
			<point x="209" y="1190" type="line" smooth="yes"/>
			<point x="185" y="1190"/>
			<point x="173" y="1183"/>
			<point x="173" y="1168" type="curve" smooth="yes"/>
			<point x="173" y="22" type="line" smooth="yes"/>
			<point x="173" y="7"/>
			<point x="185" y="0"/>
		</contour>
		<contour>
			<point x="243" y="64" type="line"/>
			<point x="243" y="597" type="line"/>
			<point x="454" y="597" type="line" smooth="yes"/>
			<point x="638" y="597"/>
			<point x="765" y="536"/>
			<point x="765" y="367" type="curve" smooth="yes"/>
			<point x="765" y="196"/>
			<point x="641" y="64"/>
			<point x="429" y="64" type="curve" smooth="yes"/>
		</contour>
		<contour>
			<point x="243" y="661" type="line"/>
			<point x="243" y="1126" type="line"/>
			<point x="466" y="1126" type="line" smooth="yes"/>
			<point x="623" y="1126"/>
			<point x="718" y="1075"/>
			<point x="718" y="937" type="curve" smooth="yes"/>
			<point x="718" y="767"/>
			<point x="587" y="661"/>
			<point x="432" y="661" type="curve" smooth="yes"/>
		</contour>
	</outline>
	<anchor name="bottom" x="449" y="0"/>
	<anchor name="center" x="210" y="350"/>
	<anchor name="top" x="449" y="1139"/>
	<guideline x="429" y="672" angle="0"/>
	<guideline x="323" y="420" angle="270"/>
</glyph>
<glyph name="C" format="2">
  <advance width="1201"/>
  <unicode hex="0043"/>
  <anchor x="683" y="0" name="bottom"/>
  <anchor x="708" y="1424" name="top"/>
  <outline>
    <contour>
      <point x="704" y="-19" type="curve" smooth="yes"/>
      <point x="864" y="-19"/>
      <point x="1006" y="69"/>
      <point x="1135" y="239" type="curve" smooth="yes"/>
      <point x="1146" y="254"/>
      <point x="1141" y="264"/>
      <point x="1124" y="279" type="curve" smooth="yes"/>
      <point x="1105" y="294"/>
      <point x="1090" y="298"/>
      <point x="1079" y="285" type="curve" smooth="yes"/>
      <point x="974" y="169"/>
      <point x="858" y="66"/>
      <point x="704" y="66" type="curve" smooth="yes"/>
      <point x="423" y="66"/>
      <point x="231" y="328"/>
      <point x="231" y="749" type="curve" smooth="yes"/>
      <point x="231" y="1171"/>
      <point x="439" y="1430"/>
      <point x="721" y="1430" type="curve" smooth="yes"/>
      <point x="841" y="1430"/>
      <point x="951" y="1375"/>
      <point x="1048" y="1279" type="curve" smooth="yes"/>
      <point x="1060" y="1266"/>
      <point x="1073" y="1269"/>
      <point x="1091" y="1285" type="curve" smooth="yes"/>
      <point x="1108" y="1299"/>
      <point x="1114" y="1310"/>
      <point x="1103" y="1326" type="curve" smooth="yes"/>
      <point x="1011" y="1451"/>
      <point x="858" y="1515"/>
      <point x="721" y="1515" type="curve" smooth="yes"/>
      <point x="375" y="1515"/>
      <point x="138" y="1211"/>
      <point x="138" y="749" type="curve" smooth="yes"/>
      <point x="138" y="285"/>
      <point x="359" y="-19"/>
    </contour>
  </outline>
</glyph>
<glyph name="D" format="2">
	<unicode hex="0044"/>
	<advance width="1077"/>
	<outline>
		<contour>
			<point x="208" y="0" type="curve" smooth="yes"/>
			<point x="365" y="0" type="line" smooth="yes"/>
			<point x="743" y="0"/>
			<point x="967" y="244"/>
			<point x="967" y="656" type="curve" smooth="yes"/>
			<point x="967" y="992"/>
			<point x="769" y="1190"/>
			<point x="434" y="1190" type="curve" smooth="yes"/>
			<point x="208" y="1190" type="line" smooth="yes"/>
			<point x="185" y="1190"/>
			<point x="173" y="1183"/>
			<point x="173" y="1168" type="curve" smooth="yes"/>
			<point x="173" y="22" type="line" smooth="yes"/>
			<point x="173" y="7"/>
			<point x="185" y="0"/>
		</contour>
		<contour>
			<point x="243" y="68" type="line"/>
			<point x="243" y="1122" type="line"/>
			<point x="434" y="1122" type="line" smooth="yes"/>
			<point x="720" y="1122"/>
			<point x="889" y="949"/>
			<point x="889" y="656" type="curve" smooth="yes"/>
			<point x="889" y="286"/>
			<point x="694" y="68"/>
			<point x="364" y="68" type="curve" smooth="yes"/>
		</contour>
	</outline>
	<anchor name="bottom" x="491" y="0"/>
	<anchor name="center" x="238" y="598"/>
	<anchor name="top" x="505" y="1139"/>
</glyph>
<glyph name="E" format="2">
  <advance width="821"/>
  <unicode hex="0045"/>
  <anchor x="455" y="0" name="bottom"/>
  <anchor x="746" y="0" name="ogonek"/>
  <anchor x="479" y="1139" name="top"/>
  <outline>
    <contour>
      <point x="208" y="0" type="curve" smooth="yes"/>
      <point x="744" y="0" type="line" smooth="yes"/>
      <point x="760" y="0"/>
      <point x="766" y="8"/>
      <point x="766" y="32" type="curve" smooth="yes"/>
      <point x="766" y="56"/>
      <point x="760" y="64"/>
      <point x="744" y="64" type="curve" smooth="yes"/>
      <point x="243" y="64" type="line"/>
      <point x="243" y="597" type="line"/>
      <point x="666" y="597" type="line" smooth="yes"/>
      <point x="682" y="597"/>
      <point x="688" y="605"/>
      <point x="688" y="629" type="curve" smooth="yes"/>
      <point x="688" y="653"/>
      <point x="682" y="661"/>
      <point x="666" y="661" type="curve" smooth="yes"/>
      <point x="243" y="661" type="line"/>
      <point x="243" y="1126" type="line"/>
      <point x="744" y="1126" type="line" smooth="yes"/>
      <point x="760" y="1126"/>
      <point x="766" y="1134"/>
      <point x="766" y="1158" type="curve" smooth="yes"/>
      <point x="766" y="1182"/>
      <point x="760" y="1190"/>
      <point x="744" y="1190" type="curve" smooth="yes"/>
      <point x="208" y="1190" type="line" smooth="yes"/>
      <point x="185" y="1190"/>
      <point x="173" y="1183"/>
      <point x="173" y="1168" type="curve" smooth="yes"/>
      <point x="173" y="32" type="line" smooth="yes"/>
      <point x="173" y="10"/>
      <point x="185" y="0"/>
    </contour>
  </outline>
</glyph>
<glyph name="G" format="2">
	<unicode hex="0047"/>
	<advance width="1085"/>
	<outline>
		<contour>
			<point x="550" y="-15" type="curve" smooth="yes"/>
			<point x="787" y="-15"/>
			<point x="959" y="163"/>
			<point x="959" y="597" type="curve" smooth="yes"/>
			<point x="959" y="620"/>
			<point x="953" y="628"/>
			<point x="937" y="628" type="curve" smooth="yes"/>
			<point x="583" y="628" type="line" smooth="yes"/>
			<point x="567" y="628"/>
			<point x="561" y="620"/>
			<point x="561" y="596" type="curve" smooth="yes"/>
			<point x="561" y="572"/>
			<point x="567" y="564"/>
			<point x="583" y="564" type="curve" smooth="yes"/>
			<point x="885" y="564" type="line"/>
			<point x="885" y="201"/>
			<point x="734" y="53"/>
			<point x="550" y="53" type="curve" smooth="yes"/>
			<point x="338" y="53"/>
			<point x="185" y="262"/>
			<point x="185" y="599" type="curve" smooth="yes"/>
			<point x="185" y="937"/>
			<point x="351" y="1144"/>
			<point x="577" y="1144" type="curve" smooth="yes"/>
			<point x="686" y="1144"/>
			<point x="753" y="1105"/>
			<point x="829" y="1023" type="curve" smooth="yes"/>
			<point x="839" y="1013"/>
			<point x="849" y="1015"/>
			<point x="864" y="1028" type="curve" smooth="yes"/>
			<point x="877" y="1039"/>
			<point x="882" y="1048"/>
			<point x="873" y="1061" type="curve" smooth="yes"/>
			<point x="794" y="1171"/>
			<point x="691" y="1212"/>
			<point x="577" y="1212" type="curve" smooth="yes"/>
			<point x="300" y="1212"/>
			<point x="110" y="969"/>
			<point x="110" y="599" type="curve" smooth="yes"/>
			<point x="110" y="228"/>
			<point x="287" y="-15"/>
		</contour>
	</outline>
	<anchor name="bottom" x="543" y="0"/>
	<anchor name="top" x="558" y="1139"/>
</glyph>
<glyph name="J" format="2">
  <advance width="805"/>
  <unicode hex="004A"/>
  <anchor x="372" y="0" name="bottom"/>
  <anchor x="620" y="1139" name="top"/>
  <outline>
    <contour>
      <point x="358" y="-15" type="curve" smooth="yes"/>
      <point x="540" y="-15"/>
      <point x="655" y="114"/>
      <point x="655" y="361" type="curve" smooth="yes"/>
      <point x="655" y="1190" type="line" smooth="yes"/>
      <point x="655" y="1205"/>
      <point x="643" y="1212"/>
      <point x="620" y="1212" type="curve" smooth="yes"/>
      <point x="597" y="1212"/>
      <point x="585" y="1205"/>
      <point x="585" y="1190" type="curve" smooth="yes"/>
      <point x="585" y="359" type="line" smooth="yes"/>
      <point x="585" y="159"/>
      <point x="506" y="53"/>
      <point x="358" y="53" type="curve" smooth="yes"/>
      <point x="242" y="53"/>
      <point x="178" y="104"/>
      <point x="125" y="239" type="curve" smooth="yes"/>
      <point x="117" y="261"/>
      <point x="108" y="267"/>
      <point x="88" y="260" type="curve" smooth="yes"/>
      <point x="68" y="254"/>
      <point x="61" y="242"/>
      <point x="67" y="222" type="curve" smooth="yes"/>
      <point x="111" y="65"/>
      <point x="207" y="-15"/>
    </contour>
  </outline>
</glyph>
<glyph name="K" format="2">
	<unicode hex="004B"/>
	<advance width="852"/>
	<outline>
		<contour>
			<point x="209" y="-11" type="curve" smooth="yes"/>
			<point x="234" y="-11"/>
			<point x="243" y="-3"/>
			<point x="243" y="15" type="curve" smooth="yes"/>
			<point x="243" y="594" type="line"/>
			<point x="388" y="390"/>
			<point x="582" y="144"/>
			<point x="764" y="-4" type="curve" smooth="yes"/>
			<point x="780" y="-17"/>
			<point x="795" y="-17"/>
			<point x="809" y="-3" type="curve" smooth="yes"/>
			<point x="829" y="17"/>
			<point x="823" y="33"/>
			<point x="811" y="43" type="curve" smooth="yes"/>
			<point x="641" y="185"/>
			<point x="482" y="374"/>
			<point x="295" y="628" type="curve"/>
			<point x="808" y="1161" type="line" smooth="yes"/>
			<point x="818" y="1171"/>
			<point x="818" y="1181"/>
			<point x="803" y="1198" type="curve" smooth="yes"/>
			<point x="789" y="1213"/>
			<point x="778" y="1218"/>
			<point x="765" y="1205" type="curve" smooth="yes"/>
			<point x="243" y="665" type="line"/>
			<point x="243" y="1190" type="line" smooth="yes"/>
			<point x="243" y="1205"/>
			<point x="231" y="1212"/>
			<point x="208" y="1212" type="curve" smooth="yes"/>
			<point x="185" y="1212"/>
			<point x="173" y="1205"/>
			<point x="173" y="1190" type="curve" smooth="yes"/>
			<point x="173" y="15" type="line" smooth="yes"/>
			<point x="173" y="-3"/>
			<point x="184" y="-11"/>
		</contour>
	</outline>
	<anchor name="bottom" x="472" y="0"/>
	<anchor name="top" x="472" y="1139"/>
</glyph>
<glyph name="L" format="2">
	<unicode hex="004C"/>
	<advance width="775"/>
	<outline>
		<contour>
			<point x="208" y="0" type="curve" smooth="yes"/>
			<point x="722" y="0" type="line" smooth="yes"/>
			<point x="738" y="0"/>
			<point x="744" y="8"/>
			<point x="744" y="32" type="curve" smooth="yes"/>
			<point x="744" y="56"/>
			<point x="738" y="64"/>
			<point x="722" y="64" type="curve" smooth="yes"/>
			<point x="243" y="64" type="line"/>
			<point x="243" y="1190" type="line" smooth="yes"/>
			<point x="243" y="1205"/>
			<point x="231" y="1212"/>
			<point x="208" y="1212" type="curve" smooth="yes"/>
			<point x="185" y="1212"/>
			<point x="173" y="1205"/>
			<point x="173" y="1190" type="curve" smooth="yes"/>
			<point x="173" y="32" type="line" smooth="yes"/>
			<point x="173" y="10"/>
			<point x="185" y="0"/>
		</contour>
	</outline>
	<anchor name="bottom" x="465" y="0"/>
	<anchor name="center" x="209" y="612"/>
	<anchor name="centerCase" x="232" y="612"/>
	<anchor name="top" x="209" y="1139"/>
	<anchor name="topright" x="263" y="1190"/>
</glyph>
<glyph name="M" format="2">
  <advance width="1300"/>
  <unicode hex="004D"/>
  <anchor x="651" y="0" name="bottom"/>
  <anchor x="651" y="1139" name="top"/>
  <outline>
    <contour>
      <point x="208" y="-11" type="curve" smooth="yes"/>
      <point x="231" y="-11"/>
      <point x="243" y="-4"/>
      <point x="243" y="11" type="curve" smooth="yes"/>
      <point x="243" y="1048" type="line"/>
      <point x="613" y="354" type="line" smooth="yes"/>
      <point x="621" y="338"/>
      <point x="631" y="336"/>
      <point x="652" y="336" type="curve" smooth="yes"/>
      <point x="672" y="336"/>
      <point x="681" y="340"/>
      <point x="688" y="354" type="curve" smooth="yes"/>
      <point x="1057" y="1047" type="line"/>
      <point x="1057" y="11" type="line" smooth="yes"/>
      <point x="1057" y="-4"/>
      <point x="1069" y="-11"/>
      <point x="1092" y="-11" type="curve" smooth="yes"/>
      <point x="1115" y="-11"/>
      <point x="1127" y="-4"/>
      <point x="1127" y="11" type="curve" smooth="yes"/>
      <point x="1127" y="1190" type="line" smooth="yes"/>
      <point x="1127" y="1205"/>
      <point x="1115" y="1212"/>
      <point x="1092" y="1212" type="curve" smooth="yes"/>
      <point x="1071" y="1212"/>
      <point x="1064" y="1203"/>
      <point x="1057" y="1190" type="curve" smooth="yes"/>
      <point x="651" y="425" type="line"/>
      <point x="243" y="1190" type="line" smooth="yes"/>
      <point x="236" y="1203"/>
      <point x="229" y="1212"/>
      <point x="208" y="1212" type="curve" smooth="yes"/>
      <point x="185" y="1212"/>
      <point x="173" y="1205"/>
      <point x="173" y="1190" type="curve" smooth="yes"/>
      <point x="173" y="11" type="line" smooth="yes"/>
      <point x="173" y="-4"/>
      <point x="185" y="-11"/>
    </contour>
  </outline>
</glyph>
<glyph name="O" format="2">
	<unicode hex="004F"/>
	<advance width="1147"/>
	<outline>
		<contour>
			<point x="575" y="-15" type="curve" smooth="yes"/>
			<point x="854" y="-15"/>
			<point x="1037" y="228"/>
			<point x="1037" y="599" type="curve" smooth="yes"/>
			<point x="1037" y="969"/>
			<point x="854" y="1212"/>
			<point x="575" y="1212" type="curve" smooth="yes"/>
			<point x="294" y="1212"/>
			<point x="110" y="969"/>
			<point x="110" y="599" type="curve" smooth="yes"/>
			<point x="110" y="228"/>
			<point x="294" y="-15"/>
		</contour>
		<contour>
			<point x="575" y="53" type="curve" smooth="yes"/>
			<point x="339" y="53"/>
			<point x="185" y="269"/>
			<point x="185" y="599" type="curve" smooth="yes"/>
			<point x="185" y="928"/>
			<point x="339" y="1144"/>
			<point x="575" y="1144" type="curve" smooth="yes"/>
			<point x="809" y="1144"/>
			<point x="962" y="928"/>
			<point x="962" y="599" type="curve" smooth="yes"/>
			<point x="962" y="269"/>
			<point x="809" y="53"/>
		</contour>
	</outline>
	<anchor name="bottom" x="574" y="0"/>
	<anchor name="center" x="574" y="595"/>
	<anchor name="ogonek" x="733" y="9"/>
	<anchor name="top" x="574" y="1139"/>
	<anchor name="topright" x="809" y="1138"/>
</glyph>
<glyph name="Q" format="2">
	<unicode hex="0051"/>
	<advance width="1147"/>
	<outline>
		<contour>
			<point x="867" y="-221" type="curve" smooth="yes"/>
			<point x="886" y="-209"/>
			<point x="886" y="-193"/>
			<point x="877" y="-179" type="curve" smooth="yes"/>
			<point x="620" y="218" type="line" smooth="yes"/>
			<point x="609" y="235"/>
			<point x="594" y="238"/>
			<point x="574" y="224" type="curve" smooth="yes"/>
			<point x="554" y="210"/>
			<point x="556" y="195"/>
			<point x="566" y="180" type="curve" smooth="yes"/>
			<point x="825" y="-218" type="line" smooth="yes"/>
			<point x="834" y="-232"/>
			<point x="851" y="-231"/>
		</contour>
		<component base="O"/>
	</outline>
	<anchor name="bottom" x="574" y="0"/>
	<anchor name="center" x="574" y="595"/>
	<anchor name="ogonek" x="733" y="9"/>
	<anchor name="top" x="574" y="1139"/>
	<anchor name="topright" x="809" y="1138"/>
</glyph>
<glyph name="R" format="2">
  <advance width="1075"/>
  <unicode hex="0052"/>
  <guideline x="283" y="742" angle="270"/>
  <guideline x="306" y="-13" angle="0"/>
  <anchor x="596" y="0" name="bottom"/>
  <anchor x="539" y="1424" name="top"/>
  <outline>
    <contour>
      <point x="261" y="-14" type="curve" smooth="yes"/>
      <point x="289" y="-14"/>
      <point x="304" y="-5"/>
      <point x="304" y="14" type="curve" smooth="yes"/>
      <point x="304" y="679" type="line"/>
      <point x="498" y="436"/>
      <point x="705" y="185"/>
      <point x="938" y="-4" type="curve" smooth="yes"/>
      <point x="958" y="-20"/>
      <point x="976" y="-19"/>
      <point x="994" y="-2" type="curve" smooth="yes"/>
      <point x="1020" y="21"/>
      <point x="1011" y="44"/>
      <point x="996" y="55" type="curve" smooth="yes"/>
      <point x="776" y="229"/>
      <point x="585" y="460"/>
      <point x="408" y="690" type="curve"/>
      <point x="719" y="716"/>
      <point x="970" y="840"/>
      <point x="970" y="1145" type="curve" smooth="yes"/>
      <point x="970" y="1389"/>
      <point x="823" y="1488"/>
      <point x="518" y="1488" type="curve" smooth="yes"/>
      <point x="261" y="1488" type="line" smooth="yes"/>
      <point x="231" y="1488"/>
      <point x="216" y="1479"/>
      <point x="216" y="1460" type="curve" smooth="yes"/>
      <point x="216" y="14" type="line" smooth="yes"/>
      <point x="216" y="-5"/>
      <point x="231" y="-14"/>
    </contour>
    <contour>
      <point x="304" y="759" type="curve"/>
      <point x="304" y="1408" type="line"/>
      <point x="525" y="1408" type="line" smooth="yes"/>
      <point x="763" y="1408"/>
      <point x="880" y="1329"/>
      <point x="880" y="1145" type="curve" smooth="yes"/>
      <point x="880" y="853"/>
      <point x="593" y="766"/>
    </contour>
  </outline>
</glyph>
<glyph name="S" format="2">
  <advance width="853"/>
  <unicode hex="0053"/>
  <anchor x="423" y="0" name="bottom"/>
  <anchor x="445" y="1139" name="top"/>
  <outline>
    <contour>
      <point x="411" y="-15" type="curve" smooth="yes"/>
      <point x="622" y="-15"/>
      <point x="759" y="117"/>
      <point x="759" y="316" type="curve" smooth="yes"/>
      <point x="759" y="519"/>
      <point x="604" y="590"/>
      <point x="465" y="644" type="curve" smooth="yes"/>
      <point x="335" y="695"/>
      <point x="211" y="744"/>
      <point x="211" y="918" type="curve" smooth="yes"/>
      <point x="211" y="1058"/>
      <point x="300" y="1144"/>
      <point x="441" y="1144" type="curve" smooth="yes"/>
      <point x="535" y="1144"/>
      <point x="613" y="1101"/>
      <point x="697" y="1029" type="curve" smooth="yes"/>
      <point x="709" y="1019"/>
      <point x="721" y="1027"/>
      <point x="734" y="1041" type="curve" smooth="yes"/>
      <point x="745" y="1053"/>
      <point x="748" y="1064"/>
      <point x="737" y="1074" type="curve" smooth="yes"/>
      <point x="656" y="1148"/>
      <point x="573" y="1212"/>
      <point x="441" y="1212" type="curve" smooth="yes"/>
      <point x="272" y="1212"/>
      <point x="137" y="1103"/>
      <point x="137" y="918" type="curve" smooth="yes"/>
      <point x="137" y="700"/>
      <point x="292" y="634"/>
      <point x="438" y="575" type="curve" smooth="yes"/>
      <point x="577" y="522"/>
      <point x="685" y="466"/>
      <point x="685" y="316" type="curve" smooth="yes"/>
      <point x="685" y="154"/>
      <point x="580" y="53"/>
      <point x="411" y="53" type="curve" smooth="yes"/>
      <point x="295" y="53"/>
      <point x="217" y="97"/>
      <point x="148" y="167" type="curve" smooth="yes"/>
      <point x="128" y="185"/>
      <point x="121" y="182"/>
      <point x="106" y="166" type="curve" smooth="yes"/>
      <point x="91" y="151"/>
      <point x="92" y="143"/>
      <point x="100" y="132" type="curve" smooth="yes"/>
      <point x="179" y="26"/>
      <point x="302" y="-15"/>
    </contour>
  </outline>
</glyph>
<glyph name="T" format="2">
	<unicode hex="0054"/>
	<advance width="856"/>
	<outline>
		<contour>
			<point x="428" y="-12" type="curve" smooth="yes"/>
			<point x="451" y="-12"/>
			<point x="463" y="-5"/>
			<point x="463" y="10" type="curve" smooth="yes"/>
			<point x="463" y="1126" type="line"/>
			<point x="806" y="1126" type="line" smooth="yes"/>
			<point x="822" y="1126"/>
			<point x="828" y="1134"/>
			<point x="828" y="1158" type="curve" smooth="yes"/>
			<point x="828" y="1182"/>
			<point x="822" y="1190"/>
			<point x="806" y="1190" type="curve" smooth="yes"/>
			<point x="50" y="1190" type="line" smooth="yes"/>
			<point x="34" y="1190"/>
			<point x="28" y="1182"/>
			<point x="28" y="1158" type="curve" smooth="yes"/>
			<point x="28" y="1134"/>
			<point x="34" y="1126"/>
			<point x="50" y="1126" type="curve" smooth="yes"/>
			<point x="393" y="1126" type="line"/>
			<point x="393" y="10" type="line" smooth="yes"/>
			<point x="393" y="-5"/>
			<point x="405" y="-12"/>
		</contour>
	</outline>
	<anchor name="bottom" x="428" y="0"/>
	<anchor name="center" x="428" y="595"/>
	<anchor name="top" x="428" y="1139"/>
</glyph>
<glyph name="U" format="2">
	<unicode hex="0055"/>
	<advance width="1069"/>
	<outline>
		<contour>
			<point x="537" y="-15" type="curve" smooth="yes"/>
			<point x="777" y="-15"/>
			<point x="905" y="119"/>
			<point x="905" y="371" type="curve" smooth="yes"/>
			<point x="905" y="1190" type="line" smooth="yes"/>
			<point x="905" y="1205"/>
			<point x="893" y="1212"/>
			<point x="870" y="1212" type="curve" smooth="yes"/>
			<point x="847" y="1212"/>
			<point x="835" y="1205"/>
			<point x="835" y="1190" type="curve" smooth="yes"/>
			<point x="835" y="371" type="line" smooth="yes"/>
			<point x="835" y="163"/>
			<point x="738" y="53"/>
			<point x="537" y="53" type="curve" smooth="yes"/>
			<point x="333" y="53"/>
			<point x="234" y="163"/>
			<point x="234" y="371" type="curve" smooth="yes"/>
			<point x="234" y="1190" type="line" smooth="yes"/>
			<point x="234" y="1205"/>
			<point x="222" y="1212"/>
			<point x="199" y="1212" type="curve" smooth="yes"/>
			<point x="176" y="1212"/>
			<point x="164" y="1205"/>
			<point x="164" y="1190" type="curve" smooth="yes"/>
			<point x="164" y="371" type="line" smooth="yes"/>
			<point x="164" y="119"/>
			<point x="293" y="-15"/>
		</contour>
	</outline>
	<anchor name="bottom" x="535" y="0"/>
	<anchor name="ogonek" x="728" y="17"/>
	<anchor name="top" x="535" y="1139"/>
	<anchor name="topright" x="877" y="1207"/>
</glyph>
<glyph name="X" format="2">
	<unicode hex="0058"/>
	<advance width="850"/>
	<outline>
		<contour>
			<point x="791" y="-1" type="curve" smooth="yes"/>
			<point x="810" y="11"/>
			<point x="813" y="24"/>
			<point x="806" y="36" type="curve" smooth="yes"/>
			<point x="469" y="606" type="line"/>
			<point x="801" y="1166" type="line" smooth="yes"/>
			<point x="808" y="1178"/>
			<point x="805" y="1191"/>
			<point x="786" y="1203" type="curve" smooth="yes"/>
			<point x="768" y="1214"/>
			<point x="754" y="1215"/>
			<point x="745" y="1200" type="curve" smooth="yes"/>
			<point x="431" y="670" type="line"/>
			<point x="118" y="1200" type="line" smooth="yes"/>
			<point x="108" y="1217"/>
			<point x="94" y="1216"/>
			<point x="73" y="1203" type="curve" smooth="yes"/>
			<point x="54" y="1191"/>
			<point x="51" y="1178"/>
			<point x="58" y="1166" type="curve" smooth="yes"/>
			<point x="386" y="611" type="line"/>
			<point x="46" y="36" type="line" smooth="yes"/>
			<point x="39" y="24"/>
			<point x="38" y="11"/>
			<point x="57" y="-1" type="curve" smooth="yes"/>
			<point x="78" y="-14"/>
			<point x="92" y="-15"/>
			<point x="101" y="0" type="curve" smooth="yes"/>
			<point x="424" y="547" type="line"/>
			<point x="747" y="0" type="line" smooth="yes"/>
			<point x="756" y="-15"/>
			<point x="770" y="-14"/>
		</contour>
	</outline>
	<guideline x="322" y="-11" angle="0"/>
</glyph>
<glyph name="Y" format="2">
	<unicode hex="0059"/>
	<advance width="800"/>
	<outline>
		<contour>
			<point x="395" y="-11" type="curve" smooth="yes"/>
			<point x="418" y="-11"/>
			<point x="430" y="-4"/>
			<point x="430" y="11" type="curve" smooth="yes"/>
			<point x="430" y="516" type="line"/>
			<point x="793" y="1168" type="line" smooth="yes"/>
			<point x="800" y="1181"/>
			<point x="795" y="1192"/>
			<point x="773" y="1204" type="curve" smooth="yes"/>
			<point x="753" y="1215"/>
			<point x="742" y="1217"/>
			<point x="732" y="1199" type="curve" smooth="yes"/>
			<point x="397" y="592" type="line"/>
			<point x="70" y="1199" type="line" smooth="yes"/>
			<point x="60" y="1217"/>
			<point x="47" y="1215"/>
			<point x="27" y="1204" type="curve" smooth="yes"/>
			<point x="5" y="1192"/>
			<point x="0" y="1181"/>
			<point x="7" y="1168" type="curve" smooth="yes"/>
			<point x="360" y="516" type="line"/>
			<point x="360" y="11" type="line" smooth="yes"/>
			<point x="360" y="-4"/>
			<point x="372" y="-11"/>
		</contour>
	</outline>
	<anchor name="bottom" x="395" y="0"/>
	<anchor name="top" x="400" y="1139"/>
</glyph>
<glyph name="Z" format="2">
  <advance width="759"/>
  <unicode hex="005A"/>
  <anchor x="380" y="0" name="bottom"/>
  <anchor x="380" y="629" name="center"/>
  <anchor x="380" y="1139" name="top"/>
  <outline>
    <contour>
      <point x="52" y="0" type="curve" smooth="yes"/>
      <point x="714" y="0" type="line" smooth="yes"/>
      <point x="730" y="0"/>
      <point x="736" y="8"/>
      <point x="736" y="32" type="curve" smooth="yes"/>
      <point x="736" y="56"/>
      <point x="730" y="64"/>
      <point x="714" y="64" type="curve" smooth="yes"/>
      <point x="119" y="64" type="line"/>
      <point x="717" y="1144" type="line" smooth="yes"/>
      <point x="727" y="1163"/>
      <point x="713" y="1190"/>
      <point x="693" y="1190" type="curve" smooth="yes"/>
      <point x="85" y="1190" type="line" smooth="yes"/>
      <point x="69" y="1190"/>
      <point x="63" y="1182"/>
      <point x="63" y="1158" type="curve" smooth="yes"/>
      <point x="63" y="1134"/>
      <point x="69" y="1126"/>
      <point x="85" y="1126" type="curve" smooth="yes"/>
      <point x="626" y="1126" type="line"/>
      <point x="28" y="46" type="line" smooth="yes"/>
      <point x="18" y="27"/>
      <point x="32" y="0"/>
    </contour>
  </outline>
</glyph>
<glyph name="backslash" format="2">
  <advance width="420"/>
  <unicode hex="005C"/>
  <outline>
    <contour>
      <point x="381" y="-60" type="curve" smooth="yes"/>
      <point x="404" y="-54"/>
      <point x="414" y="-45"/>
      <point x="410" y="-30" type="curve" smooth="yes"/>
      <point x="78" y="1247" type="line" smooth="yes"/>
      <point x="74" y="1262"/>
      <point x="61" y="1266"/>
      <point x="39" y="1260" type="curve" smooth="yes"/>
      <point x="16" y="1254"/>
      <point x="6" y="1245"/>
      <point x="10" y="1230" type="curve" smooth="yes"/>
      <point x="342" y="-47" type="line" smooth="yes"/>
      <point x="346" y="-62"/>
      <point x="359" y="-66"/>
    </contour>
  </outline>
</glyph>
<glyph name="underscore" format="2">
  <advance width="440"/>
  <unicode hex="005F"/>
  <outline>
    <contour>
      <point x="50" y="-109" type="curve" smooth="yes"/>
      <point x="390" y="-109" type="line" smooth="yes"/>
      <point x="406" y="-109"/>
      <point x="412" y="-101"/>
      <point x="412" y="-77" type="curve" smooth="yes"/>
      <point x="412" y="-53"/>
      <point x="406" y="-45"/>
      <point x="390" y="-45" type="curve" smooth="yes"/>
      <point x="50" y="-45" type="line" smooth="yes"/>
      <point x="34" y="-45"/>
      <point x="28" y="-53"/>
      <point x="28" y="-77" type="curve" smooth="yes"/>
      <point x="28" y="-101"/>
      <point x="34" y="-109"/>
    </contour>
  </outline>
</glyph>
<glyph name="a" format="2">
  <advance width="499"/>
  <unicode hex="0061"/>
  <anchor x="224" y="0" name="bottom"/>
  <anchor x="463" y="0" name="ogonek"/>
  <anchor x="245" y="400" name="top"/>
  <outline>
    <contour>
      <point x="206" y="-14" type="curve" smooth="yes"/>
      <point x="248" y="-14"/>
      <point x="296" y="0"/>
      <point x="333" y="60" type="curve"/>
      <point x="333" y="56"/>
      <point x="334" y="51"/>
      <point x="334" y="50" type="curve" smooth="yes"/>
      <point x="340" y="9"/>
      <point x="363" y="-14"/>
      <point x="412" y="-14" type="curve" smooth="yes"/>
      <point x="443" y="-14"/>
      <point x="477" y="1"/>
      <point x="495" y="26" type="curve" smooth="yes"/>
      <point x="501" y="35"/>
      <point x="500" y="47"/>
      <point x="490" y="58" type="curve" smooth="yes"/>
      <point x="481" y="67"/>
      <point x="470" y="70"/>
      <point x="463" y="64" type="curve" smooth="yes"/>
      <point x="449" y="53"/>
      <point x="443" y="46"/>
      <point x="427" y="46" type="curve" smooth="yes"/>
      <point x="412" y="46"/>
      <point x="402" y="55"/>
      <point x="402" y="77" type="curve" smooth="yes"/>
      <point x="402" y="390" type="line" smooth="yes"/>
      <point x="402" y="405"/>
      <point x="391" y="412"/>
      <point x="368" y="412" type="curve" smooth="yes"/>
      <point x="345" y="412"/>
      <point x="333" y="405"/>
      <point x="333" y="389" type="curve" smooth="yes"/>
      <point x="333" y="385" type="line"/>
      <point x="301" y="403"/>
      <point x="263" y="415"/>
      <point x="229" y="415" type="curve" smooth="yes"/>
      <point x="117" y="415"/>
      <point x="50" y="327"/>
      <point x="50" y="188" type="curve" smooth="yes"/>
      <point x="50" y="52"/>
      <point x="114" y="-14"/>
    </contour>
    <contour>
      <point x="121" y="191" type="curve" smooth="yes"/>
      <point x="121" y="299"/>
      <point x="167" y="352"/>
      <point x="236" y="352" type="curve" smooth="yes"/>
      <point x="270" y="352"/>
      <point x="300" y="346"/>
      <point x="333" y="326" type="curve"/>
      <point x="333" y="133" type="line"/>
      <point x="303" y="73"/>
      <point x="262" y="50"/>
      <point x="216" y="50" type="curve" smooth="yes"/>
      <point x="152" y="50"/>
      <point x="121" y="103"/>
    </contour>
  </outline>
</glyph>
<glyph name="f" format="2">
	<unicode hex="0066"/>
	<advance width="293"/>
	<outline>
		<contour>
			<point x="62" y="-815" type="curve" smooth="yes"/>
			<point x="123" y="-815"/>
			<point x="173" y="-787"/>
			<point x="173" y="-701" type="curve" smooth="yes"/>
			<point x="173" y="336" type="line"/>
			<point x="276" y="336" type="line" smooth="yes"/>
			<point x="288" y="336"/>
			<point x="295" y="346"/>
			<point x="295" y="368" type="curve" smooth="yes"/>
			<point x="295" y="389"/>
			<point x="288" y="400"/>
			<point x="276" y="400" type="curve" smooth="yes"/>
			<point x="173" y="400" type="line"/>
			<point x="173" y="1076" type="line" smooth="yes"/>
			<point x="173" y="1135"/>
			<point x="198" y="1151"/>
			<point x="231" y="1151" type="curve" smooth="yes"/>
			<point x="259" y="1151"/>
			<point x="273" y="1141"/>
			<point x="297" y="1124" type="curve" smooth="yes"/>
			<point x="310" y="1115"/>
			<point x="321" y="1117"/>
			<point x="335" y="1131" type="curve" smooth="yes"/>
			<point x="347" y="1144"/>
			<point x="352" y="1156"/>
			<point x="340" y="1168" type="curve" smooth="yes"/>
			<point x="316" y="1193"/>
			<point x="281" y="1215"/>
			<point x="229" y="1215" type="curve" smooth="yes"/>
			<point x="166" y="1215"/>
			<point x="104" y="1177"/>
			<point x="104" y="1081" type="curve" smooth="yes"/>
			<point x="104" y="400" type="line"/>
			<point x="35" y="400" type="line" smooth="yes"/>
			<point x="22" y="400"/>
			<point x="15" y="389"/>
			<point x="15" y="368" type="curve" smooth="yes"/>
			<point x="15" y="346"/>
			<point x="23" y="336"/>
			<point x="36" y="336" type="curve" smooth="yes"/>
			<point x="104" y="336" type="line"/>
			<point x="104" y="-701" type="line" smooth="yes"/>
			<point x="104" y="-732"/>
			<point x="96" y="-755"/>
			<point x="69" y="-755" type="curve" smooth="yes"/>
			<point x="48" y="-755"/>
			<point x="32" y="-743"/>
			<point x="15" y="-725" type="curve" smooth="yes"/>
			<point x="3" y="-712"/>
			<point x="-6" y="-712"/>
			<point x="-22" y="-722" type="curve" smooth="yes"/>
			<point x="-39" y="-733"/>
			<point x="-45" y="-745"/>
			<point x="-38" y="-760" type="curve" smooth="yes"/>
			<point x="-21" y="-794"/>
			<point x="19" y="-815"/>
		</contour>
	</outline>
</glyph>
<glyph name="g" format="2">
	<unicode hex="0067"/>
	<advance width="478"/>
	<outline>
		<contour>
			<point x="228" y="-815" type="curve" smooth="yes"/>
			<point x="334" y="-815"/>
			<point x="403" y="-752"/>
			<point x="403" y="-620" type="curve" smooth="yes"/>
			<point x="403" y="391" type="line" smooth="yes"/>
			<point x="403" y="405"/>
			<point x="391" y="412"/>
			<point x="368" y="412" type="curve" smooth="yes"/>
			<point x="345" y="412"/>
			<point x="334" y="405"/>
			<point x="334" y="391" type="curve" smooth="yes"/>
			<point x="334" y="-618" type="line" smooth="yes"/>
			<point x="334" y="-717"/>
			<point x="295" y="-753"/>
			<point x="231" y="-753" type="curve" smooth="yes"/>
			<point x="192" y="-753"/>
			<point x="163" y="-737"/>
			<point x="130" y="-702" type="curve" smooth="yes"/>
			<point x="116" y="-688"/>
			<point x="108" y="-685"/>
			<point x="88" y="-699" type="curve" smooth="yes"/>
			<point x="66" y="-715"/>
			<point x="67" y="-730"/>
			<point x="77" y="-745" type="curve" smooth="yes"/>
			<point x="104" y="-783"/>
			<point x="156" y="-815"/>
		</contour>
		<contour>
			<point x="206" y="-14" type="curve" smooth="yes"/>
			<point x="262" y="-14"/>
			<point x="329" y="11"/>
			<point x="367" y="134" type="curve"/>
			<point x="354" y="183" type="line"/>
			<point x="324" y="86"/>
			<point x="273" y="50"/>
			<point x="216" y="50" type="curve" smooth="yes"/>
			<point x="152" y="50"/>
			<point x="121" y="103"/>
			<point x="121" y="191" type="curve" smooth="yes"/>
			<point x="121" y="299"/>
			<point x="167" y="352"/>
			<point x="236" y="352" type="curve" smooth="yes"/>
			<point x="278" y="352"/>
			<point x="316" y="339"/>
			<point x="359" y="305" type="curve"/>
			<point x="359" y="371" type="line"/>
			<point x="323" y="398"/>
			<point x="273" y="415"/>
			<point x="229" y="415" type="curve" smooth="yes"/>
			<point x="117" y="415"/>
			<point x="50" y="327"/>
			<point x="50" y="188" type="curve" smooth="yes"/>
			<point x="50" y="52"/>
			<point x="114" y="-14"/>
		</contour>
	</outline>
	<anchor name="top" x="236" y="400"/>
</glyph>
<glyph name="h" format="2">
  <advance width="651"/>
  <unicode hex="0068"/>
  <anchor x="331" y="0" name="bottom"/>
  <anchor x="180" y="949" name="center"/>
  <anchor x="144" y="1424" name="top"/>
  <outline>
    <contour>
      <point x="544" y="-17" type="curve" smooth="yes"/>
      <point x="583" y="-17"/>
      <point x="624" y="0"/>
      <point x="646" y="31" type="curve" smooth="yes"/>
      <point x="655" y="44"/>
      <point x="654" y="56"/>
      <point x="643" y="70" type="curve" smooth="yes"/>
      <point x="633" y="83"/>
      <point x="619" y="88"/>
      <point x="608" y="80" type="curve" smooth="yes"/>
      <point x="594" y="69"/>
      <point x="584" y="58"/>
      <point x="563" y="58" type="curve" smooth="yes"/>
      <point x="544" y="58"/>
      <point x="531" y="69"/>
      <point x="531" y="96" type="curve" smooth="yes"/>
      <point x="531" y="334" type="line" smooth="yes"/>
      <point x="531" y="465"/>
      <point x="458" y="519"/>
      <point x="355" y="519" type="curve" smooth="yes"/>
      <point x="285" y="519"/>
      <point x="225" y="483"/>
      <point x="186" y="425" type="curve"/>
      <point x="186" y="1489" type="line" smooth="yes"/>
      <point x="186" y="1506"/>
      <point x="171" y="1515"/>
      <point x="143" y="1515" type="curve" smooth="yes"/>
      <point x="114" y="1515"/>
      <point x="100" y="1506"/>
      <point x="100" y="1489" type="curve" smooth="yes"/>
      <point x="100" y="11" type="line" smooth="yes"/>
      <point x="100" y="-6"/>
      <point x="114" y="-15"/>
      <point x="143" y="-15" type="curve" smooth="yes"/>
      <point x="171" y="-15"/>
      <point x="186" y="-6"/>
      <point x="186" y="11" type="curve" smooth="yes"/>
      <point x="186" y="328" type="line"/>
      <point x="223" y="410"/>
      <point x="286" y="439"/>
      <point x="343" y="439" type="curve" smooth="yes"/>
      <point x="416" y="439"/>
      <point x="445" y="396"/>
      <point x="445" y="326" type="curve" smooth="yes"/>
      <point x="445" y="86" type="line" smooth="yes"/>
      <point x="445" y="21"/>
      <point x="474" y="-17"/>
    </contour>
  </outline>
</glyph>
<glyph name="i" format="2">
  <advance width="244"/>
  <unicode hex="0069"/>
  <anchor x="156" y="0" name="bottom"/>
  <anchor x="200" y="0" name="ogonek"/>
  <outline>
    <contour>
      <point x="154" y="-14" type="curve" smooth="yes"/>
      <point x="185" y="-14"/>
      <point x="218" y="1"/>
      <point x="236" y="26" type="curve" smooth="yes"/>
      <point x="242" y="35"/>
      <point x="241" y="46"/>
      <point x="233" y="56" type="curve" smooth="yes"/>
      <point x="226" y="65"/>
      <point x="213" y="70"/>
      <point x="206" y="65" type="curve" smooth="yes"/>
      <point x="193" y="55"/>
      <point x="186" y="46"/>
      <point x="169" y="46" type="curve" smooth="yes"/>
      <point x="154" y="46"/>
      <point x="144" y="55"/>
      <point x="144" y="77" type="curve" smooth="yes"/>
      <point x="144" y="391" type="line" smooth="yes"/>
      <point x="144" y="405"/>
      <point x="132" y="412"/>
      <point x="109" y="412" type="curve" smooth="yes"/>
      <point x="86" y="412"/>
      <point x="75" y="405"/>
      <point x="75" y="391" type="curve" smooth="yes"/>
      <point x="75" y="69" type="line" smooth="yes"/>
      <point x="75" y="17"/>
      <point x="98" y="-14"/>
    </contour>
    <contour>
      <point x="110" y="535" type="curve" smooth="yes"/>
      <point x="139" y="535"/>
      <point x="155" y="551"/>
      <point x="154" y="585" type="curve" smooth="yes"/>
      <point x="154" y="619"/>
      <point x="139" y="636"/>
      <point x="110" y="636" type="curve" smooth="yes"/>
      <point x="80" y="636"/>
      <point x="65" y="619"/>
      <point x="65" y="585" type="curve" smooth="yes"/>
      <point x="65" y="551"/>
      <point x="80" y="535"/>
    </contour>
  </outline>
</glyph>
<glyph name="j" format="2">
	<unicode hex="006A"/>
	<advance width="214"/>
	<outline>
		<contour>
			<point x="38" y="-815" type="curve" smooth="yes"/>
			<point x="92" y="-815"/>
			<point x="140" y="-787"/>
			<point x="140" y="-698" type="curve" smooth="yes"/>
			<point x="140" y="391" type="line" smooth="yes"/>
			<point x="140" y="405"/>
			<point x="128" y="412"/>
			<point x="105" y="412" type="curve" smooth="yes"/>
			<point x="82" y="412"/>
			<point x="71" y="405"/>
			<point x="71" y="391" type="curve" smooth="yes"/>
			<point x="71" y="-703" type="line" smooth="yes"/>
			<point x="71" y="-735"/>
			<point x="64" y="-755"/>
			<point x="38" y="-755" type="curve" smooth="yes"/>
			<point x="20" y="-755"/>
			<point x="10" y="-746"/>
			<point x="-4" y="-729" type="curve" smooth="yes"/>
			<point x="-15" y="-715"/>
			<point x="-26" y="-710"/>
			<point x="-45" y="-721" type="curve" smooth="yes"/>
			<point x="-61" y="-730"/>
			<point x="-69" y="-742"/>
			<point x="-61" y="-758" type="curve" smooth="yes"/>
			<point x="-45" y="-789"/>
			<point x="-11" y="-815"/>
		</contour>
		<contour>
			<point x="105" y="535" type="curve" smooth="yes"/>
			<point x="134" y="535"/>
			<point x="149" y="551"/>
			<point x="149" y="585" type="curve" smooth="yes"/>
			<point x="149" y="619"/>
			<point x="134" y="636"/>
			<point x="105" y="636" type="curve" smooth="yes"/>
			<point x="75" y="636"/>
			<point x="60" y="619"/>
			<point x="60" y="585" type="curve" smooth="yes"/>
			<point x="60" y="551"/>
			<point x="75" y="535"/>
		</contour>
	</outline>
</glyph>
<glyph name="k" format="2">
  <advance width="564"/>
  <unicode hex="006B"/>
  <anchor x="301" y="0" name="bottom"/>
  <anchor x="143" y="838" name="top"/>
  <outline>
    <contour>
      <point x="143" y="-15" type="curve" smooth="yes"/>
      <point x="171" y="-15"/>
      <point x="186" y="-6"/>
      <point x="186" y="11" type="curve" smooth="yes"/>
      <point x="186" y="229" type="line"/>
      <point x="331" y="29"/>
      <point x="371" y="-17"/>
      <point x="445" y="-17" type="curve" smooth="yes"/>
      <point x="476" y="-17"/>
      <point x="526" y="-6"/>
      <point x="566" y="50" type="curve" smooth="yes"/>
      <point x="576" y="64"/>
      <point x="578" y="84"/>
      <point x="556" y="96" type="curve" smooth="yes"/>
      <point x="539" y="106"/>
      <point x="528" y="106"/>
      <point x="514" y="91" type="curve" smooth="yes"/>
      <point x="493" y="69"/>
      <point x="479" y="59"/>
      <point x="458" y="59" type="curve" smooth="yes"/>
      <point x="420" y="59"/>
      <point x="409" y="74"/>
      <point x="254" y="281" type="curve"/>
      <point x="474" y="448" type="line" smooth="yes"/>
      <point x="498" y="465"/>
      <point x="491" y="484"/>
      <point x="478" y="499" type="curve" smooth="yes"/>
      <point x="458" y="523"/>
      <point x="441" y="518"/>
      <point x="421" y="503" type="curve" smooth="yes"/>
      <point x="186" y="328" type="line"/>
      <point x="186" y="1489" type="line" smooth="yes"/>
      <point x="186" y="1506"/>
      <point x="171" y="1515"/>
      <point x="143" y="1515" type="curve" smooth="yes"/>
      <point x="114" y="1515"/>
      <point x="100" y="1506"/>
      <point x="100" y="1489" type="curve" smooth="yes"/>
      <point x="100" y="11" type="line" smooth="yes"/>
      <point x="100" y="-6"/>
      <point x="114" y="-15"/>
    </contour>
  </outline>
</glyph>
<glyph name="l" format="2">
	<unicode hex="006C"/>
	<advance width="245"/>
	<outline>
		<contour>
			<point x="154" y="-14" type="curve" smooth="yes"/>
			<point x="185" y="-14"/>
			<point x="220" y="1"/>
			<point x="238" y="28" type="curve" smooth="yes"/>
			<point x="244" y="37"/>
			<point x="240" y="48"/>
			<point x="234" y="56" type="curve" smooth="yes"/>
			<point x="225" y="67"/>
			<point x="214" y="70"/>
			<point x="206" y="64" type="curve" smooth="yes"/>
			<point x="194" y="55"/>
			<point x="186" y="46"/>
			<point x="169" y="46" type="curve" smooth="yes"/>
			<point x="154" y="46"/>
			<point x="144" y="55"/>
			<point x="144" y="77" type="curve" smooth="yes"/>
			<point x="144" y="1191" type="line" smooth="yes"/>
			<point x="144" y="1205"/>
			<point x="132" y="1212"/>
			<point x="109" y="1212" type="curve" smooth="yes"/>
			<point x="86" y="1212"/>
			<point x="75" y="1205"/>
			<point x="75" y="1191" type="curve" smooth="yes"/>
			<point x="75" y="69" type="line" smooth="yes"/>
			<point x="75" y="17"/>
			<point x="98" y="-14"/>
		</contour>
	</outline>
	<anchor name="bottom" x="160" y="0"/>
	<anchor name="center" x="111" y="570"/>
	<anchor name="top" x="118" y="1139"/>
	<anchor name="topright" x="126" y="1200"/>
</glyph>
<glyph name="m" format="2">
	<unicode hex="006D"/>
	<advance width="771"/>
	<outline>
		<contour>
			<point x="685" y="-14" type="curve" smooth="yes"/>
			<point x="716" y="-14"/>
			<point x="750" y="1"/>
			<point x="768" y="26" type="curve" smooth="yes"/>
			<point x="774" y="35"/>
			<point x="771" y="47"/>
			<point x="765" y="55" type="curve" smooth="yes"/>
			<point x="756" y="66"/>
			<point x="744" y="69"/>
			<point x="737" y="64" type="curve" smooth="yes"/>
			<point x="724" y="54"/>
			<point x="718" y="46"/>
			<point x="700" y="46" type="curve" smooth="yes"/>
			<point x="685" y="46"/>
			<point x="675" y="55"/>
			<point x="675" y="77" type="curve" smooth="yes"/>
			<point x="675" y="267" type="line" smooth="yes"/>
			<point x="675" y="372"/>
			<point x="616" y="415"/>
			<point x="534" y="415" type="curve" smooth="yes"/>
			<point x="485" y="415"/>
			<point x="402" y="390"/>
			<point x="373" y="275" type="curve"/>
			<point x="385" y="207" type="line"/>
			<point x="407" y="317"/>
			<point x="469" y="351"/>
			<point x="525" y="351" type="curve" smooth="yes"/>
			<point x="584" y="351"/>
			<point x="606" y="317"/>
			<point x="606" y="261" type="curve" smooth="yes"/>
			<point x="606" y="69" type="line" smooth="yes"/>
			<point x="606" y="17"/>
			<point x="629" y="-14"/>
		</contour>
		<contour>
			<point x="109" y="-12" type="curve" smooth="yes"/>
			<point x="132" y="-12"/>
			<point x="144" y="-5"/>
			<point x="144" y="9" type="curve" smooth="yes"/>
			<point x="144" y="391" type="line" smooth="yes"/>
			<point x="144" y="405"/>
			<point x="132" y="412"/>
			<point x="109" y="412" type="curve" smooth="yes"/>
			<point x="86" y="412"/>
			<point x="75" y="405"/>
			<point x="75" y="391" type="curve" smooth="yes"/>
			<point x="75" y="9" type="line" smooth="yes"/>
			<point x="75" y="-5"/>
			<point x="86" y="-12"/>
		</contour>
		<contour>
			<point x="375" y="-12" type="curve" smooth="yes"/>
			<point x="398" y="-12"/>
			<point x="410" y="-5"/>
			<point x="410" y="9" type="curve" smooth="yes"/>
			<point x="410" y="267" type="line" smooth="yes"/>
			<point x="410" y="372"/>
			<point x="349" y="415"/>
			<point x="268" y="415" type="curve" smooth="yes"/>
			<point x="215" y="415"/>
			<point x="142" y="382"/>
			<point x="114" y="274" type="curve"/>
			<point x="127" y="207" type="line"/>
			<point x="148" y="316"/>
			<point x="212" y="351"/>
			<point x="258" y="351" type="curve" smooth="yes"/>
			<point x="318" y="351"/>
			<point x="341" y="318"/>
			<point x="341" y="261" type="curve" smooth="yes"/>
			<point x="341" y="9" type="line" smooth="yes"/>
			<point x="341" y="-5"/>
			<point x="352" y="-12"/>
		</contour>
	</outline>
	<anchor name="bottom" x="375" y="0"/>
	<anchor name="top" x="379" y="400"/>
</glyph>
<glyph name="p" format="2">
  <advance width="478"/>
  <unicode hex="0070"/>
  <outline>
    <contour>
      <point x="114" y="-812" type="curve" smooth="yes"/>
      <point x="137" y="-812"/>
      <point x="149" y="-805"/>
      <point x="149" y="-791" type="curve" smooth="yes"/>
      <point x="149" y="11" type="line"/>
      <point x="176" y="-5"/>
      <point x="209" y="-14"/>
      <point x="242" y="-14" type="curve" smooth="yes"/>
      <point x="361" y="-14"/>
      <point x="428" y="74"/>
      <point x="428" y="213" type="curve" smooth="yes"/>
      <point x="428" y="349"/>
      <point x="364" y="415"/>
      <point x="272" y="415" type="curve" smooth="yes"/>
      <point x="232" y="415"/>
      <point x="186" y="402"/>
      <point x="149" y="346" type="curve"/>
      <point x="149" y="391" type="line" smooth="yes"/>
      <point x="149" y="405"/>
      <point x="137" y="412"/>
      <point x="114" y="412" type="curve" smooth="yes"/>
      <point x="91" y="412"/>
      <point x="80" y="405"/>
      <point x="80" y="391" type="curve" smooth="yes"/>
      <point x="80" y="-791" type="line" smooth="yes"/>
      <point x="80" y="-805"/>
      <point x="91" y="-812"/>
    </contour>
    <contour>
      <point x="149" y="76" type="curve"/>
      <point x="149" y="274" type="line"/>
      <point x="179" y="329"/>
      <point x="219" y="351"/>
      <point x="262" y="351" type="curve" smooth="yes"/>
      <point x="326" y="351"/>
      <point x="357" y="298"/>
      <point x="357" y="210" type="curve" smooth="yes"/>
      <point x="357" y="102"/>
      <point x="311" y="49"/>
      <point x="242" y="49" type="curve" smooth="yes"/>
      <point x="211" y="49"/>
      <point x="181" y="57"/>
    </contour>
  </outline>
</glyph>
<glyph name="r" format="2">
	<unicode hex="0072"/>
	<advance width="356"/>
	<outline>
		<contour>
			<point x="109" y="-12" type="curve" smooth="yes"/>
			<point x="132" y="-12"/>
			<point x="144" y="-5"/>
			<point x="144" y="9" type="curve" smooth="yes"/>
			<point x="144" y="263" type="line"/>
			<point x="171" y="323"/>
			<point x="214" y="351"/>
			<point x="257" y="351" type="curve" smooth="yes"/>
			<point x="274" y="351"/>
			<point x="287" y="347"/>
			<point x="299" y="344" type="curve" smooth="yes"/>
			<point x="316" y="339"/>
			<point x="327" y="345"/>
			<point x="335" y="361" type="curve" smooth="yes"/>
			<point x="346" y="382"/>
			<point x="342" y="390"/>
			<point x="330" y="399" type="curve" smooth="yes"/>
			<point x="318" y="408"/>
			<point x="293" y="415"/>
			<point x="269" y="415" type="curve" smooth="yes"/>
			<point x="222" y="415"/>
			<point x="175" y="387"/>
			<point x="144" y="340" type="curve"/>
			<point x="144" y="391" type="line" smooth="yes"/>
			<point x="144" y="405"/>
			<point x="132" y="412"/>
			<point x="109" y="412" type="curve" smooth="yes"/>
			<point x="86" y="412"/>
			<point x="75" y="405"/>
			<point x="75" y="391" type="curve" smooth="yes"/>
			<point x="75" y="9" type="line" smooth="yes"/>
			<point x="75" y="-5"/>
			<point x="86" y="-12"/>
		</contour>
	</outline>
	<anchor name="bottom" x="104" y="0"/>
	<anchor name="top" x="209" y="400"/>
</glyph>
<glyph name="u" format="2">
  <advance width="645"/>
  <unicode hex="0075"/>
  <anchor x="303" y="0" name="bottom"/>
  <anchor x="581" y="13" name="ogonek"/>
  <anchor x="303" y="500" name="top"/>
  <anchor x="470" y="514" name="topright"/>
  <outline>
    <contour>
      <point x="269" y="-17" type="curve" smooth="yes"/>
      <point x="342" y="-17"/>
      <point x="399" y="19"/>
      <point x="436" y="78" type="curve"/>
      <point x="437" y="69" type="line" smooth="yes"/>
      <point x="443" y="18"/>
      <point x="473" y="-19"/>
      <point x="536" y="-19" type="curve" smooth="yes"/>
      <point x="575" y="-19"/>
      <point x="615" y="3"/>
      <point x="636" y="33" type="curve" smooth="yes"/>
      <point x="645" y="45"/>
      <point x="641" y="59"/>
      <point x="634" y="69" type="curve" smooth="yes"/>
      <point x="623" y="84"/>
      <point x="609" y="88"/>
      <point x="599" y="80" type="curve" smooth="yes"/>
      <point x="584" y="69"/>
      <point x="571" y="56"/>
      <point x="553" y="56" type="curve" smooth="yes"/>
      <point x="534" y="56"/>
      <point x="521" y="68"/>
      <point x="521" y="96" type="curve" smooth="yes"/>
      <point x="521" y="489" type="line" smooth="yes"/>
      <point x="521" y="506"/>
      <point x="506" y="515"/>
      <point x="478" y="515" type="curve" smooth="yes"/>
      <point x="449" y="515"/>
      <point x="435" y="506"/>
      <point x="435" y="489" type="curve" smooth="yes"/>
      <point x="435" y="177" type="line"/>
      <point x="407" y="109"/>
      <point x="355" y="59"/>
      <point x="280" y="59" type="curve" smooth="yes"/>
      <point x="213" y="59"/>
      <point x="180" y="95"/>
      <point x="180" y="166" type="curve" smooth="yes"/>
      <point x="180" y="489" type="line" smooth="yes"/>
      <point x="180" y="506"/>
      <point x="165" y="515"/>
      <point x="136" y="515" type="curve" smooth="yes"/>
      <point x="108" y="515"/>
      <point x="94" y="506"/>
      <point x="94" y="489" type="curve" smooth="yes"/>
      <point x="94" y="166" type="line" smooth="yes"/>
      <point x="94" y="44"/>
      <point x="153" y="-17"/>
    </contour>
  </outline>
</glyph>
<glyph name="v" format="2">
	<unicode hex="0076"/>
	<advance width="407"/>
	<outline>
		<contour>
			<point x="203" y="-12" type="curve" smooth="yes"/>
			<point x="226" y="-12"/>
			<point x="235" y="-4"/>
			<point x="240" y="9" type="curve" smooth="yes"/>
			<point x="386" y="372" type="line" smooth="yes"/>
			<point x="395" y="395"/>
			<point x="382" y="412"/>
			<point x="352" y="412" type="curve" smooth="yes"/>
			<point x="336" y="412"/>
			<point x="327" y="406"/>
			<point x="321" y="391" type="curve" smooth="yes"/>
			<point x="204" y="87" type="line"/>
			<point x="85" y="391" type="line" smooth="yes"/>
			<point x="79" y="406"/>
			<point x="71" y="412"/>
			<point x="55" y="412" type="curve" smooth="yes"/>
			<point x="25" y="412"/>
			<point x="11" y="393"/>
			<point x="20" y="372" type="curve" smooth="yes"/>
			<point x="166" y="9" type="line" smooth="yes"/>
			<point x="171" y="-4"/>
			<point x="180" y="-12"/>
		</contour>
	</outline>
</glyph>
<glyph name="y" format="2">
	<unicode hex="0079"/>
	<advance width="492"/>
	<outline>
		<contour>
			<point x="215" y="-14" type="curve" smooth="yes"/>
			<point x="273" y="-14"/>
			<point x="319" y="15"/>
			<point x="348" y="61" type="curve"/>
			<point x="348" y="-628" type="line" smooth="yes"/>
			<point x="348" y="-717"/>
			<point x="309" y="-753"/>
			<point x="247" y="-753" type="curve" smooth="yes"/>
			<point x="204" y="-753"/>
			<point x="176" y="-738"/>
			<point x="144" y="-703" type="curve" smooth="yes"/>
			<point x="131" y="-688"/>
			<point x="122" y="-687"/>
			<point x="103" y="-697" type="curve" smooth="yes"/>
			<point x="81" y="-709"/>
			<point x="80" y="-728"/>
			<point x="90" y="-743" type="curve" smooth="yes"/>
			<point x="117" y="-781"/>
			<point x="168" y="-815"/>
			<point x="240" y="-815" type="curve" smooth="yes"/>
			<point x="346" y="-815"/>
			<point x="417" y="-752"/>
			<point x="417" y="-630" type="curve" smooth="yes"/>
			<point x="417" y="391" type="line" smooth="yes"/>
			<point x="417" y="405"/>
			<point x="405" y="412"/>
			<point x="382" y="412" type="curve" smooth="yes"/>
			<point x="359" y="412"/>
			<point x="348" y="405"/>
			<point x="348" y="391" type="curve" smooth="yes"/>
			<point x="348" y="142" type="line"/>
			<point x="326" y="88"/>
			<point x="284" y="47"/>
			<point x="224" y="47" type="curve" smooth="yes"/>
			<point x="170" y="47"/>
			<point x="144" y="76"/>
			<point x="144" y="133" type="curve" smooth="yes"/>
			<point x="144" y="391" type="line" smooth="yes"/>
			<point x="144" y="405"/>
			<point x="132" y="412"/>
			<point x="109" y="412" type="curve" smooth="yes"/>
			<point x="86" y="412"/>
			<point x="75" y="405"/>
			<point x="75" y="391" type="curve" smooth="yes"/>
			<point x="75" y="133" type="line" smooth="yes"/>
			<point x="75" y="35"/>
			<point x="122" y="-14"/>
		</contour>
	</outline>
	<anchor name="bottom" x="237" y="0"/>
	<anchor name="top" x="246" y="400"/>
</glyph>
<glyph name="bar" format="2">
  <advance width="460"/>
  <unicode hex="007C"/>
  <outline>
    <contour>
      <point x="230" y="-62" type="curve" smooth="yes"/>
      <point x="253" y="-62"/>
      <point x="265" y="-55"/>
      <point x="265" y="-40" type="curve" smooth="yes"/>
      <point x="265" y="1240" type="line" smooth="yes"/>
      <point x="265" y="1255"/>
      <point x="253" y="1262"/>
      <point x="230" y="1262" type="curve" smooth="yes"/>
      <point x="207" y="1262"/>
      <point x="195" y="1255"/>
      <point x="195" y="1240" type="curve" smooth="yes"/>
      <point x="195" y="-40" type="line" smooth="yes"/>
      <point x="195" y="-55"/>
      <point x="207" y="-62"/>
    </contour>
  </outline>
</glyph>
<glyph name="cent" format="2">
  <advance width="657"/>
  <unicode hex="00A2"/>
  <outline>
    <contour>
      <point x="351" y="-15" type="curve" smooth="yes"/>
      <point x="431" y="-15"/>
      <point x="522" y="28"/>
      <point x="579" y="119" type="curve" smooth="yes"/>
      <point x="588" y="133"/>
      <point x="585" y="146"/>
      <point x="569" y="156" type="curve" smooth="yes"/>
      <point x="554" y="167"/>
      <point x="542" y="166"/>
      <point x="531" y="152" type="curve" smooth="yes"/>
      <point x="474" y="79"/>
      <point x="426" y="49"/>
      <point x="351" y="49" type="curve" smooth="yes"/>
      <point x="221" y="49"/>
      <point x="141" y="158"/>
      <point x="141" y="338" type="curve" smooth="yes"/>
      <point x="141" y="527"/>
      <point x="221" y="642"/>
      <point x="352" y="642" type="curve" smooth="yes"/>
      <point x="421" y="642"/>
      <point x="463" y="617"/>
      <point x="516" y="563" type="curve" smooth="yes"/>
      <point x="527" y="552"/>
      <point x="537" y="553"/>
      <point x="551" y="565" type="curve" smooth="yes"/>
      <point x="566" y="579"/>
      <point x="568" y="589"/>
      <point x="559" y="600" type="curve" smooth="yes"/>
      <point x="506" y="666"/>
      <point x="426" y="706"/>
      <point x="352" y="706" type="curve" smooth="yes"/>
      <point x="177" y="706"/>
      <point x="70" y="567"/>
      <point x="70" y="338" type="curve" smooth="yes"/>
      <point x="70" y="119"/>
      <point x="176" y="-15"/>
    </contour>
    <contour>
      <point x="342" y="-120" type="curve" smooth="yes"/>
      <point x="363" y="-120"/>
      <point x="374" y="-113"/>
      <point x="374" y="-98" type="curve" smooth="yes"/>
      <point x="374" y="792" type="line" smooth="yes"/>
      <point x="374" y="807"/>
      <point x="363" y="814"/>
      <point x="342" y="814" type="curve" smooth="yes"/>
      <point x="321" y="814"/>
      <point x="310" y="807"/>
      <point x="310" y="792" type="curve" smooth="yes"/>
      <point x="310" y="-98" type="line" smooth="yes"/>
      <point x="310" y="-113"/>
      <point x="321" y="-120"/>
    </contour>
  </outline>
</glyph>
<glyph name="sterling" format="2">
  <advance width="837"/>
  <unicode hex="00A3"/>
  <outline>
    <contour>
      <point x="74" y="0" type="curve" smooth="yes"/>
      <point x="781" y="0" type="line" smooth="yes"/>
      <point x="799" y="0"/>
      <point x="803" y="7"/>
      <point x="803" y="32" type="curve" smooth="yes"/>
      <point x="803" y="57"/>
      <point x="796" y="64"/>
      <point x="781" y="64" type="curve" smooth="yes"/>
      <point x="318" y="64" type="line"/>
      <point x="318" y="482" type="line"/>
      <point x="591" y="482" type="line" smooth="yes"/>
      <point x="609" y="482"/>
      <point x="613" y="489"/>
      <point x="613" y="514" type="curve" smooth="yes"/>
      <point x="613" y="539"/>
      <point x="606" y="546"/>
      <point x="591" y="546" type="curve" smooth="yes"/>
      <point x="318" y="546" type="line"/>
      <point x="318" y="911" type="line" smooth="yes"/>
      <point x="318" y="1058"/>
      <point x="392" y="1147"/>
      <point x="513" y="1147" type="curve" smooth="yes"/>
      <point x="589" y="1147"/>
      <point x="650" y="1121"/>
      <point x="728" y="1060" type="curve" smooth="yes"/>
      <point x="743" y="1048"/>
      <point x="756" y="1046"/>
      <point x="772" y="1065" type="curve" smooth="yes"/>
      <point x="789" y="1084"/>
      <point x="779" y="1099"/>
      <point x="770" y="1108" type="curve" smooth="yes"/>
      <point x="693" y="1178"/>
      <point x="609" y="1212"/>
      <point x="513" y="1212" type="curve" smooth="yes"/>
      <point x="348" y="1212"/>
      <point x="248" y="1098"/>
      <point x="248" y="911" type="curve" smooth="yes"/>
      <point x="248" y="546" type="line"/>
      <point x="107" y="546" type="line" smooth="yes"/>
      <point x="92" y="546"/>
      <point x="85" y="539"/>
      <point x="85" y="514" type="curve" smooth="yes"/>
      <point x="85" y="489"/>
      <point x="89" y="482"/>
      <point x="107" y="482" type="curve" smooth="yes"/>
      <point x="248" y="482" type="line"/>
      <point x="248" y="64" type="line"/>
      <point x="74" y="64" type="line" smooth="yes"/>
      <point x="59" y="64"/>
      <point x="52" y="57"/>
      <point x="52" y="32" type="curve" smooth="yes"/>
      <point x="52" y="7"/>
      <point x="56" y="0"/>
    </contour>
  </outline>
</glyph>
<glyph name="section" format="2">
  <advance width="1033"/>
  <unicode hex="00A7"/>
  <outline>
    <contour>
      <point x="946" y="401" type="curve" smooth="yes"/>
      <point x="946" y="890"/>
      <point x="266" y="759"/>
      <point x="266" y="1158" type="curve" smooth="yes"/>
      <point x="266" y="1328"/>
      <point x="359" y="1430"/>
      <point x="531" y="1430" type="curve" smooth="yes"/>
      <point x="655" y="1430"/>
      <point x="751" y="1378"/>
      <point x="831" y="1305" type="curve" smooth="yes"/>
      <point x="859" y="1280"/>
      <point x="871" y="1283"/>
      <point x="890" y="1303" type="curve" smooth="yes"/>
      <point x="906" y="1320"/>
      <point x="910" y="1335"/>
      <point x="890" y="1355" type="curve" smooth="yes"/>
      <point x="805" y="1439"/>
      <point x="688" y="1515"/>
      <point x="530" y="1515" type="curve" smooth="yes"/>
      <point x="326" y="1515"/>
      <point x="174" y="1379"/>
      <point x="174" y="1158" type="curve" smooth="yes"/>
      <point x="174" y="681"/>
      <point x="854" y="813"/>
      <point x="854" y="401" type="curve" smooth="yes"/>
      <point x="854" y="249"/>
      <point x="768" y="130"/>
      <point x="650" y="58" type="curve"/>
      <point x="720" y="14" type="line"/>
      <point x="850" y="99"/>
      <point x="946" y="228"/>
    </contour>
    <contour>
      <point x="109" y="514" type="curve" smooth="yes"/>
      <point x="109" y="21"/>
      <point x="803" y="159"/>
      <point x="803" y="-267" type="curve" smooth="yes"/>
      <point x="803" y="-471"/>
      <point x="659" y="-585"/>
      <point x="501" y="-585" type="curve" smooth="yes"/>
      <point x="371" y="-585"/>
      <point x="260" y="-537"/>
      <point x="165" y="-444" type="curve" smooth="yes"/>
      <point x="145" y="-424"/>
      <point x="134" y="-424"/>
      <point x="114" y="-445" type="curve" smooth="yes"/>
      <point x="95" y="-464"/>
      <point x="93" y="-476"/>
      <point x="105" y="-491" type="curve" smooth="yes"/>
      <point x="211" y="-607"/>
      <point x="334" y="-670"/>
      <point x="501" y="-670" type="curve" smooth="yes"/>
      <point x="703" y="-670"/>
      <point x="895" y="-524"/>
      <point x="895" y="-267" type="curve" smooth="yes"/>
      <point x="895" y="235"/>
      <point x="201" y="100"/>
      <point x="201" y="514" type="curve" smooth="yes"/>
      <point x="201" y="659"/>
      <point x="280" y="780"/>
      <point x="405" y="856" type="curve"/>
      <point x="335" y="901" type="line"/>
      <point x="201" y="814"/>
      <point x="109" y="684"/>
    </contour>
  </outline>
</glyph>
<glyph name="copyright" format="2">
  <advance width="1125"/>
  <unicode hex="00A9"/>
  <outline>
    <contour>
      <point x="562" y="95" type="curve" smooth="yes"/>
      <point x="822" y="95"/>
      <point x="1011" y="302"/>
      <point x="1011" y="587" type="curve" smooth="yes"/>
      <point x="1011" y="872"/>
      <point x="822" y="1078"/>
      <point x="562" y="1078" type="curve" smooth="yes"/>
      <point x="302" y="1078"/>
      <point x="114" y="872"/>
      <point x="114" y="587" type="curve" smooth="yes"/>
      <point x="114" y="302"/>
      <point x="302" y="95"/>
    </contour>
    <contour>
      <point x="562" y="135" type="curve" smooth="yes"/>
      <point x="328" y="135"/>
      <point x="158" y="325"/>
      <point x="158" y="587" type="curve" smooth="yes"/>
      <point x="158" y="849"/>
      <point x="328" y="1038"/>
      <point x="562" y="1038" type="curve" smooth="yes"/>
      <point x="797" y="1038"/>
      <point x="967" y="849"/>
      <point x="967" y="587" type="curve" smooth="yes"/>
      <point x="967" y="325"/>
      <point x="797" y="135"/>
    </contour>
    <contour>
      <point x="567" y="311" type="curve" smooth="yes"/>
      <point x="632" y="311"/>
      <point x="687" y="346"/>
      <point x="731" y="416" type="curve" smooth="yes"/>
      <point x="737" y="426"/>
      <point x="735" y="435"/>
      <point x="723" y="443" type="curve" smooth="yes"/>
      <point x="710" y="452"/>
      <point x="699" y="451"/>
      <point x="691" y="439" type="curve" smooth="yes"/>
      <point x="657" y="392"/>
      <point x="616" y="368"/>
      <point x="570" y="368" type="curve" smooth="yes"/>
      <point x="474" y="368"/>
      <point x="415" y="452"/>
      <point x="415" y="590" type="curve" smooth="yes"/>
      <point x="415" y="718"/>
      <point x="480" y="811"/>
      <point x="569" y="811" type="curve" smooth="yes"/>
      <point x="612" y="811"/>
      <point x="650" y="795"/>
      <point x="681" y="763" type="curve" smooth="yes"/>
      <point x="691" y="753"/>
      <point x="700" y="752"/>
      <point x="711" y="762" type="curve" smooth="yes"/>
      <point x="724" y="773"/>
      <point x="727" y="781"/>
      <point x="719" y="791" type="curve" smooth="yes"/>
      <point x="680" y="841"/>
      <point x="629" y="867"/>
      <point x="569" y="867" type="curve" smooth="yes"/>
      <point x="444" y="867"/>
      <point x="353" y="751"/>
      <point x="353" y="590" type="curve" smooth="yes"/>
      <point x="353" y="417"/>
      <point x="434" y="311"/>
    </contour>
  </outline>
</glyph>
<glyph name="ordfeminine" format="2">
  <advance width="480"/>
  <unicode hex="00AA"/>
  <outline>
    <contour>
      <point x="195" y="1111" type="curve" smooth="yes"/>
      <point x="241" y="1111"/>
      <point x="281" y="1129"/>
      <point x="314" y="1176" type="curve"/>
      <point x="314" y="1174"/>
      <point x="315" y="1169"/>
      <point x="315" y="1170" type="curve" smooth="yes"/>
      <point x="323" y="1134"/>
      <point x="344" y="1111"/>
      <point x="394" y="1111" type="curve" smooth="yes"/>
      <point x="425" y="1111"/>
      <point x="460" y="1126"/>
      <point x="476" y="1149" type="curve" smooth="yes"/>
      <point x="483" y="1158"/>
      <point x="483" y="1174"/>
      <point x="471" y="1185" type="curve" smooth="yes"/>
      <point x="463" y="1195"/>
      <point x="448" y="1198"/>
      <point x="443" y="1194" type="curve" smooth="yes"/>
      <point x="428" y="1184"/>
      <point x="426" y="1180"/>
      <point x="413" y="1180" type="curve" smooth="yes"/>
      <point x="403" y="1180"/>
      <point x="393" y="1185"/>
      <point x="393" y="1201" type="curve" smooth="yes"/>
      <point x="393" y="1498" type="line" smooth="yes"/>
      <point x="393" y="1514"/>
      <point x="379" y="1521"/>
      <point x="354" y="1521" type="curve" smooth="yes"/>
      <point x="328" y="1521"/>
      <point x="315" y="1513"/>
      <point x="314" y="1496" type="curve" smooth="yes"/>
      <point x="314" y="1496" type="line"/>
      <point x="285" y="1513"/>
      <point x="245" y="1525"/>
      <point x="215" y="1525" type="curve" smooth="yes"/>
      <point x="110" y="1525"/>
      <point x="45" y="1441"/>
      <point x="45" y="1305" type="curve" smooth="yes"/>
      <point x="45" y="1173"/>
      <point x="106" y="1111"/>
    </contour>
    <contour>
      <point x="125" y="1308" type="curve" smooth="yes"/>
      <point x="125" y="1408"/>
      <point x="166" y="1453"/>
      <point x="225" y="1453" type="curve" smooth="yes"/>
      <point x="254" y="1453"/>
      <point x="283" y="1449"/>
      <point x="314" y="1431" type="curve"/>
      <point x="314" y="1248" type="line"/>
      <point x="284" y="1204"/>
      <point x="248" y="1185"/>
      <point x="206" y="1185" type="curve" smooth="yes"/>
      <point x="151" y="1185"/>
      <point x="125" y="1229"/>
    </contour>
  </outline>
</glyph>
<glyph name="degree" format="2">
  <advance width="505"/>
  <unicode hex="00B0"/>
  <outline>
    <contour>
      <point x="252" y="845" type="curve" smooth="yes"/>
      <point x="355" y="845"/>
      <point x="429" y="923"/>
      <point x="429" y="1030" type="curve" smooth="yes"/>
      <point x="429" y="1136"/>
      <point x="355" y="1212"/>
      <point x="252" y="1212" type="curve" smooth="yes"/>
      <point x="150" y="1212"/>
      <point x="76" y="1136"/>
      <point x="76" y="1030" type="curve" smooth="yes"/>
      <point x="76" y="923"/>
      <point x="150" y="845"/>
    </contour>
    <contour>
      <point x="252" y="903" type="curve" smooth="yes"/>
      <point x="186" y="903"/>
      <point x="140" y="949"/>
      <point x="140" y="1030" type="curve" smooth="yes"/>
      <point x="140" y="1109"/>
      <point x="186" y="1154"/>
      <point x="252" y="1154" type="curve" smooth="yes"/>
      <point x="318" y="1154"/>
      <point x="365" y="1109"/>
      <point x="365" y="1030" type="curve" smooth="yes"/>
      <point x="365" y="949"/>
      <point x="318" y="903"/>
    </contour>
  </outline>
</glyph>
<glyph name="plusminus" format="2">
	<unicode hex="00B1"/>
	<advance width="610"/>
	<outline>
		<contour>
			<point x="305" y="174" type="curve" smooth="yes"/>
			<point x="328" y="174"/>
			<point x="339" y="181"/>
			<point x="339" y="195" type="curve" smooth="yes"/>
			<point x="339" y="563" type="line" smooth="yes"/>
			<point x="339" y="577"/>
			<point x="328" y="584"/>
			<point x="305" y="584" type="curve" smooth="yes"/>
			<point x="282" y="584"/>
			<point x="271" y="577"/>
			<point x="271" y="563" type="curve" smooth="yes"/>
			<point x="271" y="195" type="line" smooth="yes"/>
			<point x="271" y="181"/>
			<point x="282" y="174"/>
		</contour>
		<component base="minus" yOffset="-252"/>
		<component base="minus" yOffset="30"/>
	</outline>
</glyph>
<glyph name="ordmasculine" format="2">
  <advance width="363"/>
  <unicode hex="00BA"/>
  <outline>
    <contour>
      <point x="182" y="888" type="curve" smooth="yes"/>
      <point x="264" y="888"/>
      <point x="327" y="959"/>
      <point x="327" y="1054" type="curve" smooth="yes"/>
      <point x="327" y="1149"/>
      <point x="265" y="1220"/>
      <point x="182" y="1220" type="curve" smooth="yes"/>
      <point x="97" y="1220"/>
      <point x="36" y="1149"/>
      <point x="36" y="1054" type="curve" smooth="yes"/>
      <point x="36" y="959"/>
      <point x="99" y="888"/>
    </contour>
    <contour>
      <point x="182" y="947" type="curve" smooth="yes"/>
      <point x="132" y="947"/>
      <point x="101" y="987"/>
      <point x="101" y="1054" type="curve" smooth="yes"/>
      <point x="101" y="1121"/>
      <point x="132" y="1161"/>
      <point x="182" y="1161" type="curve" smooth="yes"/>
      <point x="232" y="1161"/>
      <point x="262" y="1121"/>
      <point x="262" y="1054" type="curve" smooth="yes"/>
      <point x="262" y="987"/>
      <point x="232" y="947"/>
    </contour>
  </outline>
</glyph>
<glyph name="germandbls" format="2">
  <advance width="560"/>
  <unicode hex="00DF"/>
  <outline>
    <contour>
      <point x="510" y="202" type="curve" smooth="yes"/>
      <point x="510" y="312"/>
      <point x="447" y="393"/>
      <point x="291" y="396" type="curve"/>
      <point x="291" y="384" type="line"/>
      <point x="460" y="384"/>
      <point x="547" y="580"/>
      <point x="547" y="891" type="curve" smooth="yes"/>
      <point x="547" y="1094"/>
      <point x="480" y="1212"/>
      <point x="317" y="1212" type="curve" smooth="yes"/>
      <point x="182" y="1212"/>
      <point x="100" y="1111"/>
      <point x="100" y="946" type="curve" smooth="yes"/>
      <point x="100" y="-791" type="line" smooth="yes"/>
      <point x="100" y="-805"/>
      <point x="111" y="-812"/>
      <point x="134" y="-812" type="curve" smooth="yes"/>
      <point x="157" y="-812"/>
      <point x="169" y="-805"/>
      <point x="169" y="-791" type="curve" smooth="yes"/>
      <point x="169" y="946" type="line" smooth="yes"/>
      <point x="169" y="1072"/>
      <point x="225" y="1148"/>
      <point x="317" y="1148" type="curve" smooth="yes"/>
      <point x="438" y="1148"/>
      <point x="480" y="1055"/>
      <point x="480" y="892" type="curve" smooth="yes"/>
      <point x="480" y="601"/>
      <point x="402" y="418"/>
      <point x="274" y="418" type="curve" smooth="yes"/>
      <point x="263" y="418" type="line" smooth="yes"/>
      <point x="247" y="418"/>
      <point x="241" y="410"/>
      <point x="241" y="386" type="curve" smooth="yes"/>
      <point x="241" y="362"/>
      <point x="247" y="354"/>
      <point x="263" y="354" type="curve" smooth="yes"/>
      <point x="271" y="354" type="line" smooth="yes"/>
      <point x="395" y="354"/>
      <point x="440" y="292"/>
      <point x="440" y="202" type="curve" smooth="yes"/>
      <point x="440" y="107"/>
      <point x="390" y="49"/>
      <point x="309" y="49" type="curve" smooth="yes"/>
      <point x="275" y="49"/>
      <point x="254" y="58"/>
      <point x="240" y="64" type="curve" smooth="yes"/>
      <point x="226" y="70"/>
      <point x="215" y="66"/>
      <point x="206" y="47" type="curve" smooth="yes"/>
      <point x="199" y="31"/>
      <point x="201" y="18"/>
      <point x="212" y="11" type="curve" smooth="yes"/>
      <point x="232" y="-2"/>
      <point x="264" y="-15"/>
      <point x="309" y="-15" type="curve" smooth="yes"/>
      <point x="434" y="-15"/>
      <point x="510" y="67"/>
    </contour>
  </outline>
</glyph>
<glyph name="ae" format="2">
  <advance width="893"/>
  <unicode hex="00E6"/>
  <anchor x="506" y="500" name="top"/>
  <outline>
    <contour>
      <point x="63" y="214" type="curve" smooth="yes"/>
      <point x="63" y="66"/>
      <point x="129" y="-17"/>
      <point x="239" y="-17" type="curve" smooth="yes"/>
      <point x="366" y="-17"/>
      <point x="448" y="86"/>
      <point x="519" y="368" type="curve"/>
      <point x="453" y="378" type="line"/>
      <point x="388" y="143"/>
      <point x="326" y="63"/>
      <point x="245" y="63" type="curve" smooth="yes"/>
      <point x="186" y="63"/>
      <point x="151" y="111"/>
      <point x="151" y="218" type="curve" smooth="yes"/>
      <point x="151" y="345"/>
      <point x="228" y="439"/>
      <point x="343" y="439" type="curve" smooth="yes"/>
      <point x="411" y="439"/>
      <point x="456" y="420"/>
      <point x="518" y="393" type="curve"/>
      <point x="483" y="461" type="line"/>
      <point x="459" y="406"/>
      <point x="433" y="330"/>
      <point x="433" y="229" type="curve" smooth="yes"/>
      <point x="433" y="86"/>
      <point x="520" y="-19"/>
      <point x="660" y="-19" type="curve" smooth="yes"/>
      <point x="735" y="-19"/>
      <point x="800" y="8"/>
      <point x="858" y="84" type="curve" smooth="yes"/>
      <point x="870" y="101"/>
      <point x="866" y="118"/>
      <point x="848" y="133" type="curve" smooth="yes"/>
      <point x="829" y="148"/>
      <point x="813" y="150"/>
      <point x="794" y="129" type="curve" smooth="yes"/>
      <point x="753" y="84"/>
      <point x="723" y="61"/>
      <point x="663" y="61" type="curve" smooth="yes"/>
      <point x="574" y="61"/>
      <point x="519" y="134"/>
      <point x="519" y="238" type="curve" smooth="yes"/>
      <point x="519" y="315"/>
      <point x="540" y="391"/>
      <point x="575" y="466" type="curve"/>
      <point x="500" y="496"/>
      <point x="438" y="519"/>
      <point x="346" y="519" type="curve" smooth="yes"/>
      <point x="165" y="519"/>
      <point x="63" y="376"/>
    </contour>
    <contour>
      <point x="846" y="386" type="curve" smooth="yes"/>
      <point x="846" y="475"/>
      <point x="780" y="519"/>
      <point x="684" y="519" type="curve" smooth="yes"/>
      <point x="606" y="519"/>
      <point x="561" y="500"/>
      <point x="509" y="468" type="curve"/>
      <point x="530" y="391" type="line"/>
      <point x="573" y="423"/>
      <point x="624" y="439"/>
      <point x="679" y="439" type="curve" smooth="yes"/>
      <point x="726" y="439"/>
      <point x="758" y="421"/>
      <point x="758" y="379" type="curve" smooth="yes"/>
      <point x="758" y="299"/>
      <point x="624" y="260"/>
      <point x="488" y="260" type="curve"/>
      <point x="488" y="189" type="line"/>
      <point x="695" y="189"/>
      <point x="846" y="246"/>
    </contour>
  </outline>
</glyph>
<glyph name="eth" format="2">
  <advance width="482"/>
  <unicode hex="00F0"/>
  <outline>
    <contour>
      <point x="235" y="-15" type="curve" smooth="yes"/>
      <point x="341" y="-15"/>
      <point x="431" y="72"/>
      <point x="431" y="277" type="curve" smooth="yes"/>
      <point x="431" y="687"/>
      <point x="343" y="1036"/>
      <point x="199" y="1199" type="curve" smooth="yes"/>
      <point x="188" y="1212"/>
      <point x="174" y="1211"/>
      <point x="160" y="1198" type="curve" smooth="yes"/>
      <point x="145" y="1184"/>
      <point x="144" y="1169"/>
      <point x="155" y="1157" type="curve" smooth="yes"/>
      <point x="282" y="1007"/>
      <point x="360" y="674"/>
      <point x="360" y="277" type="curve" smooth="yes"/>
      <point x="360" y="109"/>
      <point x="301" y="49"/>
      <point x="235" y="49" type="curve" smooth="yes"/>
      <point x="167" y="49"/>
      <point x="131" y="111"/>
      <point x="131" y="200" type="curve" smooth="yes"/>
      <point x="131" y="287"/>
      <point x="173" y="351"/>
      <point x="243" y="351" type="curve" smooth="yes"/>
      <point x="307" y="351"/>
      <point x="358" y="313"/>
      <point x="397" y="245" type="curve"/>
      <point x="408" y="303" type="line"/>
      <point x="368" y="377"/>
      <point x="312" y="415"/>
      <point x="243" y="415" type="curve" smooth="yes"/>
      <point x="136" y="415"/>
      <point x="60" y="326"/>
      <point x="60" y="200" type="curve" smooth="yes"/>
      <point x="60" y="72"/>
      <point x="120" y="-15"/>
    </contour>
    <contour>
      <point x="180" y="894" type="curve" smooth="yes"/>
      <point x="413" y="1023" type="line" smooth="yes"/>
      <point x="425" y="1029"/>
      <point x="427" y="1039"/>
      <point x="419" y="1054" type="curve" smooth="yes"/>
      <point x="411" y="1072"/>
      <point x="400" y="1075"/>
      <point x="386" y="1068" type="curve" smooth="yes"/>
      <point x="156" y="941" type="line" smooth="yes"/>
      <point x="142" y="934"/>
      <point x="139" y="924"/>
      <point x="147" y="909" type="curve" smooth="yes"/>
      <point x="156" y="892"/>
      <point x="167" y="887"/>
    </contour>
  </outline>
</glyph>
<glyph name="thorn" format="2">
	<unicode hex="00FE"/>
	<advance width="478"/>
	<outline>
		<contour>
			<point x="114" y="-812" type="curve" smooth="yes"/>
			<point x="137" y="-812"/>
			<point x="149" y="-805"/>
			<point x="149" y="-791" type="curve" smooth="yes"/>
			<point x="149" y="11" type="line"/>
			<point x="176" y="-5"/>
			<point x="209" y="-14"/>
			<point x="242" y="-14" type="curve" smooth="yes"/>
			<point x="361" y="-14"/>
			<point x="428" y="74"/>
			<point x="428" y="213" type="curve" smooth="yes"/>
			<point x="428" y="349"/>
			<point x="364" y="415"/>
			<point x="272" y="415" type="curve" smooth="yes"/>
			<point x="232" y="415"/>
			<point x="186" y="402"/>
			<point x="149" y="346" type="curve"/>
			<point x="149" y="1191" type="line" smooth="yes"/>
			<point x="149" y="1205"/>
			<point x="137" y="1212"/>
			<point x="114" y="1212" type="curve" smooth="yes"/>
			<point x="91" y="1212"/>
			<point x="80" y="1205"/>
			<point x="80" y="1191" type="curve" smooth="yes"/>
			<point x="80" y="-791" type="line" smooth="yes"/>
			<point x="80" y="-805"/>
			<point x="91" y="-812"/>
		</contour>
		<contour>
			<point x="149" y="76" type="curve"/>
			<point x="149" y="274" type="line"/>
			<point x="179" y="329"/>
			<point x="219" y="351"/>
			<point x="262" y="351" type="curve" smooth="yes"/>
			<point x="326" y="351"/>
			<point x="357" y="298"/>
			<point x="357" y="210" type="curve" smooth="yes"/>
			<point x="357" y="102"/>
			<point x="311" y="49"/>
			<point x="242" y="49" type="curve" smooth="yes"/>
			<point x="211" y="49"/>
			<point x="181" y="57"/>
		</contour>
	</outline>
</glyph>
<glyph name="idotless" format="2">
  <advance width="244"/>
  <unicode hex="0131"/>
  <anchor x="158" y="0" name="bottom"/>
  <anchor x="202" y="0" name="ogonek"/>
  <anchor x="104" y="400" name="top"/>
  <outline>
    <contour>
      <point x="154" y="-14" type="curve" smooth="yes"/>
      <point x="185" y="-14"/>
      <point x="219" y="3"/>
      <point x="237" y="28" type="curve" smooth="yes"/>
      <point x="243" y="37"/>
      <point x="240" y="46"/>
      <point x="234" y="54" type="curve" smooth="yes"/>
      <point x="225" y="65"/>
      <point x="215" y="72"/>
      <point x="208" y="67" type="curve" smooth="yes"/>
      <point x="195" y="57"/>
      <point x="186" y="46"/>
      <point x="169" y="46" type="curve" smooth="yes"/>
      <point x="154" y="46"/>
      <point x="144" y="55"/>
      <point x="144" y="77" type="curve" smooth="yes"/>
      <point x="144" y="391" type="line" smooth="yes"/>
      <point x="144" y="405"/>
      <point x="132" y="412"/>
      <point x="109" y="412" type="curve" smooth="yes"/>
      <point x="86" y="412"/>
      <point x="75" y="405"/>
      <point x="75" y="391" type="curve" smooth="yes"/>
      <point x="75" y="69" type="line" smooth="yes"/>
      <point x="75" y="17"/>
      <point x="98" y="-14"/>
    </contour>
  </outline>
</glyph>
<glyph name="Eng" format="2">
  <advance width="1100"/>
  <unicode hex="014A"/>
  <outline>
    <contour>
      <point x="927" y="-167" type="curve" smooth="yes"/>
      <point x="927" y="1190" type="line" smooth="yes"/>
      <point x="927" y="1205"/>
      <point x="915" y="1212"/>
      <point x="892" y="1212" type="curve" smooth="yes"/>
      <point x="869" y="1212"/>
      <point x="857" y="1205"/>
      <point x="857" y="1190" type="curve" smooth="yes"/>
      <point x="857" y="147" type="line"/>
      <point x="248" y="1190" type="line" smooth="yes"/>
      <point x="239" y="1205"/>
      <point x="227" y="1212"/>
      <point x="208" y="1212" type="curve" smooth="yes"/>
      <point x="185" y="1212"/>
      <point x="173" y="1205"/>
      <point x="173" y="1190" type="curve" smooth="yes"/>
      <point x="173" y="11" type="line" smooth="yes"/>
      <point x="173" y="-4"/>
      <point x="185" y="-11"/>
      <point x="208" y="-11" type="curve" smooth="yes"/>
      <point x="231" y="-11"/>
      <point x="243" y="-4"/>
      <point x="243" y="11" type="curve" smooth="yes"/>
      <point x="243" y="1061" type="line"/>
      <point x="858" y="9" type="line"/>
      <point x="858" y="-168" type="line" smooth="yes"/>
      <point x="858" y="-241"/>
      <point x="844" y="-289"/>
      <point x="783" y="-289" type="curve" smooth="yes"/>
      <point x="744" y="-289"/>
      <point x="723" y="-264"/>
      <point x="703" y="-230" type="curve" smooth="yes"/>
      <point x="693" y="-213"/>
      <point x="681" y="-209"/>
      <point x="662" y="-220" type="curve" smooth="yes"/>
      <point x="643" y="-231"/>
      <point x="640" y="-243"/>
      <point x="646" y="-260" type="curve" smooth="yes"/>
      <point x="667" y="-315"/>
      <point x="718" y="-354"/>
      <point x="781" y="-354" type="curve" smooth="yes"/>
      <point x="875" y="-354"/>
      <point x="927" y="-288"/>
    </contour>
  </outline>
</glyph>
<glyph name="OE" format="2">
	<unicode hex="0152"/>
	<advance width="1072"/>
	<outline>
		<contour>
			<point x="391" y="-15" type="curve" smooth="yes"/>
			<point x="565" y="-15"/>
			<point x="672" y="127"/>
			<point x="672" y="349" type="curve" smooth="yes"/>
			<point x="672" y="570"/>
			<point x="573" y="712"/>
			<point x="395" y="712" type="curve" smooth="yes"/>
			<point x="225" y="712"/>
			<point x="110" y="570"/>
			<point x="110" y="349" type="curve" smooth="yes"/>
			<point x="110" y="127"/>
			<point x="221" y="-15"/>
		</contour>
		<contour>
			<point x="391" y="15" type="curve" smooth="yes"/>
			<point x="240" y="15"/>
			<point x="143" y="145"/>
			<point x="143" y="349" type="curve" smooth="yes"/>
			<point x="143" y="553"/>
			<point x="244" y="682"/>
			<point x="395" y="682" type="curve" smooth="yes"/>
			<point x="550" y="682"/>
			<point x="647" y="553"/>
			<point x="647" y="349" type="curve" smooth="yes"/>
			<point x="647" y="145"/>
			<point x="542" y="15"/>
		</contour>
		<contour>
			<point x="662" y="0" type="curve" smooth="yes"/>
			<point x="1008" y="0" type="line" smooth="yes"/>
			<point x="1013" y="0"/>
			<point x="1017" y="4"/>
			<point x="1017" y="14" type="curve" smooth="yes"/>
			<point x="1017" y="24"/>
			<point x="1013" y="28"/>
			<point x="1008" y="28" type="curve" smooth="yes"/>
			<point x="677" y="28" type="line"/>
			<point x="677" y="356" type="line"/>
			<point x="958" y="356" type="line" smooth="yes"/>
			<point x="963" y="356"/>
			<point x="967" y="360"/>
			<point x="967" y="370" type="curve" smooth="yes"/>
			<point x="967" y="380"/>
			<point x="963" y="384"/>
			<point x="958" y="384" type="curve" smooth="yes"/>
			<point x="677" y="384" type="line"/>
			<point x="677" y="672" type="line"/>
			<point x="1008" y="672" type="line" smooth="yes"/>
			<point x="1013" y="672"/>
			<point x="1017" y="676"/>
			<point x="1017" y="686" type="curve" smooth="yes"/>
			<point x="1017" y="696"/>
			<point x="1013" y="700"/>
			<point x="1008" y="700" type="curve" smooth="yes"/>
			<point x="663" y="700" type="line" smooth="yes"/>
			<point x="652" y="700"/>
			<point x="647" y="697"/>
			<point x="647" y="688" type="curve" smooth="yes"/>
			<point x="647" y="12" type="line" smooth="yes"/>
			<point x="647" y="3"/>
			<point x="651" y="0"/>
		</contour>
	</outline>
	<anchor name="top" x="595" y="670"/>
</glyph>
<glyph name="oe" format="2">
  <advance width="901"/>
  <unicode hex="0153"/>
  <anchor x="481" y="500" name="top"/>
  <outline>
    <contour>
      <point x="295" y="-19" type="curve" smooth="yes"/>
      <point x="421" y="-19"/>
      <point x="514" y="94"/>
      <point x="514" y="250" type="curve" smooth="yes"/>
      <point x="514" y="406"/>
      <point x="421" y="519"/>
      <point x="295" y="519" type="curve" smooth="yes"/>
      <point x="160" y="519"/>
      <point x="63" y="406"/>
      <point x="63" y="250" type="curve" smooth="yes"/>
      <point x="63" y="94"/>
      <point x="160" y="-19"/>
    </contour>
    <contour>
      <point x="295" y="61" type="curve" smooth="yes"/>
      <point x="206" y="61"/>
      <point x="151" y="134"/>
      <point x="151" y="250" type="curve" smooth="yes"/>
      <point x="151" y="366"/>
      <point x="206" y="439"/>
      <point x="295" y="439" type="curve" smooth="yes"/>
      <point x="384" y="439"/>
      <point x="438" y="366"/>
      <point x="438" y="250" type="curve" smooth="yes"/>
      <point x="438" y="134"/>
      <point x="384" y="61"/>
    </contour>
    <contour>
      <point x="668" y="-19" type="curve" smooth="yes"/>
      <point x="733" y="-19"/>
      <point x="814" y="8"/>
      <point x="865" y="84" type="curve" smooth="yes"/>
      <point x="878" y="101"/>
      <point x="874" y="118"/>
      <point x="855" y="133" type="curve" smooth="yes"/>
      <point x="836" y="148"/>
      <point x="821" y="149"/>
      <point x="801" y="129" type="curve" smooth="yes"/>
      <point x="756" y="84"/>
      <point x="730" y="61"/>
      <point x="670" y="61" type="curve" smooth="yes"/>
      <point x="581" y="61"/>
      <point x="526" y="134"/>
      <point x="526" y="244" type="curve" smooth="yes"/>
      <point x="526" y="366"/>
      <point x="599" y="439"/>
      <point x="686" y="439" type="curve" smooth="yes"/>
      <point x="734" y="439"/>
      <point x="765" y="421"/>
      <point x="765" y="379" type="curve" smooth="yes"/>
      <point x="765" y="299"/>
      <point x="631" y="260"/>
      <point x="520" y="261" type="curve"/>
      <point x="520" y="191" type="line"/>
      <point x="711" y="193"/>
      <point x="854" y="258"/>
      <point x="854" y="386" type="curve" smooth="yes"/>
      <point x="854" y="475"/>
      <point x="788" y="519"/>
      <point x="691" y="519" type="curve" smooth="yes"/>
      <point x="551" y="519"/>
      <point x="450" y="406"/>
      <point x="450" y="228" type="curve" smooth="yes"/>
      <point x="450" y="94"/>
      <point x="519" y="-19"/>
    </contour>
  </outline>
</glyph>
<glyph name="ohorn" format="2">
  <advance width="589"/>
  <unicode hex="01A1"/>
  <anchor x="295" y="0" name="bottom"/>
  <anchor x="295" y="250" name="center"/>
  <anchor x="385" y="0" name="ogonek"/>
  <anchor x="295" y="500" name="top"/>
  <outline>
    <contour>
      <point x="295" y="-19" type="curve" smooth="yes"/>
      <point x="429" y="-19"/>
      <point x="526" y="94"/>
      <point x="526" y="250" type="curve" smooth="yes"/>
      <point x="526" y="334"/>
      <point x="498" y="406"/>
      <point x="451" y="454" type="curve"/>
      <point x="597" y="490"/>
      <point x="614" y="597"/>
      <point x="545" y="695" type="curve" smooth="yes"/>
      <point x="514" y="739"/>
      <point x="440" y="694"/>
      <point x="470" y="651" type="curve" smooth="yes"/>
      <point x="523" y="576"/>
      <point x="508" y="512"/>
      <point x="370" y="506" type="curve"/>
      <point x="347" y="515"/>
      <point x="322" y="519"/>
      <point x="295" y="519" type="curve" smooth="yes"/>
      <point x="160" y="519"/>
      <point x="63" y="406"/>
      <point x="63" y="250" type="curve" smooth="yes"/>
      <point x="63" y="94"/>
      <point x="160" y="-19"/>
    </contour>
    <contour>
      <point x="295" y="61" type="curve" smooth="yes"/>
      <point x="206" y="61"/>
      <point x="151" y="134"/>
      <point x="151" y="250" type="curve" smooth="yes"/>
      <point x="151" y="366"/>
      <point x="206" y="439"/>
      <point x="295" y="439" type="curve" smooth="yes"/>
      <point x="384" y="439"/>
      <point x="438" y="366"/>
      <point x="438" y="250" type="curve" smooth="yes"/>
      <point x="438" y="134"/>
      <point x="384" y="61"/>
    </contour>
  </outline>
</glyph>
<glyph name="uhorn" format="2">
  <advance width="645"/>
  <unicode hex="01B0"/>
  <anchor x="303" y="0" name="bottom"/>
  <anchor x="581" y="13" name="ogonek"/>
  <anchor x="303" y="500" name="top"/>
  <outline>
    <contour>
      <point x="269" y="-17" type="curve" smooth="yes"/>
      <point x="374" y="-17"/>
      <point x="445" y="56"/>
      <point x="471" y="166" type="curve"/>
      <point x="446" y="209" type="line"/>
      <point x="423" y="126"/>
      <point x="366" y="59"/>
      <point x="280" y="59" type="curve" smooth="yes"/>
      <point x="213" y="59"/>
      <point x="180" y="95"/>
      <point x="180" y="166" type="curve" smooth="yes"/>
      <point x="180" y="489" type="line" smooth="yes"/>
      <point x="180" y="506"/>
      <point x="165" y="515"/>
      <point x="136" y="515" type="curve" smooth="yes"/>
      <point x="108" y="515"/>
      <point x="94" y="506"/>
      <point x="94" y="489" type="curve" smooth="yes"/>
      <point x="94" y="166" type="line" smooth="yes"/>
      <point x="94" y="44"/>
      <point x="153" y="-17"/>
    </contour>
    <contour>
      <point x="536" y="-19" type="curve" smooth="yes"/>
      <point x="575" y="-19"/>
      <point x="615" y="3"/>
      <point x="636" y="33" type="curve" smooth="yes"/>
      <point x="645" y="45"/>
      <point x="641" y="59"/>
      <point x="634" y="69" type="curve" smooth="yes"/>
      <point x="623" y="84"/>
      <point x="609" y="88"/>
      <point x="599" y="80" type="curve" smooth="yes"/>
      <point x="584" y="69"/>
      <point x="571" y="56"/>
      <point x="553" y="56" type="curve" smooth="yes"/>
      <point x="534" y="56"/>
      <point x="521" y="68"/>
      <point x="521" y="96" type="curve" smooth="yes"/>
      <point x="521" y="456" type="line"/>
      <point x="699" y="481"/>
      <point x="724" y="598"/>
      <point x="650" y="703" type="curve" smooth="yes"/>
      <point x="619" y="747"/>
      <point x="545" y="702"/>
      <point x="575" y="659" type="curve" smooth="yes"/>
      <point x="629" y="583"/>
      <point x="613" y="519"/>
      <point x="478" y="515" type="curve"/>
      <point x="449" y="515"/>
      <point x="435" y="506"/>
      <point x="435" y="489" type="curve" smooth="yes"/>
      <point x="435" y="93" type="line" smooth="yes"/>
      <point x="435" y="28"/>
      <point x="466" y="-19"/>
    </contour>
  </outline>
</glyph>
<glyph name="jdotless" format="2">
  <advance width="214"/>
  <unicode hex="0237"/>
  <anchor x="104" y="400" name="top"/>
  <outline>
    <contour>
      <point x="39" y="-815" type="curve" smooth="yes"/>
      <point x="93" y="-815"/>
      <point x="140" y="-787"/>
      <point x="140" y="-698" type="curve" smooth="yes"/>
      <point x="140" y="391" type="line" smooth="yes"/>
      <point x="140" y="405"/>
      <point x="128" y="412"/>
      <point x="105" y="412" type="curve" smooth="yes"/>
      <point x="82" y="412"/>
      <point x="71" y="405"/>
      <point x="71" y="391" type="curve" smooth="yes"/>
      <point x="71" y="-701" type="line" smooth="yes"/>
      <point x="71" y="-732"/>
      <point x="65" y="-755"/>
      <point x="39" y="-755" type="curve" smooth="yes"/>
      <point x="20" y="-755"/>
      <point x="13" y="-749"/>
      <point x="1" y="-729" type="curve" smooth="yes"/>
      <point x="-8" y="-714"/>
      <point x="-20" y="-711"/>
      <point x="-40" y="-721" type="curve" smooth="yes"/>
      <point x="-54" y="-728"/>
      <point x="-64" y="-740"/>
      <point x="-57" y="-756" type="curve" smooth="yes"/>
      <point x="-41" y="-789"/>
      <point x="-10" y="-815"/>
    </contour>
  </outline>
</glyph>
<glyph name="acutecomb" format="2">
  <unicode hex="0301"/>
  <anchor x="0" y="500" name="_top"/>
  <anchor x="0" y="818" name="top"/>
  <outline>
    <contour>
      <point x="-31" y="610" type="curve" smooth="yes"/>
      <point x="-25" y="610"/>
      <point x="-20" y="614"/>
      <point x="-12" y="623" type="curve" smooth="yes"/>
      <point x="111" y="770" type="line" smooth="yes"/>
      <point x="120" y="781"/>
      <point x="123" y="785"/>
      <point x="123" y="794" type="curve" smooth="yes"/>
      <point x="123" y="811"/>
      <point x="85" y="839"/>
      <point x="65" y="839" type="curve" smooth="yes"/>
      <point x="54" y="839"/>
      <point x="48" y="834"/>
      <point x="41" y="824" type="curve" smooth="yes"/>
      <point x="-66" y="660" type="line" smooth="yes"/>
      <point x="-72" y="651"/>
      <point x="-72" y="648"/>
      <point x="-72" y="644" type="curve" smooth="yes"/>
      <point x="-72" y="630"/>
      <point x="-46" y="610"/>
    </contour>
  </outline>
</glyph>
<glyph name="tildecomb" format="2">
  <unicode hex="0303"/>
  <anchor x="0" y="400" name="_top"/>
  <anchor x="0" y="604" name="top"/>
  <outline>
    <contour>
      <point x="-121" y="512" type="curve" smooth="yes"/>
      <point x="-103" y="512"/>
      <point x="-93" y="519"/>
      <point x="-92" y="533" type="curve" smooth="yes"/>
      <point x="-90" y="561"/>
      <point x="-81" y="574"/>
      <point x="-68" y="574" type="curve" smooth="yes"/>
      <point x="-37" y="574"/>
      <point x="-3" y="513"/>
      <point x="58" y="513" type="curve" smooth="yes"/>
      <point x="119" y="513"/>
      <point x="143" y="555"/>
      <point x="144" y="620" type="curve" smooth="yes"/>
      <point x="144" y="634"/>
      <point x="136" y="642"/>
      <point x="115" y="642" type="curve" smooth="yes"/>
      <point x="97" y="642"/>
      <point x="89" y="636"/>
      <point x="88" y="625" type="curve" smooth="yes"/>
      <point x="86" y="597"/>
      <point x="77" y="581"/>
      <point x="63" y="581" type="curve" smooth="yes"/>
      <point x="29" y="581"/>
      <point x="0" y="641"/>
      <point x="-64" y="641" type="curve" smooth="yes"/>
      <point x="-113" y="641"/>
      <point x="-147" y="610"/>
      <point x="-148" y="533" type="curve" smooth="yes"/>
      <point x="-148" y="518"/>
      <point x="-138" y="512"/>
    </contour>
  </outline>
</glyph>
<glyph name="brevecomb" format="2">
  <unicode hex="0306"/>
  <guideline x="-19" y="559" angle="0"/>
  <guideline x="-48" y="504" angle="0"/>
  <anchor x="0" y="500" name="_top"/>
  <anchor x="0" y="818" name="top"/>
  <outline>
    <contour>
      <point x="0" y="618" type="curve" smooth="yes"/>
      <point x="100" y="618"/>
      <point x="171" y="695"/>
      <point x="176" y="809" type="curve" smooth="yes"/>
      <point x="178" y="825"/>
      <point x="166" y="838"/>
      <point x="141" y="838" type="curve" smooth="yes"/>
      <point x="116" y="838"/>
      <point x="110" y="828"/>
      <point x="106" y="809" type="curve" smooth="yes"/>
      <point x="94" y="749"/>
      <point x="63" y="706"/>
      <point x="0" y="706" type="curve" smooth="yes"/>
      <point x="-62" y="706"/>
      <point x="-94" y="749"/>
      <point x="-106" y="809" type="curve" smooth="yes"/>
      <point x="-110" y="826"/>
      <point x="-117" y="838"/>
      <point x="-142" y="838" type="curve" smooth="yes"/>
      <point x="-167" y="838"/>
      <point x="-177" y="825"/>
      <point x="-176" y="809" type="curve" smooth="yes"/>
      <point x="-171" y="689"/>
      <point x="-105" y="618"/>
    </contour>
  </outline>
</glyph>
<glyph name="dieresiscomb" format="2">
  <unicode hex="0308"/>
  <anchor x="0" y="400" name="_top"/>
  <anchor x="0" y="609" name="top"/>
  <outline>
    <contour>
      <point x="-95" y="535" type="curve" smooth="yes"/>
      <point x="-66" y="535"/>
      <point x="-50" y="551"/>
      <point x="-51" y="585" type="curve" smooth="yes"/>
      <point x="-51" y="619"/>
      <point x="-66" y="636"/>
      <point x="-95" y="636" type="curve" smooth="yes"/>
      <point x="-125" y="636"/>
      <point x="-140" y="619"/>
      <point x="-140" y="585" type="curve" smooth="yes"/>
      <point x="-140" y="551"/>
      <point x="-125" y="535"/>
    </contour>
    <contour>
      <point x="96" y="535" type="curve" smooth="yes"/>
      <point x="125" y="535"/>
      <point x="141" y="551"/>
      <point x="140" y="585" type="curve" smooth="yes"/>
      <point x="140" y="619"/>
      <point x="125" y="636"/>
      <point x="96" y="636" type="curve" smooth="yes"/>
      <point x="66" y="636"/>
      <point x="51" y="619"/>
      <point x="51" y="585" type="curve" smooth="yes"/>
      <point x="51" y="551"/>
      <point x="66" y="535"/>
    </contour>
  </outline>
</glyph>
<glyph name="hookabovecomb" format="2">
	<unicode hex="0309"/>
	<outline>
		<contour>
			<point x="8" y="688" type="curve" smooth="yes"/>
			<point x="-26" y="688"/>
			<point x="-56" y="677"/>
			<point x="-76" y="662" type="curve" smooth="yes"/>
			<point x="-86" y="654"/>
			<point x="-87" y="642"/>
			<point x="-81" y="631" type="curve" smooth="yes"/>
			<point x="-72" y="615"/>
			<point x="-61" y="609"/>
			<point x="-47" y="618" type="curve" smooth="yes"/>
			<point x="-38" y="624"/>
			<point x="-19" y="630"/>
			<point x="-5" y="630" type="curve" smooth="yes"/>
			<point x="9" y="630"/>
			<point x="20" y="624"/>
			<point x="20" y="614" type="curve" smooth="yes"/>
			<point x="20" y="606"/>
			<point x="16" y="598"/>
			<point x="0" y="587" type="curve" smooth="yes"/>
			<point x="-20" y="573"/>
			<point x="-34" y="552"/>
			<point x="-24" y="524" type="curve" smooth="yes"/>
			<point x="-15" y="500" type="line" smooth="yes"/>
			<point x="-6" y="477"/>
			<point x="45" y="490"/>
			<point x="40" y="513" type="curve" smooth="yes"/>
			<point x="38" y="522" type="line" smooth="yes"/>
			<point x="36" y="532"/>
			<point x="40" y="540"/>
			<point x="54" y="551" type="curve" smooth="yes"/>
			<point x="82" y="572"/>
			<point x="95" y="590"/>
			<point x="95" y="619" type="curve" smooth="yes"/>
			<point x="95" y="660"/>
			<point x="61" y="688"/>
		</contour>
	</outline>
	<anchor name="_top" x="0" y="400"/>
	<anchor name="top" x="0" y="654"/>
</glyph>
<glyph name="hungarumlautcomb" format="2">
	<unicode hex="030B"/>
	<outline>
		<contour>
			<point x="-72" y="488" type="curve" smooth="yes"/>
			<point x="-66" y="488"/>
			<point x="-62" y="491"/>
			<point x="-56" y="500" type="curve" smooth="yes"/>
			<point x="21" y="622" type="line" smooth="yes"/>
			<point x="26" y="630"/>
			<point x="27" y="634"/>
			<point x="27" y="639" type="curve" smooth="yes"/>
			<point x="27" y="656"/>
			<point x="-4" y="671"/>
			<point x="-21" y="671" type="curve" smooth="yes"/>
			<point x="-33" y="671"/>
			<point x="-37" y="665"/>
			<point x="-41" y="656" type="curve" smooth="yes"/>
			<point x="-104" y="524" type="line" smooth="yes"/>
			<point x="-107" y="518"/>
			<point x="-107" y="515"/>
			<point x="-107" y="512" type="curve" smooth="yes"/>
			<point x="-107" y="498"/>
			<point x="-85" y="488"/>
		</contour>
		<contour>
			<point x="62" y="488" type="curve" smooth="yes"/>
			<point x="68" y="488"/>
			<point x="72" y="491"/>
			<point x="78" y="500" type="curve" smooth="yes"/>
			<point x="161" y="622" type="line" smooth="yes"/>
			<point x="166" y="630"/>
			<point x="167" y="634"/>
			<point x="167" y="639" type="curve" smooth="yes"/>
			<point x="167" y="656"/>
			<point x="136" y="671"/>
			<point x="119" y="671" type="curve" smooth="yes"/>
			<point x="107" y="671"/>
			<point x="104" y="665"/>
			<point x="99" y="656" type="curve" smooth="yes"/>
			<point x="30" y="524" type="line" smooth="yes"/>
			<point x="27" y="518"/>
			<point x="27" y="515"/>
			<point x="27" y="512" type="curve" smooth="yes"/>
			<point x="27" y="498"/>
			<point x="49" y="488"/>
		</contour>
	</outline>
	<anchor name="_top" x="0" y="400"/>
	<anchor name="top" x="52" y="654"/>
</glyph>
<glyph name="caroncomb" format="2">
	<unicode hex="030C"/>
	<outline>
		<contour>
			<point x="114" y="676" type="curve" smooth="yes"/>
			<point x="107" y="676"/>
			<point x="101" y="672"/>
			<point x="94" y="666" type="curve" smooth="yes"/>
			<point x="0" y="573" type="line"/>
			<point x="-94" y="666" type="line" smooth="yes"/>
			<point x="-101" y="672"/>
			<point x="-107" y="676"/>
			<point x="-114" y="676" type="curve" smooth="yes"/>
			<point x="-124" y="676"/>
			<point x="-142" y="660"/>
			<point x="-142" y="649" type="curve" smooth="yes"/>
			<point x="-142" y="646"/>
			<point x="-142" y="643"/>
			<point x="-137" y="636" type="curve" smooth="yes"/>
			<point x="-34" y="509" type="line" smooth="yes"/>
			<point x="-28" y="502"/>
			<point x="-20" y="493"/>
			<point x="0" y="493" type="curve" smooth="yes"/>
			<point x="21" y="493"/>
			<point x="29" y="502"/>
			<point x="35" y="509" type="curve" smooth="yes"/>
			<point x="137" y="636" type="line" smooth="yes"/>
			<point x="142" y="643"/>
			<point x="142" y="646"/>
			<point x="142" y="649" type="curve" smooth="yes"/>
			<point x="142" y="660"/>
			<point x="124" y="676"/>
		</contour>
	</outline>
	<anchor name="_top" x="0" y="400"/>
	<anchor name="top" x="0" y="654"/>
</glyph>
<glyph name="commaturnedabovecomb" format="2">
	<unicode hex="0312"/>
	<outline>
		<contour>
			<point x="41" y="676" type="curve" smooth="yes"/>
			<point x="24" y="682"/>
			<point x="15" y="680"/>
			<point x="4" y="663" type="curve" smooth="yes"/>
			<point x="-21" y="624"/>
			<point x="-39" y="571"/>
			<point x="-39" y="530" type="curve" smooth="yes"/>
			<point x="-39" y="510"/>
			<point x="-25" y="497"/>
			<point x="-1" y="497" type="curve" smooth="yes"/>
			<point x="19" y="497"/>
			<point x="30" y="504"/>
			<point x="30" y="522" type="curve" smooth="yes"/>
			<point x="30" y="570"/>
			<point x="32" y="598"/>
			<point x="51" y="647" type="curve" smooth="yes"/>
			<point x="57" y="663"/>
			<point x="54" y="671"/>
		</contour>
	</outline>
	<anchor name="_top" x="0" y="400"/>
	<anchor name="top" x="0" y="654"/>
</glyph>
<glyph name="dotbelowcomb" format="2">
	<unicode hex="0323"/>
	<outline>
		<contour>
			<point x="0" y="-188" type="curve" smooth="yes"/>
			<point x="29" y="-188"/>
			<point x="45" y="-172"/>
			<point x="44" y="-138" type="curve" smooth="yes"/>
			<point x="44" y="-104"/>
			<point x="29" y="-87"/>
			<point x="0" y="-87" type="curve" smooth="yes"/>
			<point x="-30" y="-87"/>
			<point x="-45" y="-104"/>
			<point x="-45" y="-138" type="curve" smooth="yes"/>
			<point x="-45" y="-172"/>
			<point x="-30" y="-188"/>
		</contour>
	</outline>
	<anchor name="_bottom" x="0" y="0"/>
	<anchor name="bottom" x="0" y="-159"/>
</glyph>
<glyph name="strokeshortcomb" format="2">
  <unicode hex="0335"/>
  <anchor x="0" y="274" name="_center"/>
  <outline>
    <contour>
      <point x="-122" y="245" type="curve" smooth="yes"/>
      <point x="111" y="245" type="line" smooth="yes"/>
      <point x="130" y="245"/>
      <point x="133" y="259"/>
      <point x="133" y="273" type="curve" smooth="yes"/>
      <point x="133" y="288"/>
      <point x="130" y="303"/>
      <point x="111" y="303" type="curve" smooth="yes"/>
      <point x="-122" y="303" type="line" smooth="yes"/>
      <point x="-141" y="303"/>
      <point x="-144" y="288"/>
      <point x="-144" y="273" type="curve" smooth="yes"/>
      <point x="-144" y="259"/>
      <point x="-141" y="245"/>
    </contour>
  </outline>
</glyph>
<glyph name="strokelongcomb" format="2">
  <unicode hex="0336"/>
  <anchor x="0" y="274" name="_center"/>
  <outline>
    <contour>
      <point x="-468" y="243" type="curve" smooth="yes"/>
      <point x="468" y="243" type="line" smooth="yes"/>
      <point x="487" y="243"/>
      <point x="490" y="254"/>
      <point x="490" y="273" type="curve" smooth="yes"/>
      <point x="490" y="293"/>
      <point x="487" y="305"/>
      <point x="468" y="305" type="curve" smooth="yes"/>
      <point x="-468" y="305" type="line" smooth="yes"/>
      <point x="-487" y="305"/>
      <point x="-490" y="293"/>
      <point x="-490" y="273" type="curve" smooth="yes"/>
      <point x="-490" y="254"/>
      <point x="-487" y="243"/>
    </contour>
  </outline>
</glyph>
<glyph name="slashshortcomb" format="2">
  <unicode hex="0337"/>
  <anchor x="0" y="343" name="_center"/>
  <outline>
    <contour>
      <point x="-106" y="251" type="curve" smooth="yes"/>
      <point x="166" y="388" type="line" smooth="yes"/>
      <point x="183" y="396"/>
      <point x="184" y="413"/>
      <point x="170" y="436" type="curve" smooth="yes"/>
      <point x="159" y="453"/>
      <point x="148" y="456"/>
      <point x="130" y="448" type="curve" smooth="yes"/>
      <point x="-142" y="314" type="line" smooth="yes"/>
      <point x="-161" y="305"/>
      <point x="-160" y="284"/>
      <point x="-151" y="268" type="curve" smooth="yes"/>
      <point x="-140" y="246"/>
      <point x="-125" y="241"/>
    </contour>
  </outline>
</glyph>
<glyph name="slashlongcomb" format="2">
  <unicode hex="0338"/>
  <anchor x="0" y="214" name="_center"/>
  <outline>
    <contour>
      <point x="-109" y="-38" type="curve" smooth="yes"/>
      <point x="157" y="430" type="line" smooth="yes"/>
      <point x="163" y="441"/>
      <point x="156" y="453"/>
      <point x="143" y="461" type="curve" smooth="yes"/>
      <point x="128" y="470"/>
      <point x="113" y="466"/>
      <point x="107" y="456" type="curve" smooth="yes"/>
      <point x="-157" y="-9" type="line" smooth="yes"/>
      <point x="-165" y="-24"/>
      <point x="-159" y="-36"/>
      <point x="-146" y="-43" type="curve" smooth="yes"/>
      <point x="-133" y="-50"/>
      <point x="-116" y="-50"/>
    </contour>
  </outline>
</glyph>
<glyph name="Germandbls" format="2">
  <advance width="1060"/>
  <unicode hex="1E9E"/>
  <outline>
    <contour>
      <point x="635" y="-15" type="curve" smooth="yes"/>
      <point x="833" y="-15"/>
      <point x="977" y="127"/>
      <point x="977" y="323" type="curve" smooth="yes"/>
      <point x="977" y="711"/>
      <point x="558" y="658"/>
      <point x="558" y="934" type="curve" smooth="yes"/>
      <point x="558" y="1062"/>
      <point x="648" y="1146"/>
      <point x="781" y="1146" type="curve" smooth="yes"/>
      <point x="797" y="1146"/>
      <point x="803" y="1154"/>
      <point x="803" y="1179" type="curve" smooth="yes"/>
      <point x="803" y="1204"/>
      <point x="797" y="1212"/>
      <point x="781" y="1212" type="curve" smooth="yes"/>
      <point x="745" y="1212" type="line" smooth="yes"/>
      <point x="316" y="1212"/>
      <point x="163" y="1068"/>
      <point x="163" y="726" type="curve" smooth="yes"/>
      <point x="163" y="11" type="line" smooth="yes"/>
      <point x="163" y="-4"/>
      <point x="175" y="-11"/>
      <point x="198" y="-11" type="curve" smooth="yes"/>
      <point x="221" y="-11"/>
      <point x="233" y="-4"/>
      <point x="233" y="11" type="curve" smooth="yes"/>
      <point x="233" y="728" type="line" smooth="yes"/>
      <point x="233" y="1031"/>
      <point x="341" y="1151"/>
      <point x="736" y="1151" type="curve"/>
      <point x="745" y="1182" type="line"/>
      <point x="603" y="1182"/>
      <point x="484" y="1075"/>
      <point x="484" y="922" type="curve" smooth="yes"/>
      <point x="484" y="610"/>
      <point x="902" y="654"/>
      <point x="902" y="323" type="curve" smooth="yes"/>
      <point x="902" y="166"/>
      <point x="790" y="53"/>
      <point x="635" y="53" type="curve" smooth="yes"/>
      <point x="562" y="53"/>
      <point x="503" y="70"/>
      <point x="432" y="104" type="curve" smooth="yes"/>
      <point x="414" y="112"/>
      <point x="401" y="106"/>
      <point x="392" y="88" type="curve" smooth="yes"/>
      <point x="382" y="67"/>
      <point x="385" y="51"/>
      <point x="402" y="43" type="curve" smooth="yes"/>
      <point x="483" y="2"/>
      <point x="553" y="-15"/>
    </contour>
  </outline>
</glyph>
<glyph name="emdash" format="2">
	<unicode hex="2014"/>
	<advance width="1000"/>
	<outline>
		<contour>
			<point x="70" y="241" type="curve" smooth="yes"/>
			<point x="930" y="241" type="line" smooth="yes"/>
			<point x="946" y="241"/>
			<point x="952" y="249"/>
			<point x="952" y="273" type="curve" smooth="yes"/>
			<point x="952" y="297"/>
			<point x="946" y="305"/>
			<point x="930" y="305" type="curve" smooth="yes"/>
			<point x="70" y="305" type="line" smooth="yes"/>
			<point x="54" y="305"/>
			<point x="48" y="297"/>
			<point x="48" y="273" type="curve" smooth="yes"/>
			<point x="48" y="249"/>
			<point x="54" y="241"/>
		</contour>
	</outline>
</glyph>
<glyph name="quoteleft" format="2">
	<unicode hex="2018"/>
	<advance width="145"/>
	<outline>
		<contour>
			<point x="74" y="978" type="curve" smooth="yes"/>
			<point x="97" y="978"/>
			<point x="112" y="988"/>
			<point x="112" y="1008" type="curve" smooth="yes"/>
			<point x="112" y="1103"/>
			<point x="111" y="1134"/>
			<point x="139" y="1191" type="curve" smooth="yes"/>
			<point x="144" y="1200"/>
			<point x="147" y="1207"/>
			<point x="147" y="1211" type="curve" smooth="yes"/>
			<point x="147" y="1225"/>
			<point x="131" y="1236"/>
			<point x="116" y="1236" type="curve" smooth="yes"/>
			<point x="105" y="1236"/>
			<point x="98" y="1229"/>
			<point x="93" y="1223" type="curve" smooth="yes"/>
			<point x="45" y="1165"/>
			<point x="35" y="1079"/>
			<point x="35" y="1010" type="curve" smooth="yes"/>
			<point x="35" y="990"/>
			<point x="50" y="978"/>
		</contour>
	</outline>
</glyph>
<glyph name="minute" format="2">
  <advance width="161"/>
  <unicode hex="2032"/>
  <outline>
    <contour>
      <point x="73" y="1223" type="curve" smooth="yes"/>
      <point x="92" y="1223"/>
      <point x="102" y="1232"/>
      <point x="106" y="1254" type="curve" smooth="yes"/>
      <point x="161" y="1503" type="line" smooth="yes"/>
      <point x="166" y="1526"/>
      <point x="150" y="1545"/>
      <point x="115" y="1545" type="curve" smooth="yes"/>
      <point x="80" y="1545"/>
      <point x="71" y="1526"/>
      <point x="69" y="1505" type="curve" smooth="yes"/>
      <point x="44" y="1254" type="line" smooth="yes"/>
      <point x="42" y="1238"/>
      <point x="47" y="1223"/>
    </contour>
  </outline>
</glyph>
<glyph name="guilsinglleft" format="2">
	<unicode hex="2039"/>
	<advance width="380"/>
	<outline>
		<contour>
			<point x="264" y="-11" type="curve" smooth="yes"/>
			<point x="293" y="-11"/>
			<point x="308" y="12"/>
			<point x="292" y="32" type="curve" smooth="yes"/>
			<point x="131" y="236" type="line"/>
			<point x="131" y="166" type="line"/>
			<point x="292" y="369" type="line" smooth="yes"/>
			<point x="308" y="389"/>
			<point x="293" y="412"/>
			<point x="264" y="412" type="curve" smooth="yes"/>
			<point x="248" y="412"/>
			<point x="234" y="407"/>
			<point x="221" y="390" type="curve" smooth="yes"/>
			<point x="94" y="231" type="line" smooth="yes"/>
			<point x="79" y="213"/>
			<point x="75" y="207"/>
			<point x="75" y="201" type="curve" smooth="yes"/>
			<point x="75" y="195"/>
			<point x="79" y="189"/>
			<point x="94" y="171" type="curve" smooth="yes"/>
			<point x="221" y="11" type="line" smooth="yes"/>
			<point x="234" y="-6"/>
			<point x="248" y="-11"/>
		</contour>
	</outline>
</glyph>
<glyph name="guilsinglright" format="2">
	<unicode hex="203A"/>
	<advance width="380"/>
	<outline>
		<contour>
			<point x="116" y="-11" type="curve" smooth="yes"/>
			<point x="132" y="-11"/>
			<point x="146" y="-6"/>
			<point x="159" y="11" type="curve" smooth="yes"/>
			<point x="286" y="171" type="line" smooth="yes"/>
			<point x="301" y="189"/>
			<point x="305" y="195"/>
			<point x="305" y="201" type="curve" smooth="yes"/>
			<point x="305" y="207"/>
			<point x="301" y="213"/>
			<point x="286" y="231" type="curve" smooth="yes"/>
			<point x="159" y="390" type="line" smooth="yes"/>
			<point x="146" y="407"/>
			<point x="132" y="412"/>
			<point x="116" y="412" type="curve" smooth="yes"/>
			<point x="87" y="412"/>
			<point x="72" y="389"/>
			<point x="88" y="369" type="curve" smooth="yes"/>
			<point x="249" y="166" type="line"/>
			<point x="249" y="236" type="line"/>
			<point x="88" y="32" type="line" smooth="yes"/>
			<point x="72" y="12"/>
			<point x="87" y="-11"/>
		</contour>
	</outline>
</glyph>
<glyph name="euro" format="2">
  <advance width="1201"/>
  <unicode hex="20AC"/>
  <outline>
    <contour>
      <point x="704" y="-19" type="curve" smooth="yes"/>
      <point x="864" y="-19"/>
      <point x="1006" y="69"/>
      <point x="1135" y="239" type="curve" smooth="yes"/>
      <point x="1146" y="254"/>
      <point x="1141" y="264"/>
      <point x="1124" y="279" type="curve" smooth="yes"/>
      <point x="1105" y="294"/>
      <point x="1090" y="298"/>
      <point x="1079" y="285" type="curve" smooth="yes"/>
      <point x="974" y="169"/>
      <point x="858" y="66"/>
      <point x="704" y="66" type="curve" smooth="yes"/>
      <point x="423" y="66"/>
      <point x="231" y="328"/>
      <point x="231" y="749" type="curve" smooth="yes"/>
      <point x="231" y="1171"/>
      <point x="439" y="1430"/>
      <point x="721" y="1430" type="curve" smooth="yes"/>
      <point x="841" y="1430"/>
      <point x="951" y="1375"/>
      <point x="1048" y="1279" type="curve" smooth="yes"/>
      <point x="1060" y="1266"/>
      <point x="1073" y="1269"/>
      <point x="1091" y="1285" type="curve" smooth="yes"/>
      <point x="1108" y="1299"/>
      <point x="1114" y="1310"/>
      <point x="1103" y="1326" type="curve" smooth="yes"/>
      <point x="1011" y="1451"/>
      <point x="858" y="1515"/>
      <point x="721" y="1515" type="curve" smooth="yes"/>
      <point x="375" y="1515"/>
      <point x="138" y="1211"/>
      <point x="138" y="749" type="curve" smooth="yes"/>
      <point x="138" y="285"/>
      <point x="359" y="-19"/>
    </contour>
    <contour>
      <point x="28" y="800" type="curve" smooth="yes"/>
      <point x="880" y="800" type="line" smooth="yes"/>
      <point x="900" y="800"/>
      <point x="908" y="809"/>
      <point x="908" y="839" type="curve" smooth="yes"/>
      <point x="908" y="869"/>
      <point x="900" y="878"/>
      <point x="880" y="878" type="curve" smooth="yes"/>
      <point x="28" y="878" type="line" smooth="yes"/>
      <point x="8" y="878"/>
      <point x="0" y="869"/>
      <point x="0" y="839" type="curve" smooth="yes"/>
      <point x="0" y="809"/>
      <point x="8" y="800"/>
    </contour>
    <contour>
      <point x="28" y="614" type="curve" smooth="yes"/>
      <point x="880" y="614" type="line" smooth="yes"/>
      <point x="900" y="614"/>
      <point x="908" y="623"/>
      <point x="908" y="653" type="curve" smooth="yes"/>
      <point x="908" y="683"/>
      <point x="900" y="691"/>
      <point x="880" y="691" type="curve" smooth="yes"/>
      <point x="28" y="691" type="line" smooth="yes"/>
      <point x="8" y="691"/>
      <point x="0" y="683"/>
      <point x="0" y="653" type="curve" smooth="yes"/>
      <point x="0" y="623"/>
      <point x="8" y="614"/>
    </contour>
  </outline>
</glyph>
<glyph name="product" format="2">
  <advance width="1130"/>
  <unicode hex="220F"/>
  <outline>
    <contour>
      <point x="241" y="-82" type="curve" smooth="yes"/>
      <point x="270" y="-82"/>
      <point x="284" y="-74"/>
      <point x="284" y="-56" type="curve" smooth="yes"/>
      <point x="284" y="1408" type="line"/>
      <point x="846" y="1408" type="line"/>
      <point x="846" y="-56" type="line" smooth="yes"/>
      <point x="846" y="-74"/>
      <point x="860" y="-82"/>
      <point x="888" y="-82" type="curve" smooth="yes"/>
      <point x="917" y="-82"/>
      <point x="931" y="-74"/>
      <point x="931" y="-56" type="curve" smooth="yes"/>
      <point x="931" y="1408" type="line"/>
      <point x="1092" y="1408" type="line" smooth="yes"/>
      <point x="1107" y="1408"/>
      <point x="1117" y="1422"/>
      <point x="1117" y="1448" type="curve" smooth="yes"/>
      <point x="1117" y="1474"/>
      <point x="1107" y="1488"/>
      <point x="1092" y="1488" type="curve" smooth="yes"/>
      <point x="38" y="1488" type="line" smooth="yes"/>
      <point x="23" y="1488"/>
      <point x="13" y="1474"/>
      <point x="13" y="1448" type="curve" smooth="yes"/>
      <point x="13" y="1422"/>
      <point x="23" y="1408"/>
      <point x="38" y="1408" type="curve" smooth="yes"/>
      <point x="199" y="1408" type="line"/>
      <point x="199" y="-56" type="line" smooth="yes"/>
      <point x="199" y="-74"/>
      <point x="213" y="-82"/>
    </contour>
  </outline>
</glyph>
<glyph name="integral" format="2">
	<unicode hex="222B"/>
	<advance width="405"/>
	<outline>
		<contour>
			<point x="46" y="-60" type="curve" smooth="yes"/>
			<point x="146" y="-60"/>
			<point x="179" y="-10"/>
			<point x="191" y="53" type="curve" smooth="yes"/>
			<point x="289" y="592" type="line" smooth="yes"/>
			<point x="297" y="636"/>
			<point x="313" y="655"/>
			<point x="366" y="655" type="curve" smooth="yes"/>
			<point x="389" y="655"/>
			<point x="397" y="663"/>
			<point x="397" y="685" type="curve" smooth="yes"/>
			<point x="397" y="708"/>
			<point x="389" y="715"/>
			<point x="366" y="715" type="curve" smooth="yes"/>
			<point x="266" y="715"/>
			<point x="233" y="665"/>
			<point x="221" y="602" type="curve" smooth="yes"/>
			<point x="123" y="63" type="line" smooth="yes"/>
			<point x="115" y="19"/>
			<point x="99" y="0"/>
			<point x="46" y="0" type="curve" smooth="yes"/>
			<point x="23" y="0"/>
			<point x="15" y="-7"/>
			<point x="15" y="-30" type="curve" smooth="yes"/>
			<point x="15" y="-52"/>
			<point x="23" y="-60"/>
		</contour>
	</outline>
</glyph>
<glyph name="dottedCircle" format="2">
  <advance width="775"/>
  <unicode hex="25CC"/>
  <anchor x="385" y="-50" name="bottom"/>
  <anchor x="386" y="563" name="top"/>
  <outline>
    <contour>
      <point x="386" y="-75" type="curve" smooth="yes"/>
      <point x="413" y="-75"/>
      <point x="426" y="-60"/>
      <point x="426" y="-30" type="curve" smooth="yes"/>
      <point x="426" y="0"/>
      <point x="413" y="15"/>
      <point x="386" y="15" type="curve" smooth="yes"/>
      <point x="360" y="15"/>
      <point x="346" y="0"/>
      <point x="346" y="-30" type="curve" smooth="yes"/>
      <point x="346" y="-60"/>
      <point x="360" y="-75"/>
    </contour>
    <contour>
      <point x="386" y="506" type="curve" smooth="yes"/>
      <point x="413" y="506"/>
      <point x="426" y="521"/>
      <point x="426" y="551" type="curve" smooth="yes"/>
      <point x="426" y="581"/>
      <point x="413" y="596"/>
      <point x="386" y="596" type="curve" smooth="yes"/>
      <point x="360" y="596"/>
      <point x="346" y="581"/>
      <point x="346" y="551" type="curve" smooth="yes"/>
      <point x="346" y="521"/>
      <point x="360" y="506"/>
    </contour>
    <contour>
      <point x="685" y="216" type="curve" smooth="yes"/>
      <point x="712" y="216"/>
      <point x="725" y="231"/>
      <point x="725" y="261" type="curve" smooth="yes"/>
      <point x="725" y="291"/>
      <point x="712" y="306"/>
      <point x="685" y="306" type="curve" smooth="yes"/>
      <point x="659" y="306"/>
      <point x="645" y="291"/>
      <point x="645" y="261" type="curve" smooth="yes"/>
      <point x="645" y="231"/>
      <point x="659" y="216"/>
    </contour>
    <contour>
      <point x="637" y="364" type="curve" smooth="yes"/>
      <point x="664" y="364"/>
      <point x="677" y="379"/>
      <point x="677" y="409" type="curve" smooth="yes"/>
      <point x="677" y="439"/>
      <point x="664" y="454"/>
      <point x="637" y="454" type="curve" smooth="yes"/>
      <point x="611" y="454"/>
      <point x="597" y="439"/>
      <point x="597" y="409" type="curve" smooth="yes"/>
      <point x="597" y="379"/>
      <point x="611" y="364"/>
    </contour>
    <contour>
      <point x="535" y="467" type="curve" smooth="yes"/>
      <point x="562" y="467"/>
      <point x="575" y="482"/>
      <point x="575" y="512" type="curve" smooth="yes"/>
      <point x="575" y="542"/>
      <point x="562" y="557"/>
      <point x="535" y="557" type="curve" smooth="yes"/>
      <point x="509" y="557"/>
      <point x="495" y="542"/>
      <point x="495" y="512" type="curve" smooth="yes"/>
      <point x="495" y="482"/>
      <point x="509" y="467"/>
    </contour>
    <contour>
      <point x="637" y="66" type="curve" smooth="yes"/>
      <point x="664" y="66"/>
      <point x="677" y="81"/>
      <point x="677" y="111" type="curve" smooth="yes"/>
      <point x="677" y="141"/>
      <point x="664" y="156"/>
      <point x="637" y="156" type="curve" smooth="yes"/>
      <point x="611" y="156"/>
      <point x="597" y="141"/>
      <point x="597" y="111" type="curve" smooth="yes"/>
      <point x="597" y="81"/>
      <point x="611" y="66"/>
    </contour>
    <contour>
      <point x="535" y="-38" type="curve" smooth="yes"/>
      <point x="562" y="-38"/>
      <point x="575" y="-23"/>
      <point x="575" y="7" type="curve" smooth="yes"/>
      <point x="575" y="37"/>
      <point x="562" y="52"/>
      <point x="535" y="52" type="curve" smooth="yes"/>
      <point x="509" y="52"/>
      <point x="495" y="37"/>
      <point x="495" y="7" type="curve" smooth="yes"/>
      <point x="495" y="-23"/>
      <point x="509" y="-38"/>
    </contour>
    <contour>
      <point x="90" y="217" type="curve" smooth="yes"/>
      <point x="116" y="217"/>
      <point x="130" y="232"/>
      <point x="130" y="262" type="curve" smooth="yes"/>
      <point x="130" y="292"/>
      <point x="116" y="307"/>
      <point x="90" y="307" type="curve" smooth="yes"/>
      <point x="63" y="307"/>
      <point x="50" y="292"/>
      <point x="50" y="262" type="curve" smooth="yes"/>
      <point x="50" y="232"/>
      <point x="63" y="217"/>
    </contour>
    <contour>
      <point x="138" y="365" type="curve" smooth="yes"/>
      <point x="164" y="365"/>
      <point x="178" y="380"/>
      <point x="178" y="410" type="curve" smooth="yes"/>
      <point x="178" y="440"/>
      <point x="164" y="455"/>
      <point x="138" y="455" type="curve" smooth="yes"/>
      <point x="111" y="455"/>
      <point x="98" y="440"/>
      <point x="98" y="410" type="curve" smooth="yes"/>
      <point x="98" y="380"/>
      <point x="111" y="365"/>
    </contour>
    <contour>
      <point x="240" y="468" type="curve" smooth="yes"/>
      <point x="266" y="468"/>
      <point x="280" y="483"/>
      <point x="280" y="513" type="curve" smooth="yes"/>
      <point x="280" y="543"/>
      <point x="266" y="558"/>
      <point x="240" y="558" type="curve" smooth="yes"/>
      <point x="213" y="558"/>
      <point x="200" y="543"/>
      <point x="200" y="513" type="curve" smooth="yes"/>
      <point x="200" y="483"/>
      <point x="213" y="468"/>
    </contour>
    <contour>
      <point x="138" y="67" type="curve" smooth="yes"/>
      <point x="164" y="67"/>
      <point x="178" y="82"/>
      <point x="178" y="112" type="curve" smooth="yes"/>
      <point x="178" y="142"/>
      <point x="164" y="157"/>
      <point x="138" y="157" type="curve" smooth="yes"/>
      <point x="111" y="157"/>
      <point x="98" y="142"/>
      <point x="98" y="112" type="curve" smooth="yes"/>
      <point x="98" y="82"/>
      <point x="111" y="67"/>
    </contour>
    <contour>
      <point x="240" y="-37" type="curve" smooth="yes"/>
      <point x="266" y="-37"/>
      <point x="280" y="-22"/>
      <point x="280" y="8" type="curve" smooth="yes"/>
      <point x="280" y="38"/>
      <point x="266" y="53"/>
      <point x="240" y="53" type="curve" smooth="yes"/>
      <point x="213" y="53"/>
      <point x="200" y="38"/>
      <point x="200" y="8" type="curve" smooth="yes"/>
      <point x="200" y="-22"/>
      <point x="213" y="-37"/>
    </contour>
  </outline>
</glyph>
<glyph name="A.cur" format="2">
  <advance width="1518"/>
  <anchor x="605" y="0" name="bottom"/>
  <anchor x="1419" y="21" name="ogonek"/>
  <anchor x="711" y="1424" name="top"/>
  <outline>
    <contour>
      <point x="591" y="-17" type="curve" smooth="yes"/>
      <point x="814" y="-17"/>
      <point x="995" y="173"/>
      <point x="1088" y="483" type="curve"/>
      <point x="1088" y="255" type="line" smooth="yes"/>
      <point x="1088" y="65"/>
      <point x="1153" y="-17"/>
      <point x="1279" y="-17" type="curve" smooth="yes"/>
      <point x="1361" y="-17"/>
      <point x="1433" y="31"/>
      <point x="1484" y="123" type="curve" smooth="yes"/>
      <point x="1494" y="141"/>
      <point x="1496" y="161"/>
      <point x="1471" y="178" type="curve" smooth="yes"/>
      <point x="1450" y="193"/>
      <point x="1430" y="191"/>
      <point x="1418" y="168" type="curve" smooth="yes"/>
      <point x="1384" y="101"/>
      <point x="1339" y="66"/>
      <point x="1286" y="66" type="curve" smooth="yes"/>
      <point x="1211" y="66"/>
      <point x="1175" y="115"/>
      <point x="1175" y="255" type="curve" smooth="yes"/>
      <point x="1175" y="816" type="line" smooth="yes"/>
      <point x="1175" y="835"/>
      <point x="1160" y="844"/>
      <point x="1131" y="844" type="curve" smooth="yes"/>
      <point x="1103" y="844"/>
      <point x="1088" y="835"/>
      <point x="1088" y="816" type="curve"/>
      <point x="1031" y="364"/>
      <point x="838" y="68"/>
      <point x="598" y="68" type="curve" smooth="yes"/>
      <point x="350" y="68"/>
      <point x="204" y="299"/>
      <point x="204" y="690" type="curve" smooth="yes"/>
      <point x="204" y="1119"/>
      <point x="418" y="1430"/>
      <point x="714" y="1430" type="curve" smooth="yes"/>
      <point x="885" y="1430"/>
      <point x="1025" y="1334"/>
      <point x="1106" y="1133" type="curve" smooth="yes"/>
      <point x="1119" y="1104"/>
      <point x="1134" y="1098"/>
      <point x="1160" y="1111" type="curve" smooth="yes"/>
      <point x="1184" y="1123"/>
      <point x="1189" y="1140"/>
      <point x="1179" y="1168" type="curve" smooth="yes"/>
      <point x="1090" y="1408"/>
      <point x="921" y="1515"/>
      <point x="715" y="1515" type="curve" smooth="yes"/>
      <point x="364" y="1515"/>
      <point x="110" y="1168"/>
      <point x="110" y="689" type="curve" smooth="yes"/>
      <point x="110" y="245"/>
      <point x="289" y="-17"/>
    </contour>
  </outline>
</glyph>
<glyph name="A.cur.ini" format="2">
	<advance width="1152"/>
	<outline>
		<contour>
			<point x="473" y="-15" type="curve" smooth="yes"/>
			<point x="705" y="-15"/>
			<point x="881" y="244"/>
			<point x="917" y="639" type="curve"/>
			<point x="870" y="653" type="line"/>
			<point x="825" y="290"/>
			<point x="670" y="53"/>
			<point x="478" y="53" type="curve" smooth="yes"/>
			<point x="280" y="53"/>
			<point x="163" y="238"/>
			<point x="163" y="552" type="curve" smooth="yes"/>
			<point x="163" y="895"/>
			<point x="334" y="1144"/>
			<point x="571" y="1144" type="curve" smooth="yes"/>
			<point x="708" y="1144"/>
			<point x="820" y="1067"/>
			<point x="885" y="906" type="curve" smooth="yes"/>
			<point x="895" y="883"/>
			<point x="907" y="878"/>
			<point x="928" y="889" type="curve" smooth="yes"/>
			<point x="947" y="898"/>
			<point x="951" y="912"/>
			<point x="943" y="934" type="curve" smooth="yes"/>
			<point x="872" y="1126"/>
			<point x="737" y="1212"/>
			<point x="572" y="1212" type="curve" smooth="yes"/>
			<point x="291" y="1212"/>
			<point x="88" y="934"/>
			<point x="88" y="551" type="curve" smooth="yes"/>
			<point x="88" y="195"/>
			<point x="231" y="-15"/>
		</contour>
		<contour>
			<point x="1092" y="-14" type="curve" smooth="yes"/>
			<point x="1132" y="-14"/>
			<point x="1147" y="46"/>
			<point x="1107" y="46" type="curve" smooth="yes"/>
			<point x="987" y="46"/>
			<point x="940" y="133"/>
			<point x="940" y="338" type="curve" smooth="yes"/>
			<point x="940" y="653" type="line" smooth="yes"/>
			<point x="940" y="668"/>
			<point x="928" y="675"/>
			<point x="905" y="675" type="curve" smooth="yes"/>
			<point x="882" y="675"/>
			<point x="870" y="668"/>
			<point x="870" y="653" type="curve" smooth="yes"/>
			<point x="870" y="338" type="line" smooth="yes"/>
			<point x="870" y="96"/>
			<point x="938" y="-14"/>
		</contour>
	</outline>
	<anchor name="bottom" x="484" y="0"/>
	<anchor name="cnct" x="1152" y="0"/>
	<anchor name="ogonek" x="1135" y="17"/>
	<anchor name="top" x="569" y="1139"/>
	<guideline y="-11"/>
	<guideline x="606"/>
</glyph>
<glyph name="A.cur_locl" format="2">
  <advance width="1518"/>
  <anchor x="605" y="0" name="bottom"/>
  <anchor x="1419" y="21" name="ogonek"/>
  <anchor x="711" y="1424" name="top"/>
  <outline>
    <contour>
      <point x="591" y="-17" type="curve" smooth="yes"/>
      <point x="814" y="-17"/>
      <point x="995" y="173"/>
      <point x="1088" y="483" type="curve"/>
      <point x="1088" y="254" type="line" smooth="yes"/>
      <point x="1088" y="64"/>
      <point x="1153" y="-19"/>
      <point x="1279" y="-19" type="curve" smooth="yes"/>
      <point x="1361" y="-19"/>
      <point x="1433" y="30"/>
      <point x="1484" y="121" type="curve" smooth="yes"/>
      <point x="1494" y="140"/>
      <point x="1496" y="160"/>
      <point x="1471" y="176" type="curve" smooth="yes"/>
      <point x="1450" y="191"/>
      <point x="1430" y="190"/>
      <point x="1418" y="166" type="curve" smooth="yes"/>
      <point x="1384" y="100"/>
      <point x="1339" y="65"/>
      <point x="1286" y="65" type="curve" smooth="yes"/>
      <point x="1211" y="65"/>
      <point x="1175" y="114"/>
      <point x="1175" y="254" type="curve" smooth="yes"/>
      <point x="1175" y="1488" type="line" smooth="yes"/>
      <point x="1175" y="1506"/>
      <point x="1160" y="1515"/>
      <point x="1131" y="1515" type="curve" smooth="yes"/>
      <point x="1103" y="1515"/>
      <point x="1088" y="1506"/>
      <point x="1088" y="1488" type="curve" smooth="yes"/>
      <point x="1088" y="1328" type="line"/>
      <point x="1000" y="1445"/>
      <point x="860" y="1515"/>
      <point x="715" y="1515" type="curve" smooth="yes"/>
      <point x="364" y="1515"/>
      <point x="110" y="1168"/>
      <point x="110" y="689" type="curve" smooth="yes"/>
      <point x="110" y="245"/>
      <point x="289" y="-17"/>
    </contour>
    <contour>
      <point x="204" y="690" type="curve" smooth="yes"/>
      <point x="204" y="1119"/>
      <point x="418" y="1430"/>
      <point x="714" y="1430" type="curve" smooth="yes"/>
      <point x="880" y="1430"/>
      <point x="1006" y="1345"/>
      <point x="1088" y="1180" type="curve"/>
      <point x="1088" y="816" type="line"/>
      <point x="1031" y="364"/>
      <point x="838" y="68"/>
      <point x="598" y="68" type="curve" smooth="yes"/>
      <point x="350" y="68"/>
      <point x="204" y="299"/>
    </contour>
  </outline>
</glyph>
<glyph name="A.cur_locl.ini" format="2">
  <advance width="1440"/>
  <anchor x="605" y="0" name="bottom"/>
  <anchor x="1440" y="0" name="cnct"/>
  <anchor x="1419" y="21" name="ogonek"/>
  <anchor x="711" y="1424" name="top"/>
  <outline>
    <contour>
      <point x="591" y="-17" type="curve" smooth="yes"/>
      <point x="814" y="-17"/>
      <point x="995" y="173"/>
      <point x="1088" y="483" type="curve"/>
      <point x="1088" y="423" type="line" smooth="yes"/>
      <point x="1088" y="120"/>
      <point x="1173" y="-17"/>
      <point x="1365" y="-17" type="curve" smooth="yes"/>
      <point x="1415" y="-17"/>
      <point x="1434" y="58"/>
      <point x="1384" y="58" type="curve" smooth="yes"/>
      <point x="1234" y="58"/>
      <point x="1175" y="166"/>
      <point x="1175" y="423" type="curve" smooth="yes"/>
      <point x="1175" y="1488" type="line" smooth="yes"/>
      <point x="1175" y="1506"/>
      <point x="1160" y="1515"/>
      <point x="1131" y="1515" type="curve" smooth="yes"/>
      <point x="1103" y="1515"/>
      <point x="1088" y="1506"/>
      <point x="1088" y="1488" type="curve" smooth="yes"/>
      <point x="1088" y="1328" type="line"/>
      <point x="1000" y="1445"/>
      <point x="860" y="1515"/>
      <point x="715" y="1515" type="curve" smooth="yes"/>
      <point x="364" y="1515"/>
      <point x="110" y="1168"/>
      <point x="110" y="689" type="curve" smooth="yes"/>
      <point x="110" y="245"/>
      <point x="289" y="-17"/>
    </contour>
    <contour>
      <point x="204" y="690" type="curve" smooth="yes"/>
      <point x="204" y="1119"/>
      <point x="418" y="1430"/>
      <point x="714" y="1430" type="curve" smooth="yes"/>
      <point x="880" y="1430"/>
      <point x="1006" y="1345"/>
      <point x="1088" y="1180" type="curve"/>
      <point x="1088" y="816" type="line"/>
      <point x="1031" y="364"/>
      <point x="838" y="68"/>
      <point x="598" y="68" type="curve" smooth="yes"/>
      <point x="350" y="68"/>
      <point x="204" y="299"/>
    </contour>
  </outline>
</glyph>
<glyph name="A.dec" format="2">
	<advance width="1163"/>
	<outline>
		<contour>
			<point x="167" y="-14" type="curve" smooth="yes"/>
			<point x="377" y="-14"/>
			<point x="529" y="216"/>
			<point x="702" y="1167" type="curve"/>
			<point x="681" y="1167" type="line"/>
			<point x="749" y="791"/>
			<point x="844" y="406"/>
			<point x="979" y="6" type="curve" smooth="yes"/>
			<point x="985" y="-12"/>
			<point x="1001" y="-17"/>
			<point x="1021" y="-10" type="curve" smooth="yes"/>
			<point x="1044" y="-2"/>
			<point x="1049" y="11"/>
			<point x="1044" y="25" type="curve" smooth="yes"/>
			<point x="911" y="426"/>
			<point x="815" y="805"/>
			<point x="747" y="1174" type="curve" smooth="yes"/>
			<point x="741" y="1206"/>
			<point x="723" y="1212"/>
			<point x="693" y="1212" type="curve" smooth="yes"/>
			<point x="664" y="1212"/>
			<point x="644" y="1204"/>
			<point x="638" y="1174" type="curve" smooth="yes"/>
			<point x="466" y="263"/>
			<point x="333" y="51"/>
			<point x="166" y="51" type="curve" smooth="yes"/>
			<point x="129" y="51"/>
			<point x="89" y="60"/>
			<point x="69" y="67" type="curve" smooth="yes"/>
			<point x="57" y="71"/>
			<point x="45" y="64"/>
			<point x="39" y="45" type="curve" smooth="yes"/>
			<point x="33" y="27"/>
			<point x="40" y="14"/>
			<point x="54" y="7" type="curve" smooth="yes"/>
			<point x="75" y="-4"/>
			<point x="116" y="-14"/>
		</contour>
		<contour>
			<point x="951" y="89" type="curve"/>
			<point x="998" y="111" type="line"/>
			<point x="860" y="424"/>
			<point x="710" y="556"/>
			<point x="490" y="556" type="curve" smooth="yes"/>
			<point x="356" y="556"/>
			<point x="259" y="477"/>
			<point x="259" y="367" type="curve" smooth="yes"/>
			<point x="259" y="252"/>
			<point x="390" y="168"/>
			<point x="571" y="168" type="curve" smooth="yes"/>
			<point x="801" y="168"/>
			<point x="993" y="275"/>
			<point x="1103" y="482" type="curve" smooth="yes"/>
			<point x="1109" y="494"/>
			<point x="1105" y="506"/>
			<point x="1088" y="516" type="curve" smooth="yes"/>
			<point x="1070" y="526"/>
			<point x="1057" y="524"/>
			<point x="1051" y="511" type="curve" smooth="yes"/>
			<point x="953" y="325"/>
			<point x="778" y="230"/>
			<point x="571" y="230" type="curve" smooth="yes"/>
			<point x="431" y="230"/>
			<point x="330" y="288"/>
			<point x="330" y="369" type="curve" smooth="yes"/>
			<point x="330" y="441"/>
			<point x="398" y="494"/>
			<point x="492" y="494" type="curve" smooth="yes"/>
			<point x="683" y="494"/>
			<point x="819" y="374"/>
		</contour>
	</outline>
	<anchor name="bottom" x="620" y="0"/>
	<anchor name="ogonek" x="1026" y="-3"/>
	<anchor name="top" x="690" y="1139"/>
</glyph>
<glyph name="A.dec2.ini" format="2">
	<advance width="1109"/>
	<outline>
		<contour>
			<point x="1049" y="-14" type="curve" smooth="yes"/>
			<point x="1089" y="-14"/>
			<point x="1104" y="46"/>
			<point x="1064" y="46" type="curve" smooth="yes"/>
			<point x="988" y="46"/>
			<point x="953" y="85"/>
			<point x="929" y="200" type="curve" smooth="yes"/>
			<point x="863" y="519"/>
			<point x="821" y="836"/>
			<point x="789" y="1180" type="curve"/>
			<point x="723" y="1166" type="line"/>
			<point x="753" y="820"/>
			<point x="795" y="491"/>
			<point x="860" y="189" type="curve" smooth="yes"/>
			<point x="891" y="46"/>
			<point x="945" y="-14"/>
		</contour>
		<contour>
			<point x="276" y="-14" type="curve" smooth="yes"/>
			<point x="684" y="-14"/>
			<point x="448" y="996"/>
			<point x="791" y="1159" type="curve" smooth="yes"/>
			<point x="806" y="1166"/>
			<point x="810" y="1183"/>
			<point x="800" y="1205" type="curve" smooth="yes"/>
			<point x="791" y="1222"/>
			<point x="780" y="1227"/>
			<point x="766" y="1221" type="curve" smooth="yes"/>
			<point x="386" y="1059"/>
			<point x="587" y="54"/>
			<point x="274" y="54" type="curve" smooth="yes"/>
			<point x="195" y="54"/>
			<point x="137" y="131"/>
			<point x="137" y="237" type="curve" smooth="yes"/>
			<point x="137" y="433"/>
			<point x="271" y="515"/>
			<point x="591" y="515" type="curve" smooth="yes"/>
			<point x="948" y="515" type="line" smooth="yes"/>
			<point x="964" y="515"/>
			<point x="972" y="527"/>
			<point x="972" y="550" type="curve" smooth="yes"/>
			<point x="972" y="571"/>
			<point x="964" y="581"/>
			<point x="948" y="581" type="curve" smooth="yes"/>
			<point x="588" y="581" type="line" smooth="yes"/>
			<point x="218" y="581"/>
			<point x="62" y="479"/>
			<point x="62" y="237" type="curve" smooth="yes"/>
			<point x="62" y="91"/>
			<point x="152" y="-14"/>
		</contour>
	</outline>
	<anchor name="bottom" x="680" y="0"/>
	<anchor name="cnct" x="1109" y="0"/>
	<anchor name="ogonek" x="1085" y="-3"/>
	<anchor name="top" x="692" y="1139"/>
</glyph>
<glyph name="A.dec_locl" format="2">
  <advance width="1604"/>
  <anchor x="775" y="0" name="bottom"/>
  <anchor x="1453" y="0" name="ogonek"/>
  <anchor x="863" y="1424" name="top"/>
  <outline>
    <contour>
      <point x="209" y="-17" type="curve" smooth="yes"/>
      <point x="471" y="-17"/>
      <point x="661" y="270"/>
      <point x="878" y="1459" type="curve"/>
      <point x="851" y="1459" type="line"/>
      <point x="916" y="1098"/>
      <point x="1001" y="730"/>
      <point x="1155" y="230" type="curve" smooth="yes"/>
      <point x="1214" y="45"/>
      <point x="1271" y="-17"/>
      <point x="1381" y="-17" type="curve" smooth="yes"/>
      <point x="1506" y="-17"/>
      <point x="1593" y="124"/>
      <point x="1631" y="400" type="curve" smooth="yes"/>
      <point x="1635" y="420"/>
      <point x="1624" y="433"/>
      <point x="1598" y="438" type="curve" smooth="yes"/>
      <point x="1570" y="443"/>
      <point x="1556" y="434"/>
      <point x="1553" y="413" type="curve" smooth="yes"/>
      <point x="1516" y="180"/>
      <point x="1458" y="63"/>
      <point x="1381" y="63" type="curve" smooth="yes"/>
      <point x="1314" y="63"/>
      <point x="1276" y="111"/>
      <point x="1234" y="254" type="curve" smooth="yes"/>
      <point x="1085" y="753"/>
      <point x="999" y="1114"/>
      <point x="934" y="1468" type="curve" smooth="yes"/>
      <point x="926" y="1508"/>
      <point x="904" y="1515"/>
      <point x="866" y="1515" type="curve" smooth="yes"/>
      <point x="830" y="1515"/>
      <point x="805" y="1505"/>
      <point x="798" y="1468" type="curve" smooth="yes"/>
      <point x="583" y="329"/>
      <point x="416" y="64"/>
      <point x="208" y="64" type="curve" smooth="yes"/>
      <point x="161" y="64"/>
      <point x="111" y="75"/>
      <point x="86" y="84" type="curve" smooth="yes"/>
      <point x="71" y="89"/>
      <point x="56" y="80"/>
      <point x="49" y="56" type="curve" smooth="yes"/>
      <point x="41" y="34"/>
      <point x="50" y="18"/>
      <point x="68" y="9" type="curve" smooth="yes"/>
      <point x="94" y="-5"/>
      <point x="145" y="-17"/>
    </contour>
    <contour>
      <point x="604" y="444" type="line"/>
      <point x="1119" y="444" type="line"/>
      <point x="1119" y="521" type="line"/>
      <point x="604" y="521" type="line"/>
    </contour>
  </outline>
</glyph>
<glyph name="A.dec_locl.ini" format="2">
  <advance width="1454"/>
  <anchor x="775" y="0" name="bottom"/>
  <anchor x="1454" y="0" name="cnct"/>
  <anchor x="1395" y="0" name="ogonek"/>
  <anchor x="863" y="1424" name="top"/>
  <outline>
    <contour>
      <point x="209" y="-17" type="curve" smooth="yes"/>
      <point x="471" y="-17"/>
      <point x="661" y="270"/>
      <point x="878" y="1459" type="curve"/>
      <point x="851" y="1459" type="line"/>
      <point x="916" y="1098"/>
      <point x="1001" y="730"/>
      <point x="1155" y="230" type="curve" smooth="yes"/>
      <point x="1211" y="56"/>
      <point x="1278" y="-17"/>
      <point x="1379" y="-17" type="curve" smooth="yes"/>
      <point x="1429" y="-17"/>
      <point x="1448" y="58"/>
      <point x="1398" y="58" type="curve" smooth="yes"/>
      <point x="1324" y="58"/>
      <point x="1275" y="115"/>
      <point x="1234" y="254" type="curve" smooth="yes"/>
      <point x="1085" y="753"/>
      <point x="999" y="1114"/>
      <point x="934" y="1468" type="curve" smooth="yes"/>
      <point x="926" y="1508"/>
      <point x="904" y="1515"/>
      <point x="866" y="1515" type="curve" smooth="yes"/>
      <point x="830" y="1515"/>
      <point x="805" y="1505"/>
      <point x="798" y="1468" type="curve" smooth="yes"/>
      <point x="583" y="329"/>
      <point x="416" y="64"/>
      <point x="208" y="64" type="curve" smooth="yes"/>
      <point x="161" y="64"/>
      <point x="111" y="75"/>
      <point x="86" y="84" type="curve" smooth="yes"/>
      <point x="71" y="89"/>
      <point x="56" y="80"/>
      <point x="49" y="56" type="curve" smooth="yes"/>
      <point x="41" y="34"/>
      <point x="50" y="18"/>
      <point x="68" y="9" type="curve" smooth="yes"/>
      <point x="94" y="-5"/>
      <point x="145" y="-17"/>
    </contour>
    <contour>
      <point x="604" y="444" type="line"/>
      <point x="1119" y="444" type="line"/>
      <point x="1119" y="521" type="line"/>
      <point x="604" y="521" type="line"/>
    </contour>
  </outline>
</glyph>
<glyph name="AE.cur" format="2">
  <advance width="1594"/>
  <anchor x="951" y="1139" name="top"/>
  <outline>
    <contour>
      <point x="139" y="-14" type="curve" smooth="yes"/>
      <point x="305" y="-14"/>
      <point x="392" y="135"/>
      <point x="767" y="1162" type="curve"/>
      <point x="745" y="1157" type="line"/>
      <point x="757" y="861"/>
      <point x="793" y="546"/>
      <point x="850" y="238" type="curve" smooth="yes"/>
      <point x="855" y="211"/>
      <point x="866" y="202"/>
      <point x="891" y="208" type="curve" smooth="yes"/>
      <point x="914" y="214"/>
      <point x="921" y="224"/>
      <point x="916" y="252" type="curve" smooth="yes"/>
      <point x="862" y="551"/>
      <point x="825" y="870"/>
      <point x="810" y="1173" type="curve" smooth="yes"/>
      <point x="809" y="1198"/>
      <point x="791" y="1210"/>
      <point x="761" y="1210" type="curve" smooth="yes"/>
      <point x="729" y="1210"/>
      <point x="712" y="1198"/>
      <point x="703" y="1175" type="curve" smooth="yes"/>
      <point x="341" y="189"/>
      <point x="254" y="51"/>
      <point x="138" y="51" type="curve" smooth="yes"/>
      <point x="117" y="51"/>
      <point x="101" y="55"/>
      <point x="72" y="67" type="curve" smooth="yes"/>
      <point x="60" y="72"/>
      <point x="46" y="66"/>
      <point x="39" y="48" type="curve" smooth="yes"/>
      <point x="31" y="28"/>
      <point x="40" y="14"/>
      <point x="55" y="6" type="curve" smooth="yes"/>
      <point x="81" y="-8"/>
      <point x="108" y="-14"/>
    </contour>
    <contour>
      <point x="431" y="381" type="line"/>
      <point x="864" y="381" type="line"/>
      <point x="853" y="443" type="line"/>
      <point x="455" y="443" type="line"/>
    </contour>
    <contour>
      <point x="1192" y="-15" type="curve" smooth="yes"/>
      <point x="1321" y="-15"/>
      <point x="1437" y="48"/>
      <point x="1526" y="166" type="curve" smooth="yes"/>
      <point x="1544" y="190"/>
      <point x="1540" y="203"/>
      <point x="1523" y="217" type="curve" smooth="yes"/>
      <point x="1507" y="231"/>
      <point x="1493" y="228"/>
      <point x="1479" y="210" type="curve" smooth="yes"/>
      <point x="1400" y="108"/>
      <point x="1300" y="53"/>
      <point x="1193" y="53" type="curve" smooth="yes"/>
      <point x="1026" y="53"/>
      <point x="916" y="157"/>
      <point x="916" y="317" type="curve" smooth="yes"/>
      <point x="916" y="479"/>
      <point x="1034" y="597"/>
      <point x="1198" y="597" type="curve" smooth="yes"/>
      <point x="1345" y="597" type="line" smooth="yes"/>
      <point x="1361" y="597"/>
      <point x="1367" y="605"/>
      <point x="1367" y="629" type="curve" smooth="yes"/>
      <point x="1367" y="653"/>
      <point x="1361" y="661"/>
      <point x="1345" y="661" type="curve" smooth="yes"/>
      <point x="1198" y="661" type="line" smooth="yes"/>
      <point x="1062" y="661"/>
      <point x="963" y="767"/>
      <point x="963" y="913" type="curve" smooth="yes"/>
      <point x="963" y="1047"/>
      <point x="1063" y="1144"/>
      <point x="1202" y="1144" type="curve" smooth="yes"/>
      <point x="1293" y="1144"/>
      <point x="1378" y="1109"/>
      <point x="1447" y="1044" type="curve" smooth="yes"/>
      <point x="1465" y="1027"/>
      <point x="1477" y="1022"/>
      <point x="1496" y="1039" type="curve" smooth="yes"/>
      <point x="1515" y="1057"/>
      <point x="1507" y="1074"/>
      <point x="1493" y="1089" type="curve" smooth="yes"/>
      <point x="1418" y="1169"/>
      <point x="1318" y="1212"/>
      <point x="1206" y="1212" type="curve" smooth="yes"/>
      <point x="1022" y="1212"/>
      <point x="888" y="1086"/>
      <point x="888" y="911" type="curve" smooth="yes"/>
      <point x="888" y="776"/>
      <point x="964" y="665"/>
      <point x="1081" y="631" type="curve"/>
      <point x="942" y="598"/>
      <point x="841" y="463"/>
      <point x="841" y="312" type="curve" smooth="yes"/>
      <point x="841" y="114"/>
      <point x="980" y="-15"/>
    </contour>
  </outline>
</glyph>
<glyph name="AE.cur.locl" format="2">
  <advance width="1860"/>
  <anchor x="1025" y="1424" name="top"/>
  <outline>
    <contour>
      <point x="144" y="-17" type="curve" smooth="yes"/>
      <point x="381" y="-17"/>
      <point x="511" y="226"/>
      <point x="969" y="1408" type="curve"/>
      <point x="1013" y="1408" type="line"/>
      <point x="1013" y="1488" type="line"/>
      <point x="958" y="1488" type="line" smooth="yes"/>
      <point x="923" y="1488"/>
      <point x="905" y="1474"/>
      <point x="893" y="1443" type="curve" smooth="yes"/>
      <point x="441" y="300"/>
      <point x="310" y="64"/>
      <point x="145" y="64" type="curve" smooth="yes"/>
      <point x="119" y="64"/>
      <point x="96" y="69"/>
      <point x="56" y="85" type="curve" smooth="yes"/>
      <point x="43" y="91"/>
      <point x="28" y="83"/>
      <point x="19" y="60" type="curve" smooth="yes"/>
      <point x="10" y="38"/>
      <point x="11" y="23"/>
      <point x="29" y="13" type="curve" smooth="yes"/>
      <point x="71" y="-10"/>
      <point x="105" y="-17"/>
    </contour>
    <contour>
      <point x="1015" y="704" type="line"/>
      <point x="1015" y="784" type="line"/>
      <point x="678" y="784" type="line"/>
      <point x="648" y="704" type="line"/>
    </contour>
    <contour>
      <point x="1429" y="0" type="line" smooth="yes"/>
      <point x="1630" y="0"/>
      <point x="1771" y="110"/>
      <point x="1816" y="299" type="curve" smooth="yes"/>
      <point x="1821" y="320"/>
      <point x="1815" y="331"/>
      <point x="1790" y="339" type="curve" smooth="yes"/>
      <point x="1764" y="346"/>
      <point x="1749" y="341"/>
      <point x="1743" y="320" type="curve" smooth="yes"/>
      <point x="1703" y="169"/>
      <point x="1599" y="80"/>
      <point x="1421" y="80" type="curve" smooth="yes"/>
      <point x="1056" y="80" type="line"/>
      <point x="1056" y="704" type="line"/>
      <point x="1423" y="704" type="line" smooth="yes"/>
      <point x="1443" y="704"/>
      <point x="1450" y="714"/>
      <point x="1450" y="744" type="curve" smooth="yes"/>
      <point x="1450" y="774"/>
      <point x="1443" y="784"/>
      <point x="1423" y="784" type="curve" smooth="yes"/>
      <point x="1056" y="784" type="line"/>
      <point x="1056" y="1408" type="line"/>
      <point x="1590" y="1408" type="line" smooth="yes"/>
      <point x="1610" y="1408"/>
      <point x="1618" y="1418"/>
      <point x="1618" y="1448" type="curve" smooth="yes"/>
      <point x="1618" y="1478"/>
      <point x="1610" y="1488"/>
      <point x="1590" y="1488" type="curve" smooth="yes"/>
      <point x="1013" y="1488" type="line" smooth="yes"/>
      <point x="984" y="1488"/>
      <point x="969" y="1479"/>
      <point x="969" y="1460" type="curve" smooth="yes"/>
      <point x="969" y="40" type="line" smooth="yes"/>
      <point x="969" y="13"/>
      <point x="984" y="0"/>
      <point x="1013" y="0" type="curve" smooth="yes"/>
    </contour>
  </outline>
</glyph>
<glyph name="AE.cur.locl.ini" format="2">
  <advance width="1660"/>
  <anchor x="1025" y="1424" name="top"/>
  <outline>
    <contour>
      <point x="144" y="-17" type="curve" smooth="yes"/>
      <point x="381" y="-17"/>
      <point x="511" y="226"/>
      <point x="969" y="1408" type="curve"/>
      <point x="1013" y="1408" type="line"/>
      <point x="1013" y="1488" type="line"/>
      <point x="958" y="1488" type="line" smooth="yes"/>
      <point x="923" y="1488"/>
      <point x="905" y="1474"/>
      <point x="893" y="1443" type="curve" smooth="yes"/>
      <point x="441" y="300"/>
      <point x="310" y="64"/>
      <point x="145" y="64" type="curve" smooth="yes"/>
      <point x="119" y="64"/>
      <point x="96" y="69"/>
      <point x="56" y="85" type="curve" smooth="yes"/>
      <point x="43" y="91"/>
      <point x="28" y="83"/>
      <point x="19" y="60" type="curve" smooth="yes"/>
      <point x="10" y="38"/>
      <point x="11" y="23"/>
      <point x="29" y="13" type="curve" smooth="yes"/>
      <point x="71" y="-10"/>
      <point x="105" y="-17"/>
    </contour>
    <contour>
      <point x="1015" y="704" type="line"/>
      <point x="1015" y="784" type="line"/>
      <point x="678" y="784" type="line"/>
      <point x="648" y="704" type="line"/>
    </contour>
    <contour>
      <point x="1429" y="0" type="line"/>
      <point x="1469" y="0"/>
      <point x="1461" y="80"/>
      <point x="1421" y="80" type="curve" smooth="yes"/>
      <point x="1056" y="80" type="line"/>
      <point x="1056" y="704" type="line"/>
      <point x="1423" y="704" type="line" smooth="yes"/>
      <point x="1443" y="704"/>
      <point x="1450" y="714"/>
      <point x="1450" y="744" type="curve" smooth="yes"/>
      <point x="1450" y="774"/>
      <point x="1443" y="784"/>
      <point x="1423" y="784" type="curve" smooth="yes"/>
      <point x="1056" y="784" type="line"/>
      <point x="1056" y="1408" type="line"/>
      <point x="1590" y="1408" type="line" smooth="yes"/>
      <point x="1610" y="1408"/>
      <point x="1618" y="1418"/>
      <point x="1618" y="1448" type="curve" smooth="yes"/>
      <point x="1618" y="1478"/>
      <point x="1610" y="1488"/>
      <point x="1590" y="1488" type="curve" smooth="yes"/>
      <point x="1013" y="1488" type="line" smooth="yes"/>
      <point x="984" y="1488"/>
      <point x="969" y="1479"/>
      <point x="969" y="1460" type="curve" smooth="yes"/>
      <point x="969" y="40" type="line" smooth="yes"/>
      <point x="969" y="13"/>
      <point x="984" y="0"/>
      <point x="1013" y="0" type="curve" smooth="yes"/>
    </contour>
  </outline>
</glyph>
<glyph name="B.cur" format="2">
	<advance width="1108"/>
	<outline>
		<contour>
			<point x="648" y="-15" type="curve" smooth="yes"/>
			<point x="868" y="-15"/>
			<point x="1027" y="146"/>
			<point x="1027" y="369" type="curve" smooth="yes"/>
			<point x="1027" y="533"/>
			<point x="906" y="652"/>
			<point x="739" y="652" type="curve"/>
			<point x="739" y="654" type="line"/>
			<point x="875" y="691"/>
			<point x="964" y="804"/>
			<point x="964" y="940" type="curve" smooth="yes"/>
			<point x="964" y="1111"/>
			<point x="810" y="1212"/>
			<point x="550" y="1212" type="curve" smooth="yes"/>
			<point x="323" y="1212"/>
			<point x="147" y="1125"/>
			<point x="35" y="978" type="curve" smooth="yes"/>
			<point x="26" y="967"/>
			<point x="25" y="952"/>
			<point x="41" y="939" type="curve" smooth="yes"/>
			<point x="57" y="926"/>
			<point x="73" y="926"/>
			<point x="82" y="937" type="curve" smooth="yes"/>
			<point x="193" y="1075"/>
			<point x="335" y="1144"/>
			<point x="550" y="1144" type="curve" smooth="yes"/>
			<point x="771" y="1144"/>
			<point x="889" y="1072"/>
			<point x="889" y="938" type="curve" smooth="yes"/>
			<point x="889" y="801"/>
			<point x="802" y="705"/>
			<point x="656" y="679" type="curve"/>
			<point x="640" y="686"/>
			<point x="617" y="693"/>
			<point x="589" y="693" type="curve" smooth="yes"/>
			<point x="545" y="693"/>
			<point x="523" y="665"/>
			<point x="523" y="637" type="curve" smooth="yes"/>
			<point x="523" y="610"/>
			<point x="545" y="590"/>
			<point x="582" y="590" type="curve" smooth="yes"/>
			<point x="606" y="590"/>
			<point x="631" y="598"/>
			<point x="658" y="612" type="curve"/>
			<point x="843" y="612"/>
			<point x="952" y="520"/>
			<point x="952" y="365" type="curve" smooth="yes"/>
			<point x="952" y="184"/>
			<point x="824" y="53"/>
			<point x="648" y="53" type="curve" smooth="yes"/>
			<point x="598" y="53"/>
			<point x="548" y="64"/>
			<point x="504" y="85" type="curve" smooth="yes"/>
			<point x="484" y="94"/>
			<point x="472" y="90"/>
			<point x="462" y="71" type="curve" smooth="yes"/>
			<point x="452" y="52"/>
			<point x="458" y="38"/>
			<point x="476" y="28" type="curve" smooth="yes"/>
			<point x="525" y="1"/>
			<point x="589" y="-15"/>
		</contour>
		<contour>
			<point x="231" y="-15" type="curve" smooth="yes"/>
			<point x="344" y="-15"/>
			<point x="404" y="64"/>
			<point x="404" y="204" type="curve" smooth="yes"/>
			<point x="404" y="1009" type="line" smooth="yes"/>
			<point x="404" y="1024"/>
			<point x="392" y="1031"/>
			<point x="369" y="1031" type="curve" smooth="yes"/>
			<point x="346" y="1031"/>
			<point x="334" y="1024"/>
			<point x="334" y="1009" type="curve" smooth="yes"/>
			<point x="334" y="214" type="line" smooth="yes"/>
			<point x="334" y="104"/>
			<point x="302" y="51"/>
			<point x="234" y="51" type="curve" smooth="yes"/>
			<point x="177" y="51"/>
			<point x="137" y="80"/>
			<point x="97" y="135" type="curve" smooth="yes"/>
			<point x="84" y="153"/>
			<point x="72" y="154"/>
			<point x="53" y="142" type="curve" smooth="yes"/>
			<point x="36" y="131"/>
			<point x="35" y="116"/>
			<point x="46" y="97" type="curve" smooth="yes"/>
			<point x="81" y="36"/>
			<point x="146" y="-15"/>
		</contour>
	</outline>
	<anchor name="bottom" x="609" y="0"/>
	<anchor name="center" x="370" y="350"/>
	<anchor name="top" x="609" y="1139"/>
</glyph>
<glyph name="B.dec" format="2">
  <advance width="1424"/>
  <anchor x="829" y="0" name="bottom"/>
  <anchor x="399" y="438" name="center"/>
  <anchor x="829" y="1424" name="top"/>
  <outline>
    <contour>
      <point x="854" y="-12" type="curve" smooth="yes"/>
      <point x="1130" y="-12"/>
      <point x="1330" y="188"/>
      <point x="1330" y="465" type="curve" smooth="yes"/>
      <point x="1330" y="673"/>
      <point x="1186" y="818"/>
      <point x="985" y="818" type="curve"/>
      <point x="985" y="820" type="line"/>
      <point x="1148" y="865"/>
      <point x="1251" y="969"/>
      <point x="1251" y="1171" type="curve" smooth="yes"/>
      <point x="1251" y="1371"/>
      <point x="1128" y="1515"/>
      <point x="889" y="1515" type="curve" smooth="yes"/>
      <point x="701" y="1515"/>
      <point x="531" y="1410"/>
      <point x="441" y="1188" type="curve"/>
      <point x="441" y="1488" type="line" smooth="yes"/>
      <point x="441" y="1506"/>
      <point x="426" y="1515"/>
      <point x="398" y="1515" type="curve" smooth="yes"/>
      <point x="369" y="1515"/>
      <point x="355" y="1506"/>
      <point x="351" y="1488" type="curve" smooth="yes"/>
      <point x="313" y="1286"/>
      <point x="228" y="1138"/>
      <point x="64" y="1048" type="curve" smooth="yes"/>
      <point x="39" y="1034"/>
      <point x="38" y="1016"/>
      <point x="50" y="993" type="curve" smooth="yes"/>
      <point x="65" y="964"/>
      <point x="84" y="963"/>
      <point x="103" y="974" type="curve" smooth="yes"/>
      <point x="225" y="1046"/>
      <point x="301" y="1128"/>
      <point x="354" y="1250" type="curve"/>
      <point x="354" y="14" type="line" smooth="yes"/>
      <point x="354" y="-5"/>
      <point x="369" y="-14"/>
      <point x="398" y="-14" type="curve" smooth="yes"/>
      <point x="426" y="-14"/>
      <point x="441" y="-5"/>
      <point x="441" y="14" type="curve" smooth="yes"/>
      <point x="441" y="790" type="line" smooth="yes"/>
      <point x="441" y="1216"/>
      <point x="646" y="1430"/>
      <point x="875" y="1430" type="curve" smooth="yes"/>
      <point x="1063" y="1430"/>
      <point x="1159" y="1323"/>
      <point x="1159" y="1163" type="curve" smooth="yes"/>
      <point x="1159" y="980"/>
      <point x="1054" y="883"/>
      <point x="873" y="850" type="curve"/>
      <point x="849" y="860"/>
      <point x="819" y="868"/>
      <point x="783" y="868" type="curve" smooth="yes"/>
      <point x="731" y="868"/>
      <point x="700" y="839"/>
      <point x="700" y="800" type="curve" smooth="yes"/>
      <point x="700" y="764"/>
      <point x="730" y="741"/>
      <point x="771" y="741" type="curve" smooth="yes"/>
      <point x="801" y="741"/>
      <point x="839" y="753"/>
      <point x="875" y="769" type="curve"/>
      <point x="1108" y="769"/>
      <point x="1236" y="659"/>
      <point x="1236" y="461" type="curve" smooth="yes"/>
      <point x="1236" y="236"/>
      <point x="1083" y="73"/>
      <point x="870" y="73" type="curve" smooth="yes"/>
      <point x="796" y="73"/>
      <point x="731" y="84"/>
      <point x="671" y="119" type="curve" smooth="yes"/>
      <point x="649" y="131"/>
      <point x="630" y="126"/>
      <point x="616" y="105" type="curve" smooth="yes"/>
      <point x="600" y="79"/>
      <point x="603" y="59"/>
      <point x="633" y="43" type="curve" smooth="yes"/>
      <point x="691" y="9"/>
      <point x="773" y="-12"/>
    </contour>
  </outline>
</glyph>
<glyph name="C.cur" format="2">
  <advance width="1200"/>
  <anchor x="683" y="0" name="bottom"/>
  <anchor x="708" y="1424" name="top"/>
  <outline>
    <contour>
      <point x="704" y="-19" type="curve" smooth="yes"/>
      <point x="865" y="-19"/>
      <point x="1019" y="61"/>
      <point x="1125" y="220" type="curve" smooth="yes"/>
      <point x="1144" y="246"/>
      <point x="1144" y="268"/>
      <point x="1126" y="283" type="curve" smooth="yes"/>
      <point x="1105" y="303"/>
      <point x="1084" y="299"/>
      <point x="1063" y="269" type="curve" smooth="yes"/>
      <point x="970" y="138"/>
      <point x="845" y="66"/>
      <point x="704" y="66" type="curve" smooth="yes"/>
      <point x="420" y="66"/>
      <point x="231" y="329"/>
      <point x="231" y="749" type="curve" smooth="yes"/>
      <point x="231" y="1161"/>
      <point x="431" y="1430"/>
      <point x="721" y="1430" type="curve" smooth="yes"/>
      <point x="865" y="1430"/>
      <point x="969" y="1366"/>
      <point x="1068" y="1231" type="curve" smooth="yes"/>
      <point x="1086" y="1205"/>
      <point x="1103" y="1208"/>
      <point x="1123" y="1223" type="curve" smooth="yes"/>
      <point x="1148" y="1241"/>
      <point x="1146" y="1256"/>
      <point x="1130" y="1281" type="curve" smooth="yes"/>
      <point x="1021" y="1445"/>
      <point x="876" y="1515"/>
      <point x="721" y="1515" type="curve" smooth="yes"/>
      <point x="371" y="1515"/>
      <point x="138" y="1203"/>
      <point x="138" y="749" type="curve" smooth="yes"/>
      <point x="138" y="289"/>
      <point x="359" y="-19"/>
    </contour>
  </outline>
</glyph>
<glyph name="C.cur.ini" format="2">
  <advance width="1160"/>
  <anchor x="683" y="0" name="bottom"/>
  <anchor x="1160" y="0" name="cnct"/>
  <anchor x="708" y="1424" name="top"/>
  <outline>
    <contour>
      <point x="734" y="-17" type="curve" smooth="yes"/>
      <point x="774" y="-17"/>
      <point x="774" y="58"/>
      <point x="734" y="58" type="curve" smooth="yes"/>
      <point x="421" y="58"/>
      <point x="231" y="320"/>
      <point x="231" y="749" type="curve" smooth="yes"/>
      <point x="231" y="1161"/>
      <point x="431" y="1430"/>
      <point x="721" y="1430" type="curve" smooth="yes"/>
      <point x="865" y="1430"/>
      <point x="969" y="1366"/>
      <point x="1068" y="1231" type="curve" smooth="yes"/>
      <point x="1086" y="1205"/>
      <point x="1103" y="1208"/>
      <point x="1123" y="1223" type="curve" smooth="yes"/>
      <point x="1148" y="1241"/>
      <point x="1146" y="1256"/>
      <point x="1130" y="1281" type="curve" smooth="yes"/>
      <point x="1021" y="1445"/>
      <point x="876" y="1515"/>
      <point x="721" y="1515" type="curve" smooth="yes"/>
      <point x="371" y="1515"/>
      <point x="138" y="1203"/>
      <point x="138" y="749" type="curve" smooth="yes"/>
      <point x="138" y="273"/>
      <point x="364" y="-17"/>
    </contour>
  </outline>
</glyph>
